<svg xmlns="http://www.w3.org/2000/svg" viewBox="0 0 2800 500"><defs><style>.cls-1{fill:#a50832;}.cls-2,.cls-4{fill:#e2c9a1;}.cls-2{stroke:#d1b27c;}.cls-2,.cls-21{stroke-miterlimit:10;}.cls-3{fill:#cc0a34;}.cls-5{fill:#fff;}.cls-6{fill:#fcfcfc;}.cls-7{fill:#54351e;}.cls-8{fill:#7f643d;}.cls-9{fill:#21170c;}.cls-10{fill:#561212;}.cls-11{fill:red;}.cls-12{fill:#085db2;}.cls-13{fill:#0074ff;}.cls-14{fill:#e82a65;}.cls-15,.cls-21{fill:#249624;}.cls-16{fill:#3f341b;}.cls-17{fill:#2d2d2d;}.cls-18{fill:#121414;}.cls-19{fill:#171919;}.cls-20{fill:#242626;}.cls-21{stroke:#249624;}</style></defs><title>boyani</title><g id="Sprite_1" data-name="Sprite 1"><path class="cls-1" d="M167,245.27c-14,9-33.43,28.87-46.76,41.28s-27,18-31.32,37.68c4.11,2.23,8.42,4.28,12.53,6.49,5.26-16.74,15.92-21.29,28.17-33.55s23.89-24.47,35.23-38c4.58-5.47,11.18-8.13,11.73-15.68-3.61.7-7.28,1.17-10.91,1.78"/><rect class="cls-2" x="80.15" y="440.02" width="15.38" height="20.87" transform="translate(416.07 129.68) rotate(56.69)"/><rect class="cls-2" x="251.69" y="442.86" width="15.38" height="20.87" transform="translate(-191.9 190.42) rotate(-30)"/><path class="cls-3" d="M135.72,365.75h41.9q.28-12.72.46-25.3h.7c.17,9.62.34,19.22.44,25.07v.23h36.95c.56-2.58,1.1-5.08,1.62-7.41q2.11-9.49,3.43-18.71,1.54-10.75,2.07-21.12c.06-1.05.1-2.09.14-3.12a227,227,0,0,0-16-92.46l-62.9.6c-11.11,26.32-13,59.25-12,91.85C133.13,332.62,134.48,349.72,135.72,365.75Z"/><ellipse class="cls-4" cx="174.79" cy="125.5" rx="80.27" ry="105.12"/><path class="cls-5" d="M169.08,103.63c0,15.23-9.46,27.58-21.12,27.58s-21.13-12.35-21.13-27.58A33.54,33.54,0,0,1,130.57,88C134.37,80.77,140.74,76,148,76S161.54,80.77,165.35,88A33.65,33.65,0,0,1,169.08,103.63Z"/><ellipse class="cls-6" cx="205.11" cy="103.63" rx="21.12" ry="27.58"/><path class="cls-6" d="M199.6,165.42a38.43,38.43,0,0,1-.21,4.06c-.09.85-.2,1.67-.34,2.49s-.32,1.67-.52,2.48a28.52,28.52,0,0,1-3.2,7.9,19.32,19.32,0,0,1-1.41,2c-2.46,3.12-5.55,5-8.89,5H164.81c-3.34,0-6.41-1.85-8.87-5a26.22,26.22,0,0,1-4.59-9.94c-.2-.8-.38-1.63-.52-2.48s-.25-1.64-.34-2.49a39.72,39.72,0,0,1-.2-4V164h48.45C199.21,164,199.6,164.64,199.6,165.42Z"/><ellipse cx="147.96" cy="113.57" rx="13.67" ry="17.85"/><ellipse cx="205.11" cy="113.57" rx="13.67" ry="17.85"/><ellipse class="cls-5" cx="145.97" cy="109.09" rx="3.23" ry="4.22"/><ellipse class="cls-5" cx="202.13" cy="108.1" rx="3.23" ry="4.22"/><path class="cls-7" d="M113.66,34c-2.28,2.94-4.61,6-5.78,9.5s-1,7.75,1.45,10.59c3.23,3.78,9.36,3.79,13.68,1.33s7.22-6.76,9.85-11c-3,4-6.06,9.32-3.58,13.65,2.33,4.06,8.48,4.33,12.4,1.77s6.14-7,8.18-11.18a13.76,13.76,0,0,0-2,12.86A12.13,12.13,0,0,0,158,69.34c4.35.3,8.62-2,11.34-5.45a17.41,17.41,0,0,0,3.54-13.56,11.34,11.34,0,1,0,19.78-2c2.75,3.32,5.56,6.69,9.16,9.06S210,61,214.15,59.74s7.33-5.67,6.4-9.88c-1-4.61-6-7-10.34-8.78a44.15,44.15,0,0,0,24.57,4.48,15.49,15.49,0,0,0,6.65-2C246.61,40.3,247,32,242.91,27.5c-3.13-3.43-7.89-4.8-12.44-5.69a101.93,101.93,0,0,0-29.32-1.46c2.9-.22,5.9-.46,8.49-1.78s4.71-4,4.42-6.94-2.69-5-5.33-5.85-5.52-.73-8.3-.57c-31.62,1.88-63.76,3.86-93.54,14.66a18.9,18.9,0,0,0-6.78,3.66c-1.87,1.79-3,4.6-2.12,7s3.29,3.73,5.72,4.07a20.56,20.56,0,0,0,7.29-.77"/><path class="cls-8" d="M174.74,127.47a117.62,117.62,0,0,0-13.29,22.15,1.51,1.51,0,0,0,2.05,2,17,17,0,0,1,16.22-.71c1.73.82,3.26-1.76,1.51-2.59a20.11,20.11,0,0,0-19.24.71l2,2A117.75,117.75,0,0,1,177.33,129c1.17-1.54-1.43-3-2.59-1.52Z"/><path class="cls-4" d="M96.5,103c-1.27-3.63-6.4-5.3-10.29-3.93a11.18,11.18,0,0,0-7,8.82c-.61,3.77.38,7.6,1.74,11.19a58.68,58.68,0,0,0,15,22.17l1.49-38.66"/><path class="cls-4" d="M252.51,103c1.27-3.63,6.41-5.3,10.29-3.93a11.18,11.18,0,0,1,7,8.82c.62,3.77-.37,7.6-1.73,11.19A58.91,58.91,0,0,1,253,141.28l-1.5-38.66"/><path class="cls-9" d="M199.39,169.48c-.09.85-.2,1.67-.34,2.49s-.32,1.67-.52,2.48a28.52,28.52,0,0,1-3.2,7.9,19.32,19.32,0,0,1-1.41,2h-38a26.22,26.22,0,0,1-4.59-9.94c-.2-.8-.38-1.63-.52-2.48s-.25-1.64-.34-2.49Z"/><path class="cls-10" d="M182,184.39h-15.1c.16-3,3.48-5.47,7.55-5.47S181.87,181.35,182,184.39Z"/><rect class="cls-11" x="162.52" y="326.57" width="33.93" height="13.88" rx="6.05" ry="6.05"/><path class="cls-12" d="M220.43,314.38c.13,1.69,0,1.36.18,3.41s-.09,1.49.29,5.14-.31,4.47.63,11.07-2-7.79,1.19,8.68,37.57,77.16,49,99.86c-8.48,6.68-17.63,9.81-26.46,14.94-2.28-3.94-4.47-7.65-6.75-11.59l-.74-1.27c-14-23.64-27.74-44.49-41.91-69.3-4.08-7.13-11.49-21.39-14.61-30.72-1-2.91-2.18-7.18-2.83-10.21-.21-1-.39-1.87-.56-2.66s-.23-1.21-.37-1.92c0-.13-.05-.21-.07-.33s0,.12,0-.05-.13-.66-.19-.95c-.12-.59-.25-1.31-.37-1.92-.3-1.51-.6-3-.89-4.49-.12-.6-.19-1-.31-1.63s-.3-1.53-.44-2.22c15-2.44,30-1.53,45-3.74C220.21,314.47,220.36,314.48,220.43,314.38Z"/><path class="cls-13" d="M179.56,318.14c0,.64-.09,1.61-.12,2.18s-.05,1-.08,1.4c-.1,1.49-.2,2.87-.3,4.32,0,.64-.08,1.28-.12,1.89,0,.27,0,.66-.05.84s0,.21,0,.28c-.05.74-.08,1.19-.14,1.95s-.06,1.29-.14,2.23,0,1.51-.16,2.76c-.22,2.3-.16,3.45-.58,6.42-1.86,13.21-5.43,31.24-9.53,43.45-5.46,16.26-16.24,27.08-26.11,38.46-9,10.37-16.61,15.72-25.84,24.58-.42.4-.71.61-1.08.94-3,2.7-5.74,5.46-8.59,8.26-7.19-6.7-14.33-13.47-21.54-20.14,9.3-12.25,18.83-23.8,28.56-35.85,6.48-8,11.57-16.26,14.77-26.33a41.57,41.57,0,0,0,1.4-5.28c3.05-18,4.3-36.48,5.44-54.66l.24,0,.71.09C150.7,317.51,165.05,318.58,179.56,318.14Z"/><path d="M191.17,318.1a26.85,26.85,0,0,0,27.62,26.75c1.93,0,1.93-3,0-3a23.83,23.83,0,0,1-24.62-23.75c0-1.93-3-1.94-3,0Z"/><path d="M162,317.22a23.89,23.89,0,0,1-26.62,20.66c-1.92-.2-1.9,2.8,0,3A26.76,26.76,0,0,0,164.9,318c.28-1.89-2.61-2.7-2.9-.8Z"/><path d="M175.77,319.52c2.22-.88,3.81-.41,4.44,2.17a16.37,16.37,0,0,1-.13,3.89l-.3,9.07,1.9-1.44L176.12,332l1,1a45.53,45.53,0,0,1-.59-15.18c.25-1.91-2.76-1.89-3,0a47.66,47.66,0,0,0,.7,16,1.49,1.49,0,0,0,1,1.05l5.56,1.22a1.53,1.53,0,0,0,1.9-1.45l.3-9.07c.07-2.12.51-4.57-.12-6.62-1.15-3.72-5-3.53-8-2.34-1.78.7-1,3.6.79,2.9Z"/><path class="cls-14" d="M175.42,252.51c36.67,53.29,47.49,47.39,102.11,74.91,1.82-2,3.69-3.93,5.46-6C237.56,292,224.54,296.54,189.48,252c-3.21-4.09-4.34-4.93-8.12-5.63s-6.15,3.75-3.92,6"/><path class="cls-4" d="M299.65,326.46a132.55,132.55,0,0,0-12.55-6c-1.09-.45-2.19-.88-3.29-1.3-.56-.21-2.42-1.1-2.9-1-.28.07-.31.67-.38.87l-.34.92c-.21.59-.42,1.18-.64,1.77l-1.41,3.86-.71,1.93-.37,1c-.06.15-.42.67-.26.85a6.7,6.7,0,0,0,1.53.63l1.62.64,3.37,1.34,6.75,2.68a9.3,9.3,0,0,0,2.48.72c.81.06,1.53-.24,1.38-.78s-.74-.87-1.32-1.24l-7.89-5.11,11.39,5.47a11,11,0,0,0,2.24.88c.77.18,1.59.14,1.88-.24.47-.6-.61-1.59-1.62-2.31a84.8,84.8,0,0,0-11-6.65,80.21,80.21,0,0,0,11.12,5.46c1.54.61,3.37,1.2,4.52.81s1-1.62.13-2.64A14.06,14.06,0,0,0,299.65,326.46Z"/><ellipse class="cls-15" cx="74.62" cy="463.59" rx="15.54" ry="26.45" transform="matrix(0.86, -0.52, 0.52, 0.86, -228.25, 104.77)"/><path d="M81,461l6.15-2.62a1.51,1.51,0,0,0,.54-2.05,1.54,1.54,0,0,0-2-.54l-6.16,2.62a1.53,1.53,0,0,0-.54,2.06A1.54,1.54,0,0,0,81,461Z"/><path d="M79.61,458.2l6.15-2.62A1.5,1.5,0,1,0,84.25,453l-6.16,2.62a1.51,1.51,0,0,0-.54,2.05,1.54,1.54,0,0,0,2.06.54Z"/><path d="M83.11,463.83l6.15-2.62a1.5,1.5,0,0,0,.54-2,1.53,1.53,0,0,0-2-.54l-6.16,2.62a1.51,1.51,0,0,0-.54,2.05,1.54,1.54,0,0,0,2.06.54Z"/><ellipse class="cls-15" cx="277.46" cy="470.79" rx="26.45" ry="15.54" transform="translate(-128.43 104.89) rotate(-17.45)"/><path d="M274.34,465.31l-1.1-6.6c-.32-1.9-3.21-1.1-2.89.8l1.1,6.6c.32,1.9,3.21,1.09,2.89-.8Z"/><path d="M271.28,466l-1.1-6.6c-.32-1.9-3.21-1.1-2.9.8l1.11,6.6c.32,1.9,3.21,1.09,2.89-.8Z"/><path d="M277.58,463.93l-1.11-6.6c-.32-1.9-3.21-1.1-2.89.79l1.1,6.6c.32,1.9,3.21,1.1,2.9-.79Z"/><circle cx="175.29" cy="236.89" r="1.24"/><circle cx="175.29" cy="240.8" r="1.24"/><circle cx="175.29" cy="244.7" r="1.24"/><circle cx="177.79" cy="321.88" r="1.24"/><circle cx="177.79" cy="325.79" r="1.24"/><circle cx="177.79" cy="329.69" r="1.24"/><path class="cls-16" d="M256.37,109.17l0,15.49a1.52,1.52,0,0,0,2.57,1.06,16.23,16.23,0,0,0,1.85-18.56c-.94-1.69-3.53-.18-2.59,1.51a13.1,13.1,0,0,1-1.39,14.93l2.56,1.06,0-15.49a1.5,1.5,0,0,0-3,0Z"/><path class="cls-16" d="M258.28,111.85l-.4,6c-.12,1.93,2.88,1.92,3,0l.4-6c.13-1.93-2.87-1.92-3,0Z"/><path class="cls-16" d="M260.24,107.58l-.29-.36c-.13-.18-.2-.44,0,0v.8l0-.12-.39.66.08-.07-.67.38-.19,0-.75-.2,0,0a1.54,1.54,0,0,0,2.12,0,1.51,1.51,0,0,0,0-2.12,2.47,2.47,0,0,0-1.7-.81,1.94,1.94,0,0,0-1.62.89,4.6,4.6,0,0,0-.35,2.84,1.5,1.5,0,0,0,3,0,6.31,6.31,0,0,1-.05-1c0-.15,0-.3,0-.44v-.18a.77.77,0,0,1-.37.67l-.76.21c.22,0,.17-.05-.15-.11s-.35-.14-.15,0l2.12-2.12a2,2,0,0,0-1.42-.64,1.72,1.72,0,0,0-1.55,1c-.46,1.12.35,1.93,1,2.74a1.5,1.5,0,0,0,2.12,0,1.54,1.54,0,0,0,0-2.12Z"/><path class="cls-16" d="M89.89,110.17l0,15.49,2.56-1.06a13.1,13.1,0,0,1-1.38-14.93c.94-1.68-1.65-3.2-2.59-1.51a16.21,16.21,0,0,0,1.85,18.56,1.51,1.51,0,0,0,2.56-1.06l0-15.49a1.5,1.5,0,0,0-3,0Z"/><path class="cls-16" d="M88,112.85l.4,6c.13,1.92,3.13,1.93,3,0l-.4-6c-.12-1.92-3.12-1.93-3,0Z"/><path class="cls-16" d="M91.14,110.7c.64-.81,1.45-1.62,1-2.74a1.68,1.68,0,0,0-1.35-1,2,2,0,0,0-1.63.61l2.12,2.12c.21-.16.16-.17-.15,0s-.36.1-.14.11l-.76-.21a.7.7,0,0,1-.37-.6c0-.13,0-.09,0,.11s0,.29,0,.44c0,.32,0,.65,0,1a1.51,1.51,0,0,0,1.5,1.5,1.54,1.54,0,0,0,1.5-1.5,4.67,4.67,0,0,0-.35-2.84,2,2,0,0,0-1.63-.89,2.51,2.51,0,0,0-1.7.81,1.5,1.5,0,0,0,2.12,2.12l0,0-.76.2-.19,0-.66-.38.07.07-.38-.66,0,.12v-.8c.1-.27.19-.33,0,0l-.29.36a1.55,1.55,0,0,0,0,2.12,1.52,1.52,0,0,0,2.13,0Z"/><path class="cls-4" d="M88.47,343.53a117.18,117.18,0,0,0,10-10.81c.79-1,1.56-1.94,2.32-2.93.39-.51,1.88-2.11,1.87-2.66,0-.32-.7-.6-.91-.75l-1-.74c-.62-.47-1.26-.93-1.88-1.41l-4.12-3.08-2.06-1.54-1.07-.8c-.17-.13-.67-.73-.92-.63s-.9,1.08-1.11,1.35L88.5,321l-2.39,3-4.78,6a8.21,8.21,0,0,0-1.46,2.32c-.28.82-.11,1.72.56,1.78a3,3,0,0,0,1.76-.88L90.08,327l-9.18,9.77a9.48,9.48,0,0,0-1.57,2,2.09,2.09,0,0,0-.2,2.07c.58.75,2,0,3.08-.75a77.67,77.67,0,0,0,10.43-8.84,71.76,71.76,0,0,0-9.09,9.49c-1.09,1.37-2.23,3.06-2.07,4.44s1.62,1.74,3,1.21A13,13,0,0,0,88.47,343.53Z"/><rect class="cls-17" x="76.99" y="317.35" width="21" height="44.24" rx="10.5" ry="10.5" transform="translate(413.08 469.39) rotate(126.2)"/><rect class="cls-18" x="78.35" y="326.05" width="18.48" height="26.98" transform="translate(413.3 469.42) rotate(126.2)"/><circle class="cls-19" cx="74.24" cy="329.77" r="2.42"/><circle class="cls-20" cx="74.24" cy="329.77" r="1.89"/><circle class="cls-19" cx="101.77" cy="349.83" r="0.47"/><circle cx="101.77" cy="349.83" r="0.37"/></g><g id="Sprite_2" data-name="Sprite 2"><path class="cls-1" d="M508,240c-13.15,10.72-28.72,31.2-38.51,45.83s-23.86,28.49-24.13,47.29c4.5,1.37,9.05,2.58,13.6,3.89,1.9-16.65,13.95-29.18,22.34-42.89s16.28-27.68,26-40.19c3.92-5.05,10.06-9.76,10.06-16.71-3.52,1-7.08,1.92-10.62,2.88"/><rect class="cls-2" x="399.05" y="439.91" width="15.38" height="20.87" transform="translate(559.76 -136.88) rotate(56.69)"/><rect class="cls-2" x="574.06" y="446.36" width="15.38" height="20.87" transform="translate(306.34 -229.68) rotate(30)"/><path class="cls-3" d="M485.39,365.64h41.89q.29-12.72.46-25.3h.7c.17,9.62.34,19.22.44,25.07v.23h37c.56-2.58,1.09-5.08,1.61-7.41q2.12-9.5,3.43-18.71,1.54-10.75,2.07-21.12c.06-1,.1-2.09.14-3.12a227,227,0,0,0-16-92.46l-62.9.6c-11.11,26.32-13,59.25-12,91.85C482.79,332.51,484.14,349.62,485.39,365.64Z"/><ellipse class="cls-4" cx="524.46" cy="125.39" rx="80.27" ry="105.12"/><path class="cls-5" d="M518.74,103.52c0,15.23-9.45,27.58-21.12,27.58s-21.12-12.35-21.12-27.58a33.65,33.65,0,0,1,3.73-15.66c3.81-7.2,10.18-11.92,17.39-11.92S511.2,80.66,515,87.86A33.53,33.53,0,0,1,518.74,103.52Z"/><ellipse class="cls-6" cx="554.78" cy="103.52" rx="21.12" ry="27.58"/><path class="cls-6" d="M549.26,165.32a38.38,38.38,0,0,1-.21,4.05c-.08.85-.2,1.67-.34,2.49s-.32,1.67-.52,2.48a28.51,28.51,0,0,1-3.19,7.9,21.49,21.49,0,0,1-1.41,2c-2.46,3.12-5.55,5-8.9,5H514.48c-3.34,0-6.42-1.85-8.87-5a26.23,26.23,0,0,1-4.6-9.94c-.2-.8-.37-1.63-.52-2.48s-.25-1.64-.33-2.49a36.92,36.92,0,0,1-.21-4V163.9H548.4C548.88,163.9,549.26,164.54,549.26,165.32Z"/><ellipse cx="497.62" cy="113.46" rx="13.67" ry="17.85"/><ellipse cx="554.78" cy="113.46" rx="13.67" ry="17.85"/><ellipse class="cls-5" cx="495.63" cy="108.99" rx="3.23" ry="4.22"/><ellipse class="cls-5" cx="551.79" cy="107.99" rx="3.23" ry="4.22"/><path class="cls-7" d="M463.33,33.9c-2.29,2.94-4.62,6-5.78,9.5s-1,7.75,1.44,10.59c3.23,3.78,9.37,3.79,13.69,1.33s7.22-6.76,9.85-11c-3,4-6.07,9.32-3.58,13.65,2.32,4.06,8.48,4.33,12.4,1.78s6.14-7,8.18-11.19a13.76,13.76,0,0,0-2,12.86,12.16,12.16,0,0,0,10.22,7.8c4.35.3,8.61-2,11.34-5.45a17.47,17.47,0,0,0,3.54-13.55,11.34,11.34,0,1,0,19.78-2c2.75,3.32,5.56,6.69,9.16,9.06s8.17,3.63,12.28,2.33,7.34-5.67,6.41-9.88c-1-4.61-6-7-10.35-8.77a44.16,44.16,0,0,0,24.58,4.47,15.53,15.53,0,0,0,6.65-2c5.17-3.29,5.6-11.55,1.47-16.09-3.12-3.43-7.88-4.8-12.44-5.69a101.9,101.9,0,0,0-29.32-1.46c2.91-.22,5.91-.45,8.5-1.78s4.71-4,4.42-6.94-2.69-5-5.34-5.85-5.51-.73-8.3-.57C518.47,7,486.34,9,456.56,19.76a18.86,18.86,0,0,0-6.79,3.66c-1.87,1.79-3,4.6-2.11,7s3.28,3.73,5.72,4.07a20.78,20.78,0,0,0,7.29-.76"/><path class="cls-8" d="M524.41,127.36a117.66,117.66,0,0,0-13.3,22.15,1.51,1.51,0,0,0,2.06,2.05,17,17,0,0,1,16.22-.71c1.73.82,3.25-1.76,1.51-2.59a20.15,20.15,0,0,0-19.25.71L513.7,151A117.27,117.27,0,0,1,527,128.88c1.17-1.54-1.44-3-2.59-1.52Z"/><path class="cls-4" d="M446.17,102.92c-1.27-3.63-6.41-5.3-10.29-3.93a11.18,11.18,0,0,0-7,8.82c-.62,3.77.37,7.6,1.73,11.19a58.91,58.91,0,0,0,15.05,22.17l1.5-38.66"/><path class="cls-4" d="M602.18,102.92c1.27-3.63,6.4-5.3,10.29-3.93a11.18,11.18,0,0,1,7,8.82c.61,3.77-.38,7.6-1.74,11.19a58.68,58.68,0,0,1-15.05,22.17l-1.49-38.66"/><path class="cls-9" d="M549.05,169.37c-.08.85-.2,1.67-.34,2.49s-.32,1.67-.52,2.48a28.51,28.51,0,0,1-3.19,7.9,21.49,21.49,0,0,1-1.41,2h-38a26.23,26.23,0,0,1-4.6-9.94c-.2-.8-.37-1.63-.52-2.48s-.25-1.64-.33-2.49Z"/><path class="cls-10" d="M531.71,184.28H516.6c.17-3,3.49-5.47,7.55-5.47S531.54,181.24,531.71,184.28Z"/><rect class="cls-11" x="512.18" y="326.46" width="33.93" height="13.88" rx="6.05" ry="6.05"/><path class="cls-12" d="M570,317.26c1,2.39-.76,1.78.51,4.67s-3.1.24.48,5.62-5.11.54,3.94,9.64-11.85-9.7,15.49,17.76,54.63,45.15,8.27,98.58c-4.84,9.13-18,1.09-26.2,1.48.37-4.72,1.42-9.05,2.18-13.66.08-.51.37-.86.47-1.48,4.63-27.54,16.1-50.58-16-66.57-9.22-4.61-23.56-14.92-27.56-26.52-1.26-3.62-3-7.71-3.81-11.32-.24-1.14-.48-1.8-.68-2.67s-.3-1.24-.47-2c0-.13,0-.19-.07-.29s0,.18,0-.13-.12-.52-.23-1-.26-1.17-.4-1.72c-.35-1.39-.71-2.84-1-4.26-.13-.57-.24-1-.39-1.66s-.34-1.48-.5-2.15c15.45-2.21,30.33-1.57,45.86-2C569.91,317.59,570.18,317.6,570,317.26Z"/><path class="cls-13" d="M531.71,317.68c-.14.68-.36,1.72-.48,2.33s-.2,1-.3,1.45c-.35,1.64-.67,3.23-1,4.86-.15.71-.3,1.44-.43,2.12-.07.31-.16.75-.2.95s0,.21-.06.29c-.15.84-.29,1.29-.43,2.18s-.14,1.68-.27,2.77-.2,2.09-.32,3.46c-.22,2.49,0,4.06-.34,7-1.33,12.94-3.56,23.11-10,35.51-8.58,16.52-19.46,28.85-35.4,40.83-14.54,10.92-32.89,22.73-48.83,32.56l-1.52,1-11.9,7.33c-6.48-7.35-10.94-16.8-16.32-25,16.88-14.91,38-28.76,54.66-42.91,11.06-9.42,16.5-16.56,21.83-28.88a33.26,33.26,0,0,0,1.53-4.49c4.57-15.56,1.66-30.6,3.11-46.55l.22,0c.18,0,.46.05.73.06C501.32,315.39,516.46,315.42,531.71,317.68Z"/><path d="M540.84,318a26.84,26.84,0,0,0,27.61,26.75c1.93,0,1.94-3,0-3A23.83,23.83,0,0,1,543.84,318c0-1.93-3-1.93-3,0Z"/><path d="M511.67,317.12a23.9,23.9,0,0,1-26.62,20.65c-1.92-.2-1.91,2.8,0,3a26.74,26.74,0,0,0,29.51-22.86c.28-1.89-2.61-2.7-2.89-.79Z"/><path d="M525.44,319.41c2.22-.88,3.8-.41,4.43,2.17a16.36,16.36,0,0,1-.13,3.89l-.29,9.08,1.9-1.45-5.57-1.22,1.05,1a45,45,0,0,1-.59-15.18c.24-1.91-2.76-1.89-3,0a47.66,47.66,0,0,0,.7,16,1.47,1.47,0,0,0,1,1l5.57,1.22a1.52,1.52,0,0,0,1.9-1.44l.29-9.08c.07-2.12.51-4.57-.12-6.62-1.15-3.72-5-3.53-8-2.34-1.77.7-1,3.61.8,2.9Z"/><path class="cls-14" d="M537,243c21,53,29.91,66.61,75.66,100.34,2-1.8,4-3.52,6-5.39-36.44-33.34-47-47-68-92.18-1.92-4.15-3-5.63-6.53-7.32s-6.26,1.58-5.2,4.69"/><path class="cls-4" d="M632.83,347.47a129.25,129.25,0,0,0-10.29-9.34c-.91-.75-1.84-1.48-2.77-2.2a11.24,11.24,0,0,0-2.49-1.79c-.29,0-.49.56-.61.72l-.59.79-1.13,1.5-2.47,3.29-1.24,1.65-.64.85c-.1.14-.6.52-.5.74a7.26,7.26,0,0,0,1.28,1.05l1.37,1.08,2.84,2.26,5.68,4.52a9.48,9.48,0,0,0,2.16,1.4c.76.3,1.54.22,1.55-.34s-.46-1-.9-1.57L618,344.91l9.32,8.53a11.61,11.61,0,0,0,1.88,1.49c.69.39,1.48.59,1.87.32.63-.45-.12-1.71-.87-2.69a86.44,86.44,0,0,0-8.58-9.54,81,81,0,0,0,9.06,8.45c1.3,1,2.88,2.12,4.09,2.09s1.45-1.26.89-2.49A13.83,13.83,0,0,0,632.83,347.47Z"/><ellipse class="cls-15" cx="396.2" cy="468.46" rx="15.54" ry="26.45" transform="translate(-215.08 415.93) rotate(-44.87)"/><path d="M401.5,464.65l5.35-4a1.55,1.55,0,0,0,.54-2.05,1.53,1.53,0,0,0-2.06-.54l-5.34,4a1.54,1.54,0,0,0-.54,2.05,1.49,1.49,0,0,0,2.05.54Z"/><path d="M399.47,462.25l5.35-4a1.55,1.55,0,0,0,.54-2.05,1.53,1.53,0,0,0-2.06-.54l-5.35,4a1.56,1.56,0,0,0-.54,2.06,1.51,1.51,0,0,0,2.06.53Z"/><path d="M404.21,466.88l5.35-4a1.54,1.54,0,0,0,.54-2.05,1.51,1.51,0,0,0-2.05-.54l-5.35,4a1.55,1.55,0,0,0-.54,2,1.5,1.5,0,0,0,2,.54Z"/><ellipse class="cls-15" cx="583.01" cy="476.66" rx="15.54" ry="26.45" transform="translate(-19.32 928.65) rotate(-76.15)"/><path d="M583.2,470.34l2.48-6.21c.72-1.79-2.18-2.57-2.89-.8l-2.48,6.22c-.72,1.79,2.18,2.57,2.89.79Z"/><path d="M580.22,469.35l2.48-6.21c.72-1.8-2.18-2.57-2.89-.8l-2.49,6.21c-.71,1.79,2.19,2.57,2.9.8Z"/><path d="M586.68,470.84l2.48-6.21c.72-1.79-2.18-2.57-2.89-.8L583.79,470c-.72,1.8,2.18,2.57,2.89.8Z"/><circle cx="524.96" cy="236.79" r="1.24"/><circle cx="524.96" cy="240.69" r="1.24"/><circle cx="524.96" cy="244.6" r="1.24"/><circle cx="527.46" cy="321.77" r="1.24"/><circle cx="527.46" cy="325.68" r="1.24"/><circle cx="527.46" cy="329.58" r="1.24"/><path class="cls-16" d="M606,109.06l0,15.49a1.52,1.52,0,0,0,2.56,1.07,16.21,16.21,0,0,0,1.85-18.57c-.94-1.69-3.53-.17-2.59,1.52a13.1,13.1,0,0,1-1.38,14.92l2.56,1.06,0-15.49a1.5,1.5,0,0,0-3,0Z"/><path class="cls-16" d="M608,111.74l-.4,6c-.13,1.93,2.87,1.92,3,0l.4-6c.13-1.93-2.88-1.92-3,0Z"/><path class="cls-16" d="M609.91,107.47l-.29-.36c-.14-.18-.21-.44,0,0V108l0-.12-.38.66.07-.07-.66.38-.19,0-.76-.2,0,0a1.5,1.5,0,1,0,2.12-2.12,2.49,2.49,0,0,0-1.7-.81,2,2,0,0,0-1.63.89,4.68,4.68,0,0,0-.35,2.84,1.54,1.54,0,0,0,1.5,1.5,1.5,1.5,0,0,0,1.5-1.5,7.87,7.87,0,0,1,0-1c0-.15,0-.29,0-.44l0-.18a.76.76,0,0,1-.38.67l-.75.21c.21,0,.16,0-.15-.11s-.36-.14-.15,0l2.12-2.12a2,2,0,0,0-1.43-.64,1.7,1.7,0,0,0-1.54,1c-.47,1.12.34,1.93,1,2.74a1.5,1.5,0,0,0,2.12,0,1.54,1.54,0,0,0,0-2.12Z"/><path class="cls-16" d="M439.56,110.06l0,15.49,2.56-1.06a13.1,13.1,0,0,1-1.39-14.92c.94-1.69-1.65-3.21-2.59-1.52A16.23,16.23,0,0,0,440,126.62a1.52,1.52,0,0,0,2.56-1.07l0-15.49a1.5,1.5,0,0,0-3,0Z"/><path class="cls-16" d="M437.64,112.74l.4,6c.12,1.92,3.12,1.93,3,0l-.4-6c-.13-1.92-3.13-1.93-3,0Z"/><path class="cls-16" d="M440.8,110.59c.64-.81,1.46-1.62,1-2.74a1.66,1.66,0,0,0-1.35-1,2,2,0,0,0-1.62.61l2.12,2.12c.2-.16.15-.17-.15,0s-.36.1-.15.11l-.75-.21a.73.73,0,0,1-.38-.6c0-.13,0-.09,0,.11s0,.29,0,.44a7.87,7.87,0,0,1,0,1,1.5,1.5,0,0,0,1.5,1.5,1.54,1.54,0,0,0,1.5-1.5,4.68,4.68,0,0,0-.35-2.84,2,2,0,0,0-1.63-.89,2.52,2.52,0,0,0-1.7.81,1.5,1.5,0,0,0,2.12,2.12l-.05,0-.75.2-.19,0-.66-.38.07.07-.39-.66,0,.12v-.79c.1-.27.19-.34,0,0l-.29.36a1.55,1.55,0,0,0,0,2.12,1.51,1.51,0,0,0,2.12,0Z"/><path class="cls-4" d="M449.44,351.8a117,117,0,0,0,7.05-12.95q.79-1.69,1.53-3.42c.25-.59,1.3-2.5,1.16-3-.09-.32-.83-.42-1.07-.52l-1.13-.46-2.18-.9-4.75-2-2.37-1-1.24-.51c-.19-.08-.83-.53-1.05-.38a6.31,6.31,0,0,0-.74,1.59l-.76,1.68-1.57,3.51-3.14,7a8.23,8.23,0,0,0-.84,2.6c-.06.87.32,1.69,1,1.59s1.05-.71,1.5-1.29l6.09-8-6.47,11.74a10,10,0,0,0-1,2.33,2.11,2.11,0,0,0,.32,2.07c.75.58,1.94-.49,2.8-1.49a79,79,0,0,0,7.92-11.15A71.88,71.88,0,0,0,444,350.34c-.72,1.59-1.41,3.51-.91,4.81s2,1.28,3.23.43A13.15,13.15,0,0,0,449.44,351.8Z"/><rect class="cls-17" x="434.9" y="324.7" width="21" height="44.24" rx="10.5" ry="10.5" transform="translate(878.08 -15.73) rotate(102.13)"/><rect class="cls-18" x="436.28" y="333.36" width="18.48" height="26.98" transform="translate(878.25 -15.82) rotate(102.13)"/><circle class="cls-19" cx="429.35" cy="343.38" r="2.42"/><circle class="cls-20" cx="429.35" cy="343.38" r="1.89"/><circle class="cls-19" cx="462.66" cy="350.46" r="0.47"/><circle cx="462.66" cy="350.46" r="0.37"/><rect class="cls-12" x="568.45" y="317.63" width="3.36" height="17.94"/><rect class="cls-12" x="572.82" y="325.52" width="3.05" height="22.88" transform="translate(-86.11 252.02) rotate(-23.07)"/></g><g id="Sprite_3" data-name="Sprite 3"><rect class="cls-2" x="849.57" y="446.76" width="15.38" height="20.87"/><rect class="cls-2" x="802.16" y="413.3" width="15.38" height="20.87" transform="translate(1233.59 -386.12) rotate(90)"/><path class="cls-3" d="M834.35,365.46h41.9q.29-12.72.46-25.3h.7c.17,9.62.34,19.22.44,25.07v.23h37c.55-2.59,1.09-5.08,1.61-7.41q2.12-9.49,3.43-18.71,1.54-10.75,2.07-21.12c.06-1.05.1-2.09.14-3.12a227,227,0,0,0-16-92.46l-62.9.6c-11.11,26.32-13,59.25-12,91.85C831.76,332.33,833.11,349.43,834.35,365.46Z"/><ellipse class="cls-4" cx="873.43" cy="125.2" rx="80.27" ry="105.12"/><path class="cls-5" d="M867.71,103.34c0,15.23-9.46,27.58-21.12,27.58s-21.12-12.35-21.12-27.58a33.53,33.53,0,0,1,3.73-15.66c3.81-7.21,10.18-11.93,17.39-11.93S860.17,80.47,864,87.68A33.65,33.65,0,0,1,867.71,103.34Z"/><ellipse class="cls-6" cx="903.74" cy="103.34" rx="21.12" ry="27.58"/><path class="cls-6" d="M898.23,165.13a38.57,38.57,0,0,1-.21,4.06c-.09.84-.2,1.67-.34,2.48s-.32,1.68-.52,2.49a28.51,28.51,0,0,1-3.19,7.9,21,21,0,0,1-1.42,2c-2.46,3.11-5.54,5-8.89,5H863.44c-3.33,0-6.41-1.86-8.86-5a26.15,26.15,0,0,1-4.6-9.94c-.2-.81-.37-1.64-.52-2.49s-.25-1.64-.34-2.48c-.13-1.29-.2-2.63-.2-4v-1.49h48.45C897.85,163.72,898.23,164.35,898.23,165.13Z"/><ellipse cx="846.59" cy="113.28" rx="13.67" ry="17.85"/><ellipse cx="903.74" cy="113.28" rx="13.67" ry="17.85"/><ellipse class="cls-5" cx="844.6" cy="108.8" rx="3.23" ry="4.22"/><ellipse class="cls-5" cx="900.76" cy="107.81" rx="3.23" ry="4.22"/><path class="cls-7" d="M812.29,33.72c-2.28,2.94-4.61,6-5.78,9.49S805.54,51,808,53.8c3.23,3.79,9.37,3.8,13.69,1.34s7.22-6.77,9.84-11c-3,4-6.06,9.31-3.58,13.65,2.33,4.06,8.48,4.32,12.41,1.77s6.14-7,8.18-11.18a13.72,13.72,0,0,0-2,12.85,12.17,12.17,0,0,0,10.21,7.81c4.36.3,8.62-2,11.35-5.46A17.45,17.45,0,0,0,871.56,50a11.34,11.34,0,1,0,19.77-2c2.76,3.32,5.56,6.69,9.16,9s8.18,3.64,12.29,2.34,7.33-5.67,6.41-9.88c-1-4.61-6-7-10.35-8.78a44.06,44.06,0,0,0,24.57,4.47,15.22,15.22,0,0,0,6.65-2c5.18-3.28,5.61-11.54,1.48-16.08-3.12-3.43-7.89-4.8-12.44-5.7a101.89,101.89,0,0,0-29.32-1.45c2.91-.22,5.9-.46,8.5-1.78s4.7-4,4.41-6.94-2.68-5-5.33-5.86-5.51-.73-8.3-.56C867.44,6.8,835.3,8.78,805.53,19.58a18.71,18.71,0,0,0-6.79,3.66c-1.87,1.79-3,4.59-2.11,7s3.28,3.73,5.71,4.06a20.28,20.28,0,0,0,7.29-.76"/><path class="cls-8" d="M873.37,127.18a117.75,117.75,0,0,0-13.29,22.14,1.52,1.52,0,0,0,2,2.06,17,17,0,0,1,16.22-.72c1.74.83,3.26-1.76,1.52-2.59a20.15,20.15,0,0,0-19.25.72l2,2.05A118.15,118.15,0,0,1,876,128.69c1.17-1.53-1.43-3-2.59-1.51Z"/><path class="cls-4" d="M795.14,102.74c-1.27-3.63-6.41-5.31-10.29-3.94a11.2,11.2,0,0,0-7,8.83c-.61,3.76.38,7.59,1.74,11.19a58.91,58.91,0,0,0,15,22.17l1.49-38.66"/><path class="cls-4" d="M951.14,102.74c1.27-3.63,6.41-5.31,10.29-3.94a11.18,11.18,0,0,1,7,8.83c.61,3.76-.38,7.59-1.74,11.19a58.8,58.8,0,0,1-15,22.17l-1.49-38.66"/><path class="cls-9" d="M898,169.19c-.09.84-.2,1.67-.34,2.48s-.32,1.68-.52,2.49a28.51,28.51,0,0,1-3.19,7.9,21,21,0,0,1-1.42,2h-38a26.15,26.15,0,0,1-4.6-9.94c-.2-.81-.37-1.64-.52-2.49s-.25-1.64-.34-2.48Z"/><path class="cls-10" d="M880.68,184.1H865.57c.17-3,3.49-5.47,7.55-5.47S880.51,181.06,880.68,184.1Z"/><rect class="cls-11" x="861.15" y="326.28" width="33.93" height="13.88" rx="6.05" ry="6.05"/><path class="cls-12" d="M924,316.32c-.29,1.76-.23,1.19-.58,3.36s-.22.91-.85,5-.69,2.67-1.8,10.82,1.37-11.62-1.48,10.36-36.47,80.07-48.64,109.43c-10,0-19.31-5.06-29-7,.93-4.47,1.85-8.67,2.92-13.08.12-.47.27-1,.43-1.56,7.38-25.94,16.61-46.54,27.58-71.09a51.87,51.87,0,0,0,5-22.28c0-2.52.14-6.08.36-8.79.07-.86.13-2,.18-2.81s.09-1.32.14-2.06c0-.12,0-.22,0-.35s0,.13,0-.06,0-.7.06-1c0-.63.09-1.41.14-2.05.1-1.62.19-3.2.29-4.8,0-.63.07-1,.12-1.72s.1-1.65.15-2.4c14.89.88,29.79,1.27,44.69,2.19C923.73,316.36,923.87,316.41,924,316.32Z"/><path class="cls-13" d="M873.18,312.35c.11.7.28,1.76.39,2.39s.18,1,.26,1.54c.29,1.72.57,3.37.85,5.06.12.74.25,1.49.37,2.2.05.31.12.74.15.95s0,.24.06.32c.15.88.21,1.42.38,2.33s.18,1.69.47,2.78.35,2,.79,3.37c.79,2.43.37,3.56,1.63,6.38,5.59,12.57,9.61,22,18.1,34.75,11.3,17,20.15,36.17-2.27,48-20.44,10.76-37.8,11.37-58.71,16.32a13.4,13.4,0,0,1-2.29.1c-5.94.72-11.64,1.05-17.53,1.56-1.42-10.27-2.4-20.76-3.32-31,20.08-3.07,39.94,1.43,58.66-8.71,12.45-6.74-2.87-17.49-11.14-21.76a33.19,33.19,0,0,1-5.87-4.51c-18-17.87-20.67-31.21-25.69-55.37a.59.59,0,0,1,.24-.06c.18,0,.46-.09.7-.12C844,316.72,858.66,315.05,873.18,312.35Z"/><path d="M889.8,317.81a26.85,26.85,0,0,0,27.62,26.74c1.93,0,1.94-3,0-3a23.83,23.83,0,0,1-24.62-23.74c0-1.93-3-1.94-3,0Z"/><path d="M860.64,316.93A23.88,23.88,0,0,1,834,337.58c-1.91-.19-1.9,2.81,0,3a26.74,26.74,0,0,0,29.52-22.85c.28-1.89-2.61-2.7-2.89-.8Z"/><path d="M874.41,319.22c2.22-.87,3.8-.4,4.43,2.18a16.39,16.39,0,0,1-.13,3.89l-.3,9.07,1.9-1.44-5.56-1.23,1,1.05a45,45,0,0,1-.59-15.18c.24-1.91-2.76-1.89-3,0a47.68,47.68,0,0,0,.69,16,1.5,1.5,0,0,0,1.05,1l5.57,1.22a1.52,1.52,0,0,0,1.89-1.45l.3-9.07c.07-2.12.51-4.57-.12-6.62-1.15-3.73-5-3.53-8-2.34-1.78.7-1,3.6.8,2.89Z"/><path class="cls-14" d="M851.83,263.15c4.68,15.26,11.24,22.68,13.52,40.09s3.85,35.79,13.24,51.61c4.29-1.88,8.76-3.37,13.14-5.3-7.56-13.91-8.8-31.68-12.13-46.14s-8.26-25-16.18-36.7c-3.2-4.72-5.19-10.11-10.18-13.35-.74,3.61-1.47,7.22-2.23,10.82"/><path class="cls-4" d="M885.89,367.6a115.93,115.93,0,0,0,4.52-14c.31-1.21.6-2.43.87-3.65.14-.62.81-2.7.57-3.19-.14-.29-.89-.25-1.14-.3l-1.2-.25-2.31-.48-5-1.05-2.52-.53-1.31-.27c-.2-.05-.91-.38-1.1-.19a7,7,0,0,0-.44,1.7l-.42,1.8-.9,3.74-1.78,7.49a8.51,8.51,0,0,0-.34,2.71c.1.87.63,1.61,1.26,1.38s.9-.89,1.23-1.54l4.5-9-4.17,12.73a9.39,9.39,0,0,0-.58,2.49c-.05.84.18,1.7.69,2,.85.43,1.82-.83,2.48-2a77.76,77.76,0,0,0,5.71-12.43,72.09,72.09,0,0,0-4.22,12.45c-.41,1.7-.73,3.72,0,4.9s2.2.89,3.25-.18A13,13,0,0,0,885.89,367.6Z"/><ellipse class="cls-15" cx="870.44" cy="474.84" rx="15.54" ry="26.45" transform="translate(201.09 1206.35) rotate(-76.15)"/><path d="M873.12,468.53l2.49-6.22c.71-1.79-2.19-2.57-2.9-.79l-2.48,6.21c-.72,1.79,2.18,2.57,2.89.8Z"/><path d="M870.14,467.53l2.48-6.21c.72-1.79-2.18-2.57-2.89-.8l-2.48,6.22c-.72,1.79,2.18,2.57,2.89.79Z"/><path d="M876.6,469l2.48-6.21c.72-1.79-2.18-2.57-2.89-.8l-2.48,6.22c-.72,1.79,2.18,2.57,2.89.79Z"/><ellipse class="cls-15" cx="792.57" cy="435.26" rx="26.45" ry="15.54" transform="translate(251.72 1159.89) rotate(-82.04)"/><path d="M798.72,434.77l6.44,1.83a1.5,1.5,0,0,0,.8-2.89l-6.44-1.83a1.5,1.5,0,0,0-.8,2.89Z"/><path d="M799.41,431.7l6.43,1.83a1.5,1.5,0,0,0,.8-2.89l-6.44-1.83a1.5,1.5,0,0,0-.79,2.89Z"/><path d="M798.59,438.28l6.43,1.83a1.5,1.5,0,0,0,.8-2.89l-6.44-1.83a1.5,1.5,0,0,0-.79,2.89Z"/><circle cx="873.92" cy="236.6" r="1.24"/><circle cx="873.92" cy="240.51" r="1.24"/><circle cx="873.92" cy="244.41" r="1.24"/><circle cx="876.43" cy="321.59" r="1.24"/><circle cx="876.43" cy="325.49" r="1.24"/><circle cx="876.43" cy="329.4" r="1.24"/><path class="cls-16" d="M955,108.88l0,15.49a1.51,1.51,0,0,0,2.56,1.06,16.21,16.21,0,0,0,1.85-18.56c-.94-1.69-3.53-.18-2.59,1.51a13.12,13.12,0,0,1-1.38,14.93l2.56,1.06,0-15.49a1.5,1.5,0,0,0-3,0Z"/><path class="cls-16" d="M956.91,111.55l-.39,6c-.13,1.93,2.87,1.92,3,0l.39-6c.13-1.92-2.87-1.92-3,0Z"/><path class="cls-16" d="M958.87,107.29l-.28-.37c-.14-.17-.21-.44,0,0v.8l0-.13-.39.67.08-.08-.66.39-.19,0-.76-.2,0,0a1.54,1.54,0,0,0,2.12,0,1.52,1.52,0,0,0,0-2.12,2.45,2.45,0,0,0-1.7-.81,1.94,1.94,0,0,0-1.63.89,4.67,4.67,0,0,0-.35,2.84,1.5,1.5,0,1,0,3,0c0-.33,0-.65,0-1,0-.15,0-.3,0-.45l0-.17a.78.78,0,0,1-.38.67l-.76.2c.22,0,.17,0-.15-.1s-.35-.14-.14,0l2.12-2.12a2,2,0,0,0-1.43-.64,1.71,1.71,0,0,0-1.55,1c-.46,1.12.35,1.92,1,2.74a1.51,1.51,0,0,0,2.12,0,1.53,1.53,0,0,0,0-2.12Z"/><path class="cls-16" d="M788.52,109.88l0,15.49,2.57-1.06a13.1,13.1,0,0,1-1.39-14.93c.94-1.69-1.65-3.2-2.59-1.51A16.23,16.23,0,0,0,789,126.43a1.51,1.51,0,0,0,2.56-1.06l0-15.49a1.5,1.5,0,0,0-3,0Z"/><path class="cls-16" d="M786.61,112.55l.39,6c.13,1.92,3.13,1.93,3,0l-.39-6c-.13-1.91-3.13-1.93-3,0Z"/><path class="cls-16" d="M789.77,110.41c.64-.82,1.45-1.62,1-2.74a1.66,1.66,0,0,0-1.35-1,2,2,0,0,0-1.62.62l2.12,2.12c.2-.16.15-.17-.15,0s-.37.1-.15.1l-.76-.2a.72.72,0,0,1-.37-.6c0-.13,0-.09,0,.1s0,.3,0,.45a8,8,0,0,1,0,1,1.51,1.51,0,0,0,1.5,1.5,1.54,1.54,0,0,0,1.5-1.5,4.67,4.67,0,0,0-.35-2.84,1.92,1.92,0,0,0-1.62-.89,2.47,2.47,0,0,0-1.7.81,1.51,1.51,0,0,0,0,2.12,1.54,1.54,0,0,0,2.12,0l0,0-.76.2-.18,0-.67-.39.08.08-.39-.67,0,.13V108c.1-.27.2-.33,0,0l-.28.37a1.55,1.55,0,0,0,0,2.12,1.51,1.51,0,0,0,2.12,0Z"/></g><g id="Sprite_4" data-name="Sprite 4"><path class="cls-1" d="M1257.24,247c12.84,26.28,30.5,70.14,51.67,87.92,2.32-1.43,4.62-2.89,7-4.3-18.22-19-31.79-56.79-45.3-82.58-1.24-2.37-3.54-6.18-6.7-6.59s-6.65,2.61-4.65,5.66"/><rect class="cls-2" x="1128.85" y="433.71" width="15.38" height="20.87" transform="translate(646.95 -673.56) rotate(45)"/><rect class="cls-2" x="1230.14" y="415.98" width="15.38" height="20.87" transform="translate(664.08 -750.38) rotate(45)"/><path class="cls-3" d="M1184,365.47h41.9q.28-12.72.46-25.3h.7c.17,9.62.34,19.22.44,25.07v.23h37c.56-2.59,1.1-5.08,1.62-7.41q2.12-9.49,3.43-18.71,1.55-10.75,2.07-21.12c.06-1.05.1-2.09.14-3.12a227,227,0,0,0-16-92.46l-62.9.6c-11.11,26.32-13,59.25-12,91.85C1181.4,332.33,1182.76,349.44,1184,365.47Z"/><ellipse class="cls-4" cx="1223.07" cy="125.21" rx="80.27" ry="105.12"/><path class="cls-5" d="M1217.36,103.34c0,15.24-9.46,27.59-21.13,27.59s-21.12-12.35-21.12-27.59a33.61,33.61,0,0,1,3.73-15.65c3.81-7.21,10.18-11.93,17.39-11.93s13.59,4.72,17.39,11.93A33.5,33.5,0,0,1,1217.36,103.34Z"/><ellipse class="cls-6" cx="1253.39" cy="103.34" rx="21.12" ry="27.58"/><path class="cls-6" d="M1247.88,165.14a38.57,38.57,0,0,1-.21,4.06c-.09.84-.2,1.67-.34,2.48s-.32,1.68-.52,2.49a28.52,28.52,0,0,1-3.2,7.9,20.93,20.93,0,0,1-1.41,2c-2.46,3.11-5.55,5-8.89,5h-20.22c-3.34,0-6.42-1.86-8.87-5a26.29,26.29,0,0,1-4.59-9.94c-.2-.81-.38-1.64-.52-2.49s-.26-1.64-.34-2.48c-.13-1.3-.2-2.63-.2-4v-1.49H1247C1247.49,163.73,1247.88,164.36,1247.88,165.14Z"/><ellipse cx="1196.23" cy="113.28" rx="13.67" ry="17.85"/><ellipse cx="1253.39" cy="113.28" rx="13.67" ry="17.85"/><ellipse class="cls-5" cx="1194.25" cy="108.81" rx="3.23" ry="4.22"/><ellipse class="cls-5" cx="1250.41" cy="107.82" rx="3.23" ry="4.22"/><path class="cls-7" d="M1161.94,33.73c-2.28,2.94-4.61,6-5.78,9.49s-1,7.76,1.45,10.59c3.23,3.79,9.36,3.8,13.68,1.34s7.22-6.77,9.85-11c-3,4-6.06,9.31-3.58,13.65,2.32,4.06,8.48,4.32,12.4,1.77s6.14-7,8.18-11.18a13.74,13.74,0,0,0-2,12.85,12.16,12.16,0,0,0,10.21,7.81c4.35.3,8.62-2,11.34-5.46a17.38,17.38,0,0,0,3.54-13.55,11.34,11.34,0,1,0,19.78-2c2.75,3.32,5.56,6.68,9.16,9s8.18,3.64,12.29,2.34,7.33-5.67,6.4-9.88c-1-4.61-6-7-10.34-8.78a44.06,44.06,0,0,0,24.57,4.47,15.35,15.35,0,0,0,6.65-2c5.18-3.28,5.6-11.55,1.48-16.08-3.13-3.44-7.89-4.8-12.45-5.7a101.85,101.85,0,0,0-29.31-1.46c2.9-.21,5.9-.45,8.49-1.78s4.71-4,4.42-6.93-2.69-5-5.33-5.86-5.52-.73-8.31-.56c-31.62,1.88-63.75,3.86-93.53,14.66a18.75,18.75,0,0,0-6.78,3.66c-1.87,1.79-3,4.59-2.12,7s3.29,3.73,5.72,4.06a20.32,20.32,0,0,0,7.29-.76"/><path class="cls-8" d="M1223,127.19a116.7,116.7,0,0,0-13.29,22.14,1.52,1.52,0,0,0,2,2.06,17,17,0,0,1,16.22-.72c1.73.83,3.26-1.76,1.51-2.59a20.18,20.18,0,0,0-19.25.71l2.06,2.06a117.62,117.62,0,0,1,13.29-22.15c1.17-1.53-1.44-3-2.59-1.51Z"/><path class="cls-4" d="M1144.78,102.74c-1.27-3.62-6.4-5.3-10.29-3.93a11.18,11.18,0,0,0-7,8.83c-.61,3.76.37,7.59,1.74,11.19a58.68,58.68,0,0,0,15,22.17l1.49-38.66"/><path class="cls-4" d="M1300.79,102.74c1.27-3.62,6.41-5.3,10.29-3.93a11.18,11.18,0,0,1,7,8.83c.61,3.76-.37,7.59-1.73,11.19a58.91,58.91,0,0,1-15,22.17l-1.5-38.66"/><path class="cls-9" d="M1247.67,169.2c-.09.84-.2,1.67-.34,2.48s-.32,1.68-.52,2.49a28.52,28.52,0,0,1-3.2,7.9,20.93,20.93,0,0,1-1.41,2h-38a26.29,26.29,0,0,1-4.59-9.94c-.2-.81-.38-1.64-.52-2.49s-.26-1.64-.34-2.48Z"/><path class="cls-10" d="M1230.32,184.11h-15.11c.17-3,3.49-5.47,7.56-5.47S1230.15,181.07,1230.32,184.11Z"/><rect class="cls-11" x="1210.8" y="326.29" width="33.93" height="13.88" rx="6.05" ry="6.05"/><path class="cls-12" d="M1275.11,316.48c-.46,1.67-.43,1.27-1,3.31s-.48,1.1-1.45,4.86a81.7,81.7,0,0,0-2.61,11.35c-1.22,7.17,1.22-6.52-1.76,11.06s-93.49,94.83-119.8,110.23c-6.82-5.54-12.88-15-19.39-22,3.41-3.59,6.78-6.91,10.32-10.37.38-.38.77-.75,1.31-1.27,24-22.9,47.68-45.23,72.35-66.91,7.09-6.23,12.5-11.46,14.36-20.11.58-2.7-.21-4.42,0-7,0-.81-.1-1.61,0-2.36a16.24,16.24,0,0,1,.24-1.92c0-.12,0-.23.07-.35s0,.13,0-.06.14-.69.2-1c.13-.64.28-1.4.41-2,.33-1.61.64-3.18,1-4.77.13-.63.22-1,.37-1.73s.36-1.67.52-2.41c14.87,2.4,29.62,2.4,44.6,3.45C1274.87,316.5,1275,316.55,1275.11,316.48Z"/><path class="cls-13" d="M1223,312.85c.14.66.32,1.67.43,2.25l.26,1.36c.29,1.61.6,3.18.92,4.76.14.69.28,1.38.42,2,.06.29.14.7.18.88s0,.21.06.28c.19.77.22,1.24.43,2s.3,1.51.61,2.45a18.82,18.82,0,0,0,.78,2.92c1,2,.19,2.37,1.58,4.81,6.19,10.89,13.66,11.65,28.06,16.34,19.17,6.25,41.75,19.17,37.35,43.49-4,22.16-20.14,22.57-35,32.78a10.85,10.85,0,0,1-1.67.77,98.86,98.86,0,0,0-10.62,6.6c-5.7-8.1-11.47-16.31-16.71-24.58,9.14-9.59,29.76-10.44,33.52-20.39,2.5-6.61-25.17-9.42-30.38-11.14-.78-.26-6.86-1.86-9.28-3.1-25.59-13.13-37.53-28.91-46.81-55.7l.2-.09c.16-.06.41-.19.66-.28C1192.58,315.53,1207.82,316.36,1223,312.85Z"/><path d="M1239.45,317.81a26.84,26.84,0,0,0,27.62,26.75c1.93,0,1.93-3,0-3a23.83,23.83,0,0,1-24.62-23.75c0-1.92-3-1.93-3,0Z"/><path d="M1210.28,316.94a23.88,23.88,0,0,1-26.62,20.65c-1.92-.19-1.9,2.81,0,3a26.75,26.75,0,0,0,29.52-22.85c.28-1.89-2.61-2.71-2.9-.8Z"/><path d="M1224.05,319.23c2.22-.87,3.81-.4,4.43,2.18a16.38,16.38,0,0,1-.12,3.89l-.3,9.07,1.9-1.45-5.56-1.22,1,1.05a45.54,45.54,0,0,1-.59-15.18c.24-1.91-2.76-1.9-3,0a47.68,47.68,0,0,0,.7,16,1.49,1.49,0,0,0,1,1.05l5.56,1.22a1.53,1.53,0,0,0,1.9-1.45l.3-9.07c.07-2.12.51-4.57-.12-6.62-1.15-3.73-5-3.53-8-2.34-1.78.7-1,3.6.79,2.89Z"/><path class="cls-14" d="M1185.32,250.35c-16.75,8.51-41,24.54-41.65,45.2s10.71,32.89,24.95,44.71c3.46-3.55,6.69-6.9,9.86-10.29-9.49-8.77-19.18-19.31-20.86-32.89s14-25.94,24.17-33.53c4.1-3.07,12.26-7.67,13-14.05-3.34.09-6.94.31-10.38.45"/><path class="cls-4" d="M1322.17,344.31a130.62,130.62,0,0,0-5.55-12.74c-.53-1.05-1.07-2.1-1.62-3.14-.29-.53-1.11-2.42-1.54-2.65-.25-.14-.67.31-.85.41l-.86.47-1.65.91-3.61,2-1.8,1-.93.52c-.15.08-.77.23-.77.47a7.3,7.3,0,0,0,.74,1.48l.8,1.55,1.67,3.22,3.33,6.46a9.59,9.59,0,0,0,1.39,2.17c.57.58,1.32.83,1.56.32a3,3,0,0,0-.18-1.8l-2.59-9,5,11.61a11,11,0,0,0,1.11,2.13c.47.64,1.11,1.15,1.57,1.06.75-.15.59-1.61.31-2.81a86,86,0,0,0-3.91-12.22,79.51,79.51,0,0,0,4.8,11.42c.76,1.47,1.75,3.12,2.87,3.59s1.83-.56,1.83-1.91A14.23,14.23,0,0,0,1322.17,344.31Z"/><path class="cls-4" d="M1192.07,343.85a115.75,115.75,0,0,0-10-10.87c-.9-.87-1.82-1.72-2.74-2.56-.48-.43-2-2-2.5-2.08-.32,0-.66.65-.83.85l-.81.92c-.52.58-1,1.18-1.56,1.76l-3.4,3.85-1.7,1.93-.89,1c-.14.15-.77.61-.7.86s1,1,1.26,1.22l1.35,1.26,2.81,2.63,5.62,5.25a8.15,8.15,0,0,0,2.2,1.64c.8.34,1.7.25,1.82-.41a3,3,0,0,0-.74-1.83l-5.57-8.36,9,9.93a9.56,9.56,0,0,0,1.87,1.73,2.1,2.1,0,0,0,2.05.37c.8-.52.18-2-.49-3.13a79,79,0,0,0-8-11.12,71.52,71.52,0,0,0,8.73,9.83c1.28,1.2,2.87,2.47,4.26,2.43s1.86-1.48,1.45-2.92A13,13,0,0,0,1192.07,343.85Z"/><ellipse class="cls-15" cx="1126.01" cy="465.91" rx="15.54" ry="26.45" transform="translate(-59.27 748.9) rotate(-35.91)"/><path d="M1132,462.87l5.91-3.13c1.71-.91.2-3.5-1.51-2.59l-5.91,3.13c-1.71.91-.19,3.5,1.51,2.59Z"/><path d="M1130.41,460.19l5.91-3.14c1.71-.9.19-3.49-1.51-2.59l-5.91,3.14c-1.71.9-.2,3.49,1.51,2.59Z"/><path d="M1134.38,465.5l5.91-3.14c1.7-.9.19-3.49-1.52-2.59l-5.91,3.14c-1.7.91-.19,3.5,1.52,2.59Z"/><ellipse class="cls-15" cx="1230" cy="445.45" rx="15.54" ry="26.45" transform="translate(41.14 991.29) rotate(-44.57)"/><path d="M1233.2,440.37l5.37-4a1.55,1.55,0,0,0,.54-2.05,1.51,1.51,0,0,0-2-.54l-5.37,4a1.54,1.54,0,0,0-.54,2.05,1.51,1.51,0,0,0,2,.54Z"/><path d="M1231.18,438l5.37-4a1.54,1.54,0,0,0,.54-2.05,1.51,1.51,0,0,0-2-.54l-5.37,4a1.54,1.54,0,0,0-.54,2.05,1.51,1.51,0,0,0,2,.54Z"/><path d="M1235.9,442.61l5.38-4a1.54,1.54,0,0,0,.53-2.05,1.51,1.51,0,0,0-2-.54l-5.37,4a1.57,1.57,0,0,0-.54,2.06,1.5,1.5,0,0,0,2.05.53Z"/><circle cx="1223.57" cy="236.61" r="1.24"/><circle cx="1223.57" cy="240.52" r="1.24"/><circle cx="1223.57" cy="244.42" r="1.24"/><circle cx="1226.07" cy="321.6" r="1.24"/><circle cx="1226.07" cy="325.5" r="1.24"/><circle cx="1226.07" cy="329.41" r="1.24"/><path class="cls-16" d="M1304.65,108.88l0,15.5a1.52,1.52,0,0,0,2.56,1.06,16.22,16.22,0,0,0,1.86-18.56c-.94-1.69-3.53-.18-2.59,1.51a13.1,13.1,0,0,1-1.39,14.93l2.56,1.06,0-15.5a1.5,1.5,0,0,0-3,0Z"/><path class="cls-16" d="M1306.56,111.56l-.4,6c-.12,1.93,2.88,1.92,3,0l.4-6c.13-1.92-2.87-1.92-3,0Z"/><path class="cls-16" d="M1308.52,107.3l-.29-.37c-.13-.17-.2-.44,0,0v.8l0-.13-.39.66.08-.07-.67.39-.19,0-.75-.21,0,0a1.54,1.54,0,0,0,2.12,0,1.52,1.52,0,0,0,0-2.13,2.46,2.46,0,0,0-1.7-.8,1.94,1.94,0,0,0-1.62.89,4.53,4.53,0,0,0-.35,2.84,1.5,1.5,0,1,0,3,0,6.37,6.37,0,0,1,0-1c0-.15,0-.3,0-.45v-.17a.77.77,0,0,1-.37.67l-.76.2c.22,0,.17,0-.15-.11s-.35-.14-.15,0l2.12-2.13a2.05,2.05,0,0,0-1.42-.63,1.68,1.68,0,0,0-1.55,1c-.46,1.12.35,1.92,1,2.74a1.51,1.51,0,0,0,2.12,0,1.54,1.54,0,0,0,0-2.12Z"/><path class="cls-16" d="M1138.17,109.88l0,15.5,2.56-1.06a13.1,13.1,0,0,1-1.38-14.93c.94-1.69-1.65-3.2-2.59-1.51a16.2,16.2,0,0,0,1.85,18.56,1.51,1.51,0,0,0,2.56-1.06l0-15.5a1.5,1.5,0,0,0-3,0Z"/><path class="cls-16" d="M1136.25,112.56l.4,6c.13,1.92,3.13,1.93,3,0l-.4-6c-.12-1.91-3.12-1.93-3,0Z"/><path class="cls-16" d="M1139.42,110.42c.64-.82,1.45-1.62,1-2.74a1.68,1.68,0,0,0-1.35-1,2,2,0,0,0-1.63.61l2.12,2.13c.21-.17.16-.17-.15,0s-.36.11-.14.11l-.76-.2a.7.7,0,0,1-.37-.6c0-.13,0-.1,0,.1s0,.3,0,.45c0,.32,0,.64-.05,1a1.51,1.51,0,0,0,1.5,1.5,1.55,1.55,0,0,0,1.5-1.5,4.67,4.67,0,0,0-.35-2.84,2,2,0,0,0-1.63-.89,2.53,2.53,0,0,0-1.7.8,1.5,1.5,0,0,0,2.12,2.13l0,0-.76.21-.19,0-.66-.39.07.07-.38-.66,0,.13V108c.1-.27.19-.33,0,0l-.29.37a1.55,1.55,0,0,0,0,2.12,1.52,1.52,0,0,0,2.13,0Z"/><rect class="cls-17" x="1307.21" y="321.86" width="21" height="44.24" rx="10.5" ry="10.5" transform="translate(937.7 -963.8) rotate(59.17)"/><rect class="cls-18" x="1308.58" y="330.43" width="18.48" height="26.98" transform="translate(937.7 -963.92) rotate(59.17)"/><circle class="cls-19" cx="1303.62" cy="352.39" r="2.42"/><circle class="cls-20" cx="1303.62" cy="352.39" r="1.89"/><circle class="cls-19" cx="1332.83" cy="334.87" r="0.47"/><circle cx="1332.83" cy="334.87" r="0.37"/></g><g id="Sprite_5" data-name="Sprite 5"><path class="cls-1" d="M1588.25,251.31c43.32,28.63,33.16,53,94.64,55.6.87-2.58,1.81-5.12,2.65-7.72-58.39-10-42.89-27.36-85.08-53.52-3.87-2.4-5.69-3.27-9.26-2.43s-4.07,5.81-1.22,7.15"/><rect class="cls-2" x="1476.43" y="435.7" width="15.38" height="20.87" transform="translate(678.39 -877.67) rotate(41.94)"/><rect class="cls-2" x="1638.3" y="439.77" width="15.38" height="20.87" transform="translate(48.75 1050.87) rotate(-35.91)"/><path class="cls-3" d="M1532.4,364.69h41.9q.29-12.72.46-25.3h.7c.17,9.62.34,19.22.44,25.07v.23h37c.55-2.59,1.09-5.08,1.61-7.41q2.12-9.5,3.43-18.71,1.55-10.76,2.07-21.12c.06-1.05.1-2.09.14-3.12a227,227,0,0,0-16-92.46l-62.9.6c-11.11,26.32-13,59.25-12,91.85C1529.81,331.55,1531.16,348.66,1532.4,364.69Z"/><ellipse class="cls-4" cx="1571.48" cy="124.43" rx="80.27" ry="105.12"/><path class="cls-5" d="M1565.76,102.56c0,15.24-9.46,27.59-21.12,27.59s-21.13-12.35-21.13-27.59a33.5,33.5,0,0,1,3.74-15.65c3.8-7.21,10.18-11.93,17.39-11.93s13.58,4.72,17.39,11.93A33.61,33.61,0,0,1,1565.76,102.56Z"/><ellipse class="cls-6" cx="1601.79" cy="102.56" rx="21.12" ry="27.58"/><path class="cls-6" d="M1596.28,164.36a38.57,38.57,0,0,1-.21,4.06c-.09.84-.2,1.67-.34,2.48s-.32,1.68-.52,2.49a28.52,28.52,0,0,1-3.2,7.9,19.32,19.32,0,0,1-1.41,2c-2.46,3.11-5.54,5-8.89,5h-20.22c-3.34,0-6.41-1.86-8.87-5a26.29,26.29,0,0,1-4.59-9.94c-.2-.81-.37-1.64-.52-2.49s-.25-1.64-.34-2.48c-.13-1.3-.2-2.63-.2-4V163h48.45C1595.89,163,1596.28,163.58,1596.28,164.36Z"/><ellipse cx="1544.64" cy="112.5" rx="13.67" ry="17.85"/><ellipse cx="1601.79" cy="112.5" rx="13.67" ry="17.85"/><ellipse class="cls-5" cx="1542.65" cy="108.03" rx="3.23" ry="4.22"/><ellipse class="cls-5" cx="1598.81" cy="107.04" rx="3.23" ry="4.22"/><path class="cls-7" d="M1510.34,32.94c-2.28,3-4.61,6-5.78,9.5s-1,7.76,1.45,10.59c3.23,3.78,9.36,3.8,13.68,1.34s7.23-6.77,9.85-11c-3,4-6.06,9.31-3.58,13.64,2.33,4.06,8.48,4.33,12.4,1.78s6.14-7,8.18-11.18a13.74,13.74,0,0,0-2,12.85,12.16,12.16,0,0,0,10.21,7.8c4.35.3,8.62-2,11.34-5.45a17.39,17.39,0,0,0,3.54-13.55,11.34,11.34,0,1,0,19.78-2c2.75,3.32,5.56,6.68,9.16,9.05s8.18,3.64,12.29,2.34,7.33-5.67,6.41-9.88c-1-4.61-6-7-10.35-8.78a44.06,44.06,0,0,0,24.57,4.47,15.35,15.35,0,0,0,6.65-2c5.18-3.29,5.61-11.55,1.48-16.08-3.13-3.44-7.89-4.8-12.44-5.7a101.93,101.93,0,0,0-29.32-1.46c2.91-.21,5.9-.45,8.49-1.78s4.71-4,4.42-6.93-2.68-5-5.33-5.86-5.52-.73-8.3-.56C1565.49,6,1533.35,8,1503.57,18.81a18.6,18.6,0,0,0-6.78,3.66c-1.87,1.79-3,4.59-2.11,7s3.28,3.72,5.71,4.06a20.28,20.28,0,0,0,7.29-.76"/><path class="cls-8" d="M1571.42,126.41a117.75,117.75,0,0,0-13.29,22.14,1.51,1.51,0,0,0,2,2,17,17,0,0,1,16.22-.71c1.74.83,3.26-1.76,1.52-2.59a20.15,20.15,0,0,0-19.25.71l2,2.06A118.15,118.15,0,0,1,1574,127.92c1.17-1.53-1.43-3-2.59-1.51Z"/><path class="cls-4" d="M1493.18,102c-1.27-3.62-6.4-5.3-10.28-3.93a11.17,11.17,0,0,0-7,8.83c-.61,3.76.38,7.59,1.74,11.19a58.88,58.88,0,0,0,15,22.17l1.49-38.66"/><path class="cls-4" d="M1649.19,102c1.27-3.62,6.41-5.3,10.29-3.93a11.19,11.19,0,0,1,7,8.83c.61,3.76-.38,7.59-1.74,11.19a59,59,0,0,1-15,22.17l-1.49-38.66"/><path class="cls-9" d="M1596.07,168.42c-.09.84-.2,1.67-.34,2.48s-.32,1.68-.52,2.49a28.52,28.52,0,0,1-3.2,7.9,19.32,19.32,0,0,1-1.41,2h-38a26.29,26.29,0,0,1-4.59-9.94c-.2-.81-.37-1.64-.52-2.49s-.25-1.64-.34-2.48Z"/><path class="cls-10" d="M1578.72,183.33h-15.1c.17-3.05,3.48-5.47,7.55-5.47S1578.55,180.28,1578.72,183.33Z"/><rect class="cls-11" x="1559.2" y="325.51" width="33.93" height="13.88" rx="6.05" ry="6.05"/><path class="cls-12" d="M1623,316.52c-.67,2-.28,1.15-1.14,3.64s0,.58-1.75,5.45.09,3.07-3.47,13,8.49-20.28-6,18.66-70,82.09-118.38,98.26c-7.55-4.69-10-17.2-15.3-25.17,4-2.39,7.73-4.54,11.74-6.82.44-.25.82-.44,1.44-.76,27-14.08,56-29,73-56,4.89-7.75,9.75-19.34,13-28.33a15,15,0,0,0,.54-7.89c-.13-.86-.41-1.56-.58-2.29a12.43,12.43,0,0,1-.42-1.87c0-.12,0-.25,0-.37V326c0-.26,0-.69,0-1,0-.65,0-1.44,0-2.07,0-1.59,0-3.12-.05-4.69,0-.63,0-1,0-1.73s0-1.59.06-2.32c16,.86,31.19-1,47,2.4C1622.79,316.58,1622.91,316.69,1623,316.52Z"/><path class="cls-13" d="M1570.19,310.79c.19.7.48,1.77.65,2.38s.27,1,.41,1.49c.45,1.66.83,3.27,1.23,4.91.17.72.34,1.44.48,2.13.07.3.16.74.2.94s0,.22.06.29c.17.78.24,1.29.35,2.1s.15,1.47.28,2.41.17,1.88.36,3c.35,2,0,2.85.7,5.2,3,10.48,9.82,17.71,17.53,26.34,10.27,11.5,22.66,24.82,32.3,37.37,8.79,11.44,17.49,22.12,26.41,33.18.41.51.7.93,1,1.33,2.52,3.29,4.85,6.54,7.15,9.92-7.53,6.43-15.27,12.62-22.75,19.09-14.55-14.14-26.6-25.67-41.34-41-9.8-10.16-23.48-23.51-34.15-34.66-1.61-1.68-4.19-4.39-6-6.51-18.82-22.43-21.37-36.78-30.18-63.14l.22-.06.74-.19C1540.51,314,1555.52,314.06,1570.19,310.79Z"/><path d="M1587.85,317a26.85,26.85,0,0,0,27.62,26.75c1.93,0,1.93-3,0-3A23.83,23.83,0,0,1,1590.85,317c0-1.92-3-1.93-3,0Z"/><path d="M1558.69,316.16a23.89,23.89,0,0,1-26.63,20.65c-1.92-.19-1.9,2.81,0,3A26.74,26.74,0,0,0,1561.58,317c.28-1.89-2.61-2.71-2.89-.8Z"/><path d="M1572.46,318.45c2.22-.87,3.8-.4,4.43,2.18a16.39,16.39,0,0,1-.13,3.89l-.3,9.07,1.9-1.45-5.56-1.22,1,1.05a45,45,0,0,1-.59-15.18c.24-1.91-2.77-1.9-3,0a47.68,47.68,0,0,0,.69,16,1.46,1.46,0,0,0,1,1l5.56,1.23a1.53,1.53,0,0,0,1.9-1.45l.3-9.07c.07-2.12.51-4.57-.12-6.62-1.15-3.73-5-3.53-8-2.34-1.78.7-1,3.6.8,2.89Z"/><path class="cls-14" d="M1534,250.16c-14.76,10.65-31.61,26.12-44.25,39.61s-18.81,27.48-17.16,45.84c4.76.36,9.46.68,14.12,1-.23-14.55,4.28-25.54,13.51-37A388.52,388.52,0,0,1,1530,265.92c4.36-4.3,12.66-10.05,13.32-17-3.46.28-7,.7-10.51,1.11"/><path class="cls-4" d="M1487.09,352.34a117.28,117.28,0,0,0-.31-14.74c-.1-1.24-.23-2.48-.37-3.73-.07-.63-.11-2.81-.5-3.2-.23-.23-.93.05-1.18.08l-1.22.16-2.33.3-5.1.65-2.56.32-1.32.17c-.21,0-1-.05-1.1.19a6.73,6.73,0,0,0,.14,1.75l.18,1.84.38,3.83.76,7.65a8.11,8.11,0,0,0,.57,2.68c.37.79,1.11,1.31,1.64.89a3,3,0,0,0,.65-1.86l1.33-10,.21,13.41a9.76,9.76,0,0,0,.26,2.53c.23.81.73,1.55,1.3,1.63.94.13,1.45-1.38,1.7-2.68a78.8,78.8,0,0,0,1.34-13.62,71.36,71.36,0,0,0,.07,13.15c.17,1.75.53,3.75,1.6,4.63s2.37.12,3-1.23A12.81,12.81,0,0,0,1487.09,352.34Z"/><ellipse class="cls-15" cx="1474.48" cy="467.85" rx="15.54" ry="26.45" transform="translate(140.97 1251.9) rotate(-48.06)"/><path d="M1479.79,463.57l5.12-4.31c1.48-1.25-.66-3.36-2.12-2.12l-5.12,4.31c-1.48,1.24.65,3.36,2.12,2.12Z"/><path d="M1477.63,461.29l5.12-4.31c1.47-1.25-.66-3.36-2.13-2.12l-5.11,4.31c-1.48,1.24.65,3.35,2.12,2.12Z"/><path d="M1482.63,465.65l5.11-4.32c1.48-1.24-.65-3.35-2.12-2.12l-5.12,4.31c-1.47,1.25.66,3.36,2.13,2.13Z"/><ellipse class="cls-15" cx="1666.65" cy="467.5" rx="26.45" ry="15.54" transform="translate(-55.21 290.05) rotate(-9.78)"/><path d="M1664.31,461.85l-.22-6.69c-.06-1.92-3.06-1.93-3,0l.22,6.69c.06,1.93,3.06,1.94,3,0Z"/><path d="M1661.18,462.14l-.22-6.69c-.06-1.93-3.06-1.94-3,0l.22,6.69c.06,1.92,3.06,1.93,3,0Z"/><path d="M1667.69,460.91l-.21-6.68c-.06-1.93-3.06-1.94-3,0l.21,6.68c.07,1.93,3.07,1.94,3,0Z"/><circle cx="1571.97" cy="235.83" r="1.24"/><circle cx="1571.97" cy="239.74" r="1.24"/><circle cx="1571.97" cy="243.64" r="1.24"/><circle cx="1574.48" cy="320.82" r="1.24"/><circle cx="1574.48" cy="324.72" r="1.24"/><circle cx="1574.48" cy="328.63" r="1.24"/><path class="cls-16" d="M1653.05,108.1l0,15.5a1.51,1.51,0,0,0,2.56,1.06,16.23,16.23,0,0,0,1.85-18.56c-.94-1.69-3.53-.18-2.59,1.51a13.12,13.12,0,0,1-1.38,14.93l2.56,1.06,0-15.5a1.5,1.5,0,0,0-3,0Z"/><path class="cls-16" d="M1655,110.78l-.39,6c-.13,1.93,2.87,1.92,3,0l.39-6c.13-1.93-2.87-1.92-3,0Z"/><path class="cls-16" d="M1656.92,106.52l-.28-.37c-.14-.17-.21-.44,0,0v.8l0-.13-.39.66.08-.07-.66.39-.19,0-.76-.21,0-.05a1.5,1.5,0,0,0,2.12-2.12,2.44,2.44,0,0,0-1.7-.8,1.94,1.94,0,0,0-1.62.89,4.57,4.57,0,0,0-.35,2.83,1.5,1.5,0,1,0,3,0,7.78,7.78,0,0,1,0-1c0-.14,0-.29,0-.44l0-.17a.78.78,0,0,1-.38.67l-.76.2c.22,0,.17,0-.15-.11s-.35-.14-.15,0l2.12-2.12a2.11,2.11,0,0,0-1.42-.64,1.73,1.73,0,0,0-1.55,1c-.46,1.13.35,1.93,1,2.75a1.5,1.5,0,1,0,2.12-2.12Z"/><path class="cls-16" d="M1486.57,109.1l0,15.5,2.56-1.06a13.11,13.11,0,0,1-1.38-14.93c.94-1.69-1.65-3.2-2.59-1.51a16.21,16.21,0,0,0,1.85,18.56,1.52,1.52,0,0,0,2.56-1.06l0-15.5a1.5,1.5,0,0,0-3,0Z"/><path class="cls-16" d="M1484.66,111.78l.39,6c.13,1.91,3.13,1.93,3,0l-.39-6c-.13-1.91-3.13-1.93-3,0Z"/><path class="cls-16" d="M1487.82,109.64c.64-.82,1.45-1.62,1-2.75a1.68,1.68,0,0,0-1.35-1,2,2,0,0,0-1.63.61l2.13,2.12c.2-.16.15-.16-.15,0s-.37.11-.15.11l-.76-.2a.72.72,0,0,1-.37-.61c0-.12,0-.09,0,.11s0,.3,0,.44c0,.33,0,.65,0,1a1.5,1.5,0,0,0,1.5,1.5,1.54,1.54,0,0,0,1.5-1.5,4.65,4.65,0,0,0-.35-2.83,2,2,0,0,0-1.63-.89,2.5,2.5,0,0,0-1.7.8,1.5,1.5,0,0,0,2.13,2.12l0,.05-.76.21-.19,0-.66-.39.08.07-.39-.66,0,.13v-.8c.1-.27.2-.33,0,0l-.28.37a1.55,1.55,0,0,0,0,2.12,1.51,1.51,0,0,0,2.12,0Z"/><path class="cls-4" d="M1698.12,300.32a128.16,128.16,0,0,0-13.38-3.73c-1.15-.26-2.31-.5-3.46-.72-.59-.12-2.58-.67-3-.48-.27.11-.19.71-.23.92l-.17,1-.33,1.85-.74,4.05-.36,2-.19,1.06c0,.16-.31.73-.12.88a6.43,6.43,0,0,0,1.62.36l1.7.36,3.56.74,7.1,1.49a9.2,9.2,0,0,0,2.57.28c.8-.07,1.47-.49,1.23-1s-.89-.73-1.51-1l-8.65-3.68,12.15,3.44a10.75,10.75,0,0,0,2.36.48c.79,0,1.59-.13,1.81-.55.36-.67-.88-1.47-2-2a84.79,84.79,0,0,0-12-4.68,79.94,79.94,0,0,0,11.89,3.48c1.62.34,3.52.61,4.59,0s.73-1.77-.33-2.62A13.75,13.75,0,0,0,1698.12,300.32Z"/><rect class="cls-17" x="1684.55" y="281.44" width="21" height="44.24" rx="10.5" ry="10.5" transform="translate(61.27 -240.61) rotate(8.27)"/><rect class="cls-18" x="1685.83" y="289.95" width="18.48" height="26.98" transform="translate(61.26 -240.61) rotate(8.27)"/><circle class="cls-19" cx="1692.69" cy="319.81" r="2.42"/><circle class="cls-20" cx="1692.69" cy="319.81" r="1.89"/><circle class="cls-19" cx="1697.52" cy="286.09" r="0.47"/><circle cx="1697.52" cy="286.09" r="0.37"/></g><g id="Sprite_6" data-name="Sprite 6"><path class="cls-1" d="M1952.43,248.92c25.14,45.86,25.38,51.73,71,74.32,1.8-2,3.61-4,5.41-6-35.82-22.9-42.56-27.8-63-68-1.87-3.69-3.69-5.51-7.13-6.17s-6.35,3.2-4.33,5.85"/><rect class="cls-2" x="1834.08" y="443.66" width="15.38" height="20.87" transform="translate(1652.56 -1433.36) rotate(70.43)"/><rect class="cls-2" x="1941.34" y="445.36" width="15.38" height="20.87" transform="translate(893.15 -1244.68) rotate(45)"/><path class="cls-3" d="M1882.07,364.56H1924q.29-12.72.46-25.3h.7c.17,9.62.34,19.22.44,25.07v.23h37c.56-2.58,1.1-5.08,1.62-7.41q2.11-9.5,3.43-18.71,1.54-10.76,2.07-21.12c.06-1.05.1-2.09.14-3.12a227,227,0,0,0-16-92.46l-62.9.6c-11.11,26.32-13,59.25-12,91.85C1879.47,331.43,1880.83,348.54,1882.07,364.56Z"/><ellipse class="cls-4" cx="1921.14" cy="124.31" rx="80.27" ry="105.12"/><path class="cls-5" d="M1915.43,102.44c0,15.23-9.46,27.58-21.12,27.58s-21.13-12.35-21.13-27.58a33.54,33.54,0,0,1,3.74-15.66c3.8-7.2,10.17-11.92,17.39-11.92s13.58,4.72,17.39,11.92A33.65,33.65,0,0,1,1915.43,102.44Z"/><ellipse class="cls-6" cx="1951.46" cy="102.44" rx="21.12" ry="27.58"/><path class="cls-6" d="M1946,164.24a38.24,38.24,0,0,1-.21,4c-.09.85-.2,1.67-.34,2.49s-.32,1.67-.52,2.48a28.52,28.52,0,0,1-3.2,7.9,18.76,18.76,0,0,1-1.41,2c-2.46,3.12-5.55,5-8.89,5h-20.22c-3.34,0-6.42-1.85-8.87-5a26.22,26.22,0,0,1-4.59-9.94c-.2-.8-.38-1.63-.52-2.48s-.25-1.64-.34-2.49a39.72,39.72,0,0,1-.2-4v-1.48h48.45C1945.56,162.83,1946,163.46,1946,164.24Z"/><ellipse cx="1894.31" cy="112.38" rx="13.67" ry="17.85"/><ellipse cx="1951.46" cy="112.38" rx="13.67" ry="17.85"/><ellipse class="cls-5" cx="1892.32" cy="107.91" rx="3.23" ry="4.22"/><ellipse class="cls-5" cx="1948.48" cy="106.91" rx="3.23" ry="4.22"/><path class="cls-7" d="M1860,32.82c-2.28,2.94-4.61,6-5.78,9.5s-1,7.76,1.45,10.59c3.23,3.78,9.36,3.79,13.68,1.33s7.22-6.76,9.85-11c-3,4-6.06,9.31-3.58,13.64,2.32,4.06,8.48,4.33,12.4,1.78s6.14-7,8.18-11.19a13.76,13.76,0,0,0-2,12.86,12.13,12.13,0,0,0,10.21,7.8c4.35.3,8.62-2.05,11.34-5.45a17.4,17.4,0,0,0,3.54-13.55,11.34,11.34,0,1,0,19.78-2c2.75,3.31,5.56,6.68,9.16,9s8.18,3.63,12.29,2.33,7.33-5.67,6.4-9.88c-1-4.6-6-7-10.34-8.77a44.14,44.14,0,0,0,24.57,4.47,15.49,15.49,0,0,0,6.65-2c5.18-3.29,5.6-11.55,1.48-16.09-3.13-3.43-7.89-4.8-12.44-5.69a101.93,101.93,0,0,0-29.32-1.46c2.9-.21,5.9-.45,8.49-1.78s4.71-4,4.42-6.94-2.69-5-5.33-5.85-5.52-.73-8.31-.57c-31.61,1.88-63.75,3.86-93.53,14.67a18.73,18.73,0,0,0-6.78,3.65c-1.87,1.79-3,4.6-2.12,7s3.29,3.73,5.72,4.07a20.78,20.78,0,0,0,7.29-.76"/><path class="cls-8" d="M1921.09,126.28a117.09,117.09,0,0,0-13.29,22.15,1.51,1.51,0,0,0,2,2,17,17,0,0,1,16.22-.71c1.73.82,3.26-1.76,1.51-2.59a20.16,20.16,0,0,0-19.25.71l2.06,2.05a117.22,117.22,0,0,1,13.29-22.14c1.17-1.54-1.44-3-2.59-1.52Z"/><path class="cls-4" d="M1842.85,101.84c-1.27-3.62-6.4-5.3-10.29-3.93a11.18,11.18,0,0,0-7,8.82c-.61,3.77.38,7.6,1.74,11.19a58.61,58.61,0,0,0,15,22.17l1.49-38.66"/><path class="cls-4" d="M1998.86,101.84c1.27-3.62,6.41-5.3,10.29-3.93a11.18,11.18,0,0,1,7,8.82c.61,3.77-.37,7.6-1.73,11.19a58.84,58.84,0,0,1-15.05,22.17l-1.5-38.66"/><path class="cls-9" d="M1945.74,168.29c-.09.85-.2,1.67-.34,2.49s-.32,1.67-.52,2.48a28.52,28.52,0,0,1-3.2,7.9,18.76,18.76,0,0,1-1.41,2h-38a26.22,26.22,0,0,1-4.59-9.94c-.2-.8-.38-1.63-.52-2.48s-.25-1.64-.34-2.49Z"/><path class="cls-10" d="M1928.39,183.2h-15.11c.17-3,3.49-5.46,7.56-5.46S1928.22,180.16,1928.39,183.2Z"/><rect class="cls-11" x="1908.87" y="325.38" width="33.93" height="13.88" rx="6.05" ry="6.05"/><path class="cls-12" d="M1971.69,316.43c-.64,2.42-.36,1.44-1.18,4.46s-.33,1.25-1.91,7-1,4.14-3.94,16.09.7,1.5-5.24,28.93-57.67,100.6-103.46,89.25c-10.13-2.72-9.3-15.14-10.29-24.24,3.78-1.69,7.45-2.92,11.25-4.66a9.75,9.75,0,0,0,1.65-.56c21.66-14.86,43.44-18.56,56-45.36,3.62-7.71,8.54-28.44,9.42-39.76.27-3.53.88-9.77.91-13.56,0-1.21,0-2.77,0-3.86s0-1.86.08-2.85c0-.17,0-.26,0-.39s0,.08,0-.19.05-.78.07-1.13c0-.72.1-1.64.16-2.34.14-1.74.32-3.42.54-5.11.09-.67.16-1.11.25-1.8s.21-1.52.3-2.23c15.17-.58,29.85,1.36,45,2.58C1971.45,316.71,1971.69,316.8,1971.69,316.43Z"/><path class="cls-13" d="M1920.16,311.31c.27.68.66,1.71.9,2.32s.37.94.57,1.43c.69,1.64,1.4,3.22,2.09,4.83.31.7.68,1.38,1,2l.46.87.15.28c.43.74.61,1.26,1.08,2s.86,1.32,1.48,2.17a27.3,27.3,0,0,0,1.92,2.5,33.38,33.38,0,0,0,4.46,4.49c10.59,9,24.7,17.16,35.25,26.59,14.06,12.56,26.34,29.72,24.53,48.32-1.65,17-12.41,27-20.09,40.56a15.84,15.84,0,0,1-1.14,1.47c-2.53,3.67-5,7.13-7.52,10.76-8.58-5.39-17.3-10.95-25.77-16.27,5.63-12.53,20.58-21.68,20.81-36.46.16-9.83-10.28-17.28-18.67-22.84-1.26-.83-3.46-2-6.14-3.68-28.26-17.87-46-32.89-58.66-65.12.09-.06,0,0,.19-.08a6.21,6.21,0,0,1,.7-.24C1893.23,313.9,1904,317.33,1920.16,311.31Z"/><path d="M1937.52,316.91a26.85,26.85,0,0,0,27.62,26.75c1.93,0,1.93-3,0-3a23.83,23.83,0,0,1-24.62-23.75c0-1.93-3-1.93-3,0Z"/><path d="M1908.35,316a23.89,23.89,0,0,1-26.62,20.65c-1.92-.2-1.9,2.8,0,3a26.76,26.76,0,0,0,29.52-22.86c.28-1.88-2.61-2.7-2.9-.79Z"/><path d="M1922.12,318.33c2.22-.88,3.81-.41,4.43,2.17a16.35,16.35,0,0,1-.12,3.89l-.3,9.08L1928,332l-5.56-1.22,1,1.05a45.6,45.6,0,0,1-.59-15.19c.25-1.91-2.76-1.89-3,0a47.66,47.66,0,0,0,.7,16,1.45,1.45,0,0,0,1.05,1.05l5.56,1.22a1.51,1.51,0,0,0,1.9-1.44l.3-9.08c.07-2.11.51-4.57-.12-6.62-1.15-3.72-5-3.53-8-2.33-1.78.69-1,3.6.79,2.89Z"/><path class="cls-14" d="M1883.87,249.75c-15.31,9.74-31.76,18.47-38.16,37s-10.7,42.69-3.12,62.1c4.64-.71,9.28-1.56,13.91-2.48-5.59-16-1.42-37.12,1.88-52.55s10.74-19.75,21.83-29.81c4.48-4.06,12-8.19,13-15.05l-10.56.74"/><path class="cls-4" d="M2041,323.86a129.68,129.68,0,0,0-11.27-8.13c-1-.64-2-1.27-3-1.88-.51-.31-2.18-1.52-2.67-1.5-.29,0-.43.61-.53.79l-.5.84c-.32.54-.63,1.09-1,1.62l-2.08,3.55-1,1.77-.54.92c-.09.15-.54.59-.42.8a7.22,7.22,0,0,0,1.39.89l1.48.93,3.08,1.92,6.15,3.85a9.1,9.1,0,0,0,2.31,1.16c.78.21,1.55.05,1.5-.52s-.58-1-1.07-1.46L2026,323l10.21,7.43a10.91,10.91,0,0,0,2,1.27c.72.32,1.53.42,1.88.11.58-.51-.31-1.68-1.16-2.57a85.12,85.12,0,0,0-9.59-8.52,79.39,79.39,0,0,0,10,7.38c1.4.88,3.09,1.79,4.3,1.62s1.29-1.41.6-2.58A14.12,14.12,0,0,0,2041,323.86Z"/><path class="cls-4" d="M1856.71,363.84a115.18,115.18,0,0,0-.1-14.74c-.08-1.25-.19-2.49-.32-3.73-.06-.64-.07-2.82-.45-3.22-.23-.23-.93,0-1.18.07l-1.22.14-2.34.27-5.11.58-2.56.29-1.33.15c-.2,0-1-.07-1.1.17a6.67,6.67,0,0,0,.12,1.75l.16,1.84.32,3.83.65,7.67a8.35,8.35,0,0,0,.53,2.68c.37.79,1.1,1.33,1.63.92a3,3,0,0,0,.68-1.85l1.47-9.94,0,13.4a10.23,10.23,0,0,0,.22,2.54c.22.82.71,1.56,1.28,1.65.94.15,1.47-1.36,1.73-2.66a78.3,78.3,0,0,0,1.54-13.59,71.12,71.12,0,0,0-.11,13.14c.14,1.75.47,3.76,1.53,4.66s2.37.15,3-1.19A12.91,12.91,0,0,0,1856.71,363.84Z"/><ellipse class="cls-15" cx="1830.86" cy="465.63" rx="15.54" ry="26.45" transform="translate(-50.19 640.32) rotate(-19.57)"/><path d="M1837.54,464.41l6.55-1.35c1.89-.39,1.09-3.28-.8-2.89l-6.55,1.35c-1.89.38-1.09,3.28.8,2.89Z"/><path d="M1836.73,461.37l6.55-1.35c1.89-.38,1.09-3.28-.8-2.89l-6.55,1.35c-1.89.39-1.09,3.28.8,2.89Z"/><path d="M1839,467.59l6.55-1.35c1.89-.39,1.09-3.28-.79-2.9l-6.56,1.35c-1.89.39-1.09,3.28.8,2.9Z"/><ellipse class="cls-21" cx="1942.8" cy="472.46" rx="15.54" ry="26.45" transform="translate(757.57 2082.72) rotate(-67.31)"/><path d="M1943.88,466.39l3.41-5.76a1.5,1.5,0,0,0-2.59-1.51l-3.41,5.76a1.5,1.5,0,0,0,2.59,1.51Z"/><path d="M1941.09,465l3.41-5.76a1.5,1.5,0,0,0-2.59-1.51l-3.41,5.76a1.5,1.5,0,0,0,2.59,1.51Z"/><path d="M1947.24,467.42l3.41-5.76a1.5,1.5,0,0,0-2.59-1.51l-3.41,5.75a1.5,1.5,0,0,0,2.59,1.52Z"/><circle cx="1921.64" cy="235.71" r="1.24"/><circle cx="1921.64" cy="239.61" r="1.24"/><circle cx="1921.64" cy="243.52" r="1.24"/><circle cx="1924.14" cy="320.69" r="1.24"/><circle cx="1924.14" cy="324.6" r="1.24"/><circle cx="1924.14" cy="328.5" r="1.24"/><path class="cls-16" d="M2002.72,108l0,15.5a1.52,1.52,0,0,0,2.56,1.06,16.23,16.23,0,0,0,1.86-18.57c-.94-1.69-3.53-.17-2.59,1.52a13.08,13.08,0,0,1-1.39,14.92l2.56,1.07,0-15.5a1.5,1.5,0,0,0-3,0Z"/><path class="cls-16" d="M2004.63,110.66l-.4,6c-.12,1.93,2.88,1.92,3,0l.4-6c.13-1.93-2.87-1.92-3,0Z"/><path class="cls-16" d="M2006.59,106.39l-.29-.36c-.13-.18-.2-.44,0,0v.79l0-.12-.39.66.08-.07-.67.38-.19,0-.75-.2-.05,0a1.53,1.53,0,0,0,2.12,0,1.51,1.51,0,0,0,0-2.12,2.47,2.47,0,0,0-1.7-.81,2,2,0,0,0-1.62.89,4.53,4.53,0,0,0-.35,2.84,1.5,1.5,0,1,0,3,0,6.24,6.24,0,0,1,0-1c0-.15,0-.29,0-.44v-.18a.76.76,0,0,1-.37.67l-.76.21c.22,0,.17,0-.15-.11s-.35-.14-.15,0l2.12-2.12a2,2,0,0,0-1.42-.64,1.72,1.72,0,0,0-1.55,1c-.46,1.12.35,1.93,1,2.74a1.5,1.5,0,0,0,2.12,0,1.54,1.54,0,0,0,0-2.12Z"/><path class="cls-16" d="M1836.24,109l0,15.5,2.56-1.07a13.08,13.08,0,0,1-1.38-14.92c.94-1.69-1.65-3.21-2.59-1.52a16.21,16.21,0,0,0,1.85,18.57,1.52,1.52,0,0,0,2.56-1.06l0-15.5a1.5,1.5,0,0,0-3,0Z"/><path class="cls-16" d="M1834.32,111.66l.4,6c.13,1.92,3.13,1.93,3,0l-.4-6c-.12-1.92-3.12-1.93-3,0Z"/><path class="cls-16" d="M1837.49,109.51c.64-.81,1.45-1.61,1-2.74a1.68,1.68,0,0,0-1.35-1,2,2,0,0,0-1.63.61l2.12,2.12c.21-.16.16-.17-.15,0s-.36.1-.14.11l-.76-.21a.7.7,0,0,1-.37-.6c0-.13,0-.09,0,.11s0,.29,0,.44c0,.33,0,.65,0,1a1.51,1.51,0,0,0,1.5,1.5,1.54,1.54,0,0,0,1.5-1.5,4.68,4.68,0,0,0-.35-2.84,2,2,0,0,0-1.63-.89,2.56,2.56,0,0,0-1.7.81,1.5,1.5,0,0,0,2.12,2.12l0,0-.76.2-.19,0-.66-.38.07.07-.38-.66,0,.12v-.79c.1-.27.19-.34,0,0l-.29.36a1.55,1.55,0,0,0,0,2.12,1.52,1.52,0,0,0,2.13,0Z"/><rect class="cls-17" x="2026.48" y="303.72" width="21" height="44.24" rx="10.5" ry="10.5" transform="translate(402.58 -932.81) rotate(28.51)"/><rect class="cls-18" x="2027.8" y="312.24" width="18.48" height="26.98" transform="translate(402.53 -932.85) rotate(28.51)"/><circle class="cls-19" cx="2029.15" cy="340.26" r="2.42"/><circle class="cls-20" cx="2029.15" cy="340.26" r="1.89"/><circle class="cls-19" cx="2045.34" cy="310.3" r="0.47"/><circle cx="2045.34" cy="310.3" r="0.37"/></g><g id="Sprite_7" data-name="Sprite 7"><rect class="cls-2" x="2220.22" y="438.82" width="15.38" height="20.87" transform="translate(252.44 -674.54) rotate(18.23)"/><rect class="cls-2" x="2213.36" y="392.82" width="15.38" height="20.87" transform="translate(2335.69 -1851.2) rotate(82.62)"/><path class="cls-3" d="M2231.8,364.32h41.9q.28-12.72.46-25.3h.7c.17,9.62.34,19.22.44,25.07v.23h37c.56-2.59,1.09-5.08,1.61-7.41q2.12-9.5,3.43-18.71,1.54-10.76,2.07-21.12c.06-1.05.1-2.09.14-3.12a227,227,0,0,0-16-92.46l-62.9.6c-11.11,26.32-13,59.25-12,91.85C2229.21,331.18,2230.56,348.29,2231.8,364.32Z"/><ellipse class="cls-4" cx="2270.88" cy="124.06" rx="80.27" ry="105.12"/><path class="cls-5" d="M2265.16,102.19c0,15.24-9.46,27.59-21.12,27.59s-21.12-12.35-21.12-27.59a33.49,33.49,0,0,1,3.73-15.65c3.81-7.21,10.18-11.93,17.39-11.93s13.58,4.72,17.39,11.93A33.49,33.49,0,0,1,2265.16,102.19Z"/><ellipse class="cls-6" cx="2301.19" cy="102.19" rx="21.12" ry="27.58"/><path class="cls-6" d="M2295.68,164a38.24,38.24,0,0,1-.21,4c-.08.85-.2,1.67-.34,2.49s-.32,1.67-.52,2.48a28.46,28.46,0,0,1-3.19,7.91,19.68,19.68,0,0,1-1.42,2c-2.46,3.12-5.54,5-8.89,5H2260.9c-3.34,0-6.42-1.85-8.87-5a26.16,26.16,0,0,1-4.6-9.94c-.2-.8-.37-1.63-.52-2.48s-.25-1.64-.34-2.49a39.72,39.72,0,0,1-.2-4v-1.48h48.45C2295.3,162.58,2295.68,163.21,2295.68,164Z"/><ellipse cx="2244.04" cy="112.13" rx="13.67" ry="17.85"/><ellipse cx="2301.19" cy="112.13" rx="13.67" ry="17.85"/><ellipse class="cls-5" cx="2242.05" cy="107.66" rx="3.23" ry="4.22"/><ellipse class="cls-5" cx="2298.21" cy="106.67" rx="3.23" ry="4.22"/><path class="cls-7" d="M2209.75,32.57c-2.29,3-4.62,6-5.78,9.5s-1,7.76,1.44,10.59c3.23,3.78,9.37,3.79,13.69,1.33s7.22-6.76,9.84-11c-3,4-6.06,9.31-3.58,13.64,2.33,4.06,8.49,4.33,12.41,1.78s6.14-7,8.18-11.18a13.71,13.71,0,0,0-2,12.85,12.16,12.16,0,0,0,10.21,7.8c4.36.3,8.62-2,11.35-5.45A17.46,17.46,0,0,0,2269,48.9a11.34,11.34,0,1,0,19.78-2c2.75,3.31,5.56,6.68,9.16,9s8.17,3.64,12.28,2.34,7.33-5.67,6.41-9.88c-1-4.61-6-7-10.35-8.78a44.06,44.06,0,0,0,24.57,4.47,15.31,15.31,0,0,0,6.65-2c5.18-3.29,5.61-11.55,1.48-16.08-3.12-3.44-7.88-4.8-12.44-5.7a101.9,101.9,0,0,0-29.32-1.46c2.91-.21,5.9-.45,8.5-1.78s4.71-4,4.42-6.93-2.69-5-5.34-5.86-5.51-.73-8.3-.56c-31.62,1.88-63.76,3.86-93.53,14.66a18.56,18.56,0,0,0-6.79,3.66c-1.87,1.79-3,4.59-2.11,7s3.28,3.72,5.71,4.06a20.28,20.28,0,0,0,7.29-.76"/><path class="cls-8" d="M2270.82,126a117.75,117.75,0,0,0-13.29,22.14,1.51,1.51,0,0,0,2,2,17,17,0,0,1,16.22-.71c1.74.83,3.26-1.76,1.52-2.59a20.15,20.15,0,0,0-19.25.71l2,2.06a117.51,117.51,0,0,1,13.29-22.15c1.17-1.53-1.43-3-2.59-1.51Z"/><path class="cls-4" d="M2192.59,101.59c-1.27-3.62-6.41-5.3-10.29-3.93a11.19,11.19,0,0,0-7,8.83c-.61,3.76.38,7.59,1.74,11.19a59,59,0,0,0,15,22.17l1.49-38.66"/><path class="cls-4" d="M2348.6,101.59c1.27-3.62,6.4-5.3,10.28-3.93a11.17,11.17,0,0,1,7,8.83c.61,3.76-.38,7.59-1.74,11.19a58.88,58.88,0,0,1-15.05,22.17l-1.49-38.66"/><path class="cls-9" d="M2295.47,168c-.08.85-.2,1.67-.34,2.49s-.32,1.67-.52,2.48a28.46,28.46,0,0,1-3.19,7.91,19.68,19.68,0,0,1-1.42,2h-38a26.16,26.16,0,0,1-4.6-9.94c-.2-.8-.37-1.63-.52-2.48s-.25-1.64-.34-2.49Z"/><path class="cls-10" d="M2278.13,183H2263c.17-3,3.49-5.46,7.55-5.46S2278,179.91,2278.13,183Z"/><rect class="cls-11" x="2258.6" y="325.14" width="33.93" height="13.88" rx="6.05" ry="6.05"/><path class="cls-12" d="M2319.88,314.3c0,2.35-.3.43-.28,3.5s-.61-1.42-.35,5.31-1.14-3.53.45,12.76-3.68-34,1.48,16.14-23,88.36-98.93,62.47c.49-3.64.14-19.39,1.55-27.72a109.81,109.81,0,0,1,14.45,1.26l1.8.26c21.41,3.12,52.45,12.85,44.16-17.54-2.38-8.74-3.06-17.58-5-26.72-.6-2.85-1.41-7.24-2.09-10.36-.22-1-.46-2.33-.65-3.26s-.3-1.52-.48-2.37c0-.15-.06-.26-.08-.41s0,.15,0-.06-.14-.78-.19-1.11c-.11-.69-.24-1.58-.35-2.25-.25-1.67-.46-3.33-.55-5,0-.65,0-1,0-1.63s0-1.51,0-2.21c14.88-1.6,29.85-.66,44.8-1C2319.65,314.39,2319.8,314.47,2319.88,314.3Z"/><path class="cls-13" d="M2275.06,314.67c0,.68-.11,1.71-.15,2.31s-.06,1-.09,1.44c-.11,1.65-.22,3.21-.31,4.84,0,.71-.08,1.47-.12,2.16,0,.31,0,.76-.06,1s0,.22,0,.31c0,.84-.07,1.39-.1,2.27s-.09,1.72-.15,2.75-.13,2.33-.2,3.47c-.14,2.08-.32,4.36-.58,6.44-1.14,9.28-3.55,18.95-5.74,27.78-2.93,11.76-4.53,21.91-8.05,33.61-3.21,10.66-7.64,22.37-11.08,33.26l-.45,1.48c-1.19,3.86-2.2,7.73-3.21,11.64-9.81-1.8-19.63-3.59-29.41-5.5,1.15-16.32,5.67-33.52,8.06-49.29,1.58-10.49,1.4-18.91,2.67-29,.2-1.52.46-3.09.7-4.6,2.63-15.93,2.56-30.83,2.42-46.9h1C2245.13,314.33,2260.09,314,2275.06,314.67Z"/><path d="M2287.25,316.66a26.85,26.85,0,0,0,27.62,26.75c1.93,0,1.94-3,0-3a23.84,23.84,0,0,1-24.62-23.75c0-1.93-3-1.93-3,0Z"/><path d="M2258.09,315.79a23.89,23.89,0,0,1-26.62,20.65c-1.92-.19-1.91,2.81,0,3A26.74,26.74,0,0,0,2261,316.59c.28-1.89-2.61-2.71-2.89-.8Z"/><path d="M2271.86,318.08c2.22-.87,3.8-.41,4.43,2.18a16.29,16.29,0,0,1-.13,3.88l-.29,9.08,1.89-1.45-5.56-1.22,1.05,1.05a45,45,0,0,1-.59-15.18c.24-1.91-2.76-1.9-3,0a47.94,47.94,0,0,0,.69,16,1.47,1.47,0,0,0,1.05,1l5.57,1.22a1.52,1.52,0,0,0,1.9-1.44l.29-9.08c.07-2.11.51-4.56-.12-6.61-1.15-3.73-4.95-3.53-8-2.34-1.78.7-1,3.6.8,2.89Z"/><path class="cls-14" d="M2258,253.11c3.68,14.92,2.76,29.59,7.58,44.38s8.17,31.91,19,43.65c4.06-2.41,8.18-4.77,12.29-7.23-9.07-10.63-11.87-27.38-17.38-39.8s-6.63-23.39-10-36.17a25.51,25.51,0,0,0-9.38-13.52c-1,3.23-1.81,6.39-2.76,9.58"/><path class="cls-4" d="M2303.09,349.43a117.06,117.06,0,0,0-5.66-13.61c-.55-1.12-1.12-2.23-1.7-3.34-.3-.56-1.14-2.58-1.64-2.8-.3-.13-.84.39-1.07.51l-1.08.59-2.06,1.13-4.51,2.46-2.26,1.24-1.17.64c-.19.1-.94.31-1,.58a6.5,6.5,0,0,0,.77,1.57l.84,1.65,1.75,3.42,3.5,6.86a8.43,8.43,0,0,0,1.5,2.28c.64.6,1.52.81,1.86.23a3.06,3.06,0,0,0-.07-2l-2.4-9.75,5.08,12.4a10.37,10.37,0,0,0,1.17,2.27c.51.67,1.24,1.17,1.81,1,.92-.22.84-1.82.6-3.12a78.34,78.34,0,0,0-3.72-13.16,72.56,72.56,0,0,0,4.86,12.21c.8,1.56,1.86,3.3,3.18,3.73s2.26-.75,2.36-2.24A12.85,12.85,0,0,0,2303.09,349.43Z"/><ellipse class="cls-15" cx="2228.42" cy="468.98" rx="15.54" ry="26.45" transform="translate(1239.76 2520.41) rotate(-76.15)"/><path d="M2231.1,462.67l2.48-6.22c.72-1.79-2.18-2.57-2.89-.79l-2.49,6.21c-.71,1.79,2.19,2.57,2.9.8Z"/><path d="M2228.11,461.67l2.49-6.21c.72-1.79-2.19-2.57-2.89-.8l-2.49,6.22c-.72,1.79,2.18,2.57,2.89.79Z"/><path d="M2234.57,463.16l2.49-6.21c.72-1.79-2.18-2.57-2.89-.8l-2.49,6.22c-.71,1.79,2.19,2.57,2.89.79Z"/><ellipse class="cls-15" cx="2204.38" cy="419.49" rx="15.54" ry="26.45" transform="translate(-35.62 286.61) rotate(-7.38)"/><path d="M2210.18,417.39l6.69.06a1.5,1.5,0,0,0,0-3l-6.69-.06a1.5,1.5,0,0,0,0,3Z"/><path d="M2210,414.25l6.69.06a1.5,1.5,0,0,0,0-3l-6.69-.06a1.5,1.5,0,0,0,0,3Z"/><path d="M2211,420.81l6.69.07a1.5,1.5,0,0,0,0-3l-6.69-.07a1.5,1.5,0,0,0,0,3Z"/><circle cx="2271.37" cy="235.46" r="1.24"/><circle cx="2271.37" cy="239.36" r="1.24"/><circle cx="2271.37" cy="243.27" r="1.24"/><circle cx="2273.88" cy="320.45" r="1.24"/><circle cx="2273.88" cy="324.35" r="1.24"/><circle cx="2273.88" cy="328.26" r="1.24"/><path class="cls-16" d="M2352.45,107.73l0,15.5a1.52,1.52,0,0,0,2.56,1.06,16.23,16.23,0,0,0,1.85-18.57c-.94-1.68-3.53-.17-2.59,1.52a13.12,13.12,0,0,1-1.38,14.93l2.56,1.06,0-15.5a1.5,1.5,0,0,0-3,0Z"/><path class="cls-16" d="M2354.37,110.41l-.4,6c-.13,1.92,2.87,1.92,3,0l.4-6c.12-1.93-2.88-1.92-3,0Z"/><path class="cls-16" d="M2356.33,106.14l-.29-.36c-.14-.17-.21-.44,0,0v.8l0-.13-.38.66.07-.07-.66.39-.19,0-.76-.21,0,0a1.5,1.5,0,0,0,2.12-2.12,2.48,2.48,0,0,0-1.7-.8,1.94,1.94,0,0,0-1.63.89,4.65,4.65,0,0,0-.35,2.83,1.53,1.53,0,0,0,1.5,1.5,1.5,1.5,0,0,0,1.5-1.5c0-.32-.05-.64-.05-1,0-.14,0-.29,0-.44l0-.17a.79.79,0,0,1-.38.67l-.76.2c.22,0,.17,0-.14-.11s-.36-.14-.15,0l2.12-2.12a2.09,2.09,0,0,0-1.43-.64,1.73,1.73,0,0,0-1.55,1c-.46,1.12.35,1.93,1,2.75a1.53,1.53,0,0,0,2.13,0,1.56,1.56,0,0,0,0-2.13Z"/><path class="cls-16" d="M2186,108.73l0,15.5,2.56-1.06a13.1,13.1,0,0,1-1.39-14.93c.94-1.69-1.65-3.2-2.59-1.52a16.25,16.25,0,0,0,1.85,18.57,1.52,1.52,0,0,0,2.57-1.06l0-15.5a1.5,1.5,0,0,0-3,0Z"/><path class="cls-16" d="M2184.06,111.41l.4,6c.12,1.91,3.12,1.93,3,0l-.4-6c-.13-1.92-3.13-1.93-3,0Z"/><path class="cls-16" d="M2187.22,109.27c.64-.82,1.45-1.62,1-2.75a1.66,1.66,0,0,0-1.35-1,2,2,0,0,0-1.62.61l2.12,2.12c.2-.16.15-.16-.15,0s-.37.11-.15.11l-.76-.2a.72.72,0,0,1-.37-.61c0-.12,0-.09,0,.11s0,.3,0,.44a6.24,6.24,0,0,1-.05,1,1.5,1.5,0,0,0,1.5,1.5,1.54,1.54,0,0,0,1.5-1.5,4.57,4.57,0,0,0-.35-2.83,1.92,1.92,0,0,0-1.62-.89,2.46,2.46,0,0,0-1.7.8,1.5,1.5,0,0,0,2.12,2.12l-.05,0-.75.21-.19,0-.67-.39.08.07-.39-.66,0,.13v-.8c.1-.27.2-.33,0,0l-.29.36a1.56,1.56,0,0,0,0,2.13,1.51,1.51,0,0,0,2.12,0Z"/></g><g id="Sprite_8" data-name="Sprite 8"><path class="cls-1" d="M2584.72,242.23c-37.69,36.48-54.4,62-21.91,111.77,2.56-.91,5.09-1.78,7.67-2.71-22.31-43.25-15.92-63.41,16.42-95.49,3-2.94,4.89-4.89,4.81-8.67a3.82,3.82,0,0,0-6.35-3.09"/><path class="cls-4" d="M2579.52,365.62a128.09,128.09,0,0,0-6-12.55c-.56-1-1.13-2.07-1.72-3.09-.3-.52-1.18-2.38-1.62-2.6-.26-.13-.67.33-.84.43l-.85.5c-.54.32-1.07.65-1.61,1l-3.54,2.1-1.77,1.05-.92.55c-.15.08-.75.25-.75.49a7.52,7.52,0,0,0,.79,1.46l.85,1.52,1.77,3.17,3.54,6.34a8.76,8.76,0,0,0,1.46,2.12c.58.57,1.34.79,1.56.27a3,3,0,0,0-.23-1.79l-2.89-8.94,5.37,11.43a10.79,10.79,0,0,0,1.18,2.1c.48.63,1.14,1.11,1.6,1,.75-.18.54-1.63.21-2.82a85.15,85.15,0,0,0-4.29-12.08A79.37,79.37,0,0,0,2576,368.5c.81,1.45,1.85,3.06,3,3.49s1.81-.61,1.76-2A14.05,14.05,0,0,0,2579.52,365.62Z"/><rect class="cls-17" x="2564.56" y="343.31" width="21" height="44.24" rx="10.5" ry="10.5" transform="translate(1492.15 -1999.26) rotate(57.32)"/><rect class="cls-18" x="2565.92" y="351.87" width="18.48" height="26.98" transform="translate(1492.15 -1999.38) rotate(57.32)"/><circle class="cls-19" cx="2561.24" cy="374.29" r="2.42"/><circle class="cls-20" cx="2561.24" cy="374.29" r="1.89"/><circle class="cls-19" cx="2589.87" cy="355.84" r="0.47"/><circle cx="2589.87" cy="355.84" r="0.37"/><rect class="cls-2" x="2504.35" y="443.61" width="15.38" height="20.87" transform="translate(1434.73 -1860.24) rotate(54.79)"/><rect class="cls-2" x="2637.82" y="432.8" width="15.38" height="20.87" transform="translate(1088.27 -1740.84) rotate(45)"/><path class="cls-3" d="M2581.63,368.28h41.9q.28-12.72.46-25.3h.7c.17,9.62.34,19.22.44,25.07v.23h36.95c.56-2.59,1.1-5.08,1.62-7.41q2.12-9.5,3.43-18.71,1.54-10.76,2.07-21.12c.06-1.05.1-2.09.14-3.12a227,227,0,0,0-16-92.46l-62.9.6c-11.11,26.32-13,59.25-12,91.85C2579,335.15,2580.39,352.25,2581.63,368.28Z"/><ellipse class="cls-4" cx="2620.7" cy="128.02" rx="80.27" ry="105.12"/><path class="cls-5" d="M2615,106.16c0,15.23-9.46,27.58-21.12,27.58s-21.13-12.35-21.13-27.58a33.54,33.54,0,0,1,3.74-15.66c3.8-7.21,10.17-11.93,17.39-11.93s13.58,4.72,17.39,11.93A33.65,33.65,0,0,1,2615,106.16Z"/><ellipse class="cls-6" cx="2651.02" cy="106.16" rx="21.12" ry="27.58"/><path class="cls-6" d="M2645.51,168a38.57,38.57,0,0,1-.21,4.06c-.09.84-.2,1.67-.34,2.48s-.32,1.68-.52,2.49a28.52,28.52,0,0,1-3.2,7.9,19.32,19.32,0,0,1-1.41,2c-2.46,3.11-5.55,5-8.89,5h-20.22c-3.34,0-6.41-1.86-8.87-5a26.29,26.29,0,0,1-4.59-9.94c-.2-.81-.37-1.64-.52-2.49s-.25-1.64-.34-2.48c-.13-1.29-.2-2.63-.2-4v-1.49h48.45C2645.12,166.54,2645.51,167.17,2645.51,168Z"/><ellipse cx="2593.87" cy="116.1" rx="13.67" ry="17.85"/><ellipse cx="2651.02" cy="116.1" rx="13.67" ry="17.85"/><ellipse class="cls-5" cx="2591.88" cy="111.62" rx="3.23" ry="4.22"/><ellipse class="cls-5" cx="2648.04" cy="110.63" rx="3.23" ry="4.22"/><path class="cls-7" d="M2559.57,36.54c-2.28,2.94-4.61,6-5.78,9.49s-1,7.76,1.45,10.59c3.23,3.79,9.36,3.8,13.68,1.34s7.23-6.77,9.85-11c-3,4-6.06,9.31-3.58,13.65,2.33,4.06,8.48,4.32,12.4,1.77s6.14-7,8.18-11.18a13.74,13.74,0,0,0-2,12.85A12.14,12.14,0,0,0,2604,71.87c4.35.3,8.62-2.05,11.34-5.46a17.38,17.38,0,0,0,3.54-13.55,11.34,11.34,0,1,0,19.78-2c2.75,3.32,5.56,6.69,9.16,9s8.18,3.64,12.29,2.34,7.33-5.67,6.41-9.88c-1-4.61-6-7-10.35-8.78a44.06,44.06,0,0,0,24.57,4.47,15.22,15.22,0,0,0,6.65-2c5.18-3.28,5.6-11.54,1.48-16.08-3.13-3.43-7.89-4.8-12.44-5.7a101.93,101.93,0,0,0-29.32-1.45c2.91-.22,5.9-.46,8.49-1.78s4.71-4,4.42-6.94-2.69-5-5.33-5.86-5.52-.73-8.3-.56c-31.62,1.88-63.76,3.86-93.54,14.66a18.75,18.75,0,0,0-6.78,3.66c-1.87,1.79-3,4.6-2.11,7s3.28,3.73,5.71,4.06a20.28,20.28,0,0,0,7.29-.76"/><path class="cls-8" d="M2620.65,130a117.75,117.75,0,0,0-13.29,22.14,1.52,1.52,0,0,0,2,2.06,17,17,0,0,1,16.22-.72c1.74.83,3.26-1.76,1.52-2.59a20.15,20.15,0,0,0-19.25.72l2,2a118.15,118.15,0,0,1,13.29-22.15c1.17-1.53-1.43-3-2.59-1.51Z"/><path class="cls-4" d="M2542.41,105.56c-1.27-3.63-6.4-5.31-10.29-3.94a11.19,11.19,0,0,0-7,8.83c-.61,3.76.38,7.59,1.74,11.19a58.8,58.8,0,0,0,15,22.17l1.49-38.66"/><path class="cls-4" d="M2698.42,105.56c1.27-3.63,6.41-5.31,10.29-3.94a11.17,11.17,0,0,1,7,8.83c.62,3.76-.37,7.59-1.73,11.19a58.91,58.91,0,0,1-15.05,22.17l-1.5-38.66"/><path class="cls-9" d="M2645.3,172c-.09.84-.2,1.67-.34,2.48s-.32,1.68-.52,2.49a28.52,28.52,0,0,1-3.2,7.9,19.32,19.32,0,0,1-1.41,2h-38a26.29,26.29,0,0,1-4.59-9.94c-.2-.81-.37-1.64-.52-2.49s-.25-1.64-.34-2.48Z"/><path class="cls-10" d="M2628,186.92h-15.1c.17-3,3.48-5.47,7.55-5.47S2627.78,183.88,2628,186.92Z"/><rect class="cls-11" x="2608.43" y="329.1" width="33.93" height="13.88" rx="6.05" ry="6.05"/><path class="cls-12" d="M2668.39,317.39c0,1.88,0,1.15,0,3.48s.12.69,0,5.15a99.18,99.18,0,0,1-.47,10.57c-.7,9.39,1.12-16.87-.74,10s75.55,42.43-8.42,101.24c-7.27-3.53-14-13.53-21-19.61a59.15,59.15,0,0,1,9.35-8.14c.38-.27.58-.26,1.11-.66,23.67-17.93,19.83-22.11-2.21-40.59-6.34-5.31-16.47-18.35-18.15-29.14-.52-3.37-1.95-8.54-2.28-12.1-.1-1.13-.4-2.49-.51-3.45s-.22-1.39-.33-2.23c0-.14,0-.21-.06-.35s0,.14,0-.06-.12-.71-.16-1c-.1-.63-.22-1.44-.32-2.07-.24-1.59-.49-3.15-.72-4.69-.09-.63-.13-1-.23-1.63s-.22-1.54-.32-2.24c15.06-2.18,30.11-1.22,45.25-2.42C2668.17,317.47,2668.3,317.5,2668.39,317.39Z"/><path class="cls-13" d="M2625.45,318.49c-.09.69-.21,1.69-.28,2.3s-.11,1-.17,1.5c-.18,1.75-.24,3.44-.29,5.18,0,.76,0,1.6-.05,2.35,0,.33,0,.8,0,1v.34c0,1,0,1.55,0,2.55s0,1.91,0,3.1,0,2.54-.09,3.92c-.22,2.53,0,4.79-.5,7.5-2,12.09-4,23.07-11.63,33.31-10.22,13.65-21.33,24.45-33.73,37.29-11.29,11.7-27.06,23.4-40,34.18-.59.49-1.49,1.18-2,1.57-4,3.2-7.81,6.26-11.78,9.36a222,222,0,0,1-19.23-22.55c14.59-16.06,33.39-32,46.42-48.44,8.67-11,15.2-18.59,23.69-28.36,1.27-1.47,2.37-2.58,2.84-3.94,4.95-14.43,1-27.71.74-42.38h1C2595.34,318.28,2610.4,318,2625.45,318.49Z"/><path d="M2637.08,320.63a26.85,26.85,0,0,0,27.62,26.74c1.93,0,1.93-3,0-3a23.82,23.82,0,0,1-24.62-23.74c0-1.93-3-1.94-3,0Z"/><path d="M2607.91,319.75a23.89,23.89,0,0,1-26.62,20.66c-1.92-.2-1.9,2.8,0,3a26.76,26.76,0,0,0,29.52-22.86c.28-1.89-2.61-2.7-2.9-.8Z"/><path d="M2621.68,322c2.23-.87,3.81-.4,4.44,2.18a16.39,16.39,0,0,1-.13,3.89l-.3,9.07,1.9-1.44-5.56-1.23,1,1.05a45.28,45.28,0,0,1-.58-15.18c.24-1.91-2.77-1.89-3,0a47.67,47.67,0,0,0,.69,16,1.49,1.49,0,0,0,1.05,1.05l5.56,1.22a1.53,1.53,0,0,0,1.9-1.45l.3-9.07c.07-2.12.51-4.57-.12-6.62-1.15-3.73-5-3.53-8-2.34-1.78.7-1,3.6.79,2.89Z"/><path class="cls-14" d="M2633.86,261.79c4.62,20.42,17.29,41,25,59.58s18.08,31.5,34.78,40.74c2.79-4.08,5.52-8,8.32-11.86-13.47-8.46-22.05-19.08-29.73-33.94s-19.25-33-26.45-48.6c-2.9-6.3-4.22-11.76-9.86-15.44-.83,3.5-1.76,6.87-2.66,10.31"/><path class="cls-4" d="M2717.07,359.94a116.45,116.45,0,0,0-12.48-7.84c-1.1-.59-2.21-1.17-3.32-1.74-.57-.28-2.42-1.45-3-1.34-.32.07-.46.81-.57,1l-.54,1.1c-.35.7-.68,1.41-1,2.11l-2.26,4.62-1.13,2.31-.59,1.21c-.09.18-.58.79-.45,1a6.45,6.45,0,0,0,1.54.84l1.64.86,3.41,1.78,6.81,3.57a8.3,8.3,0,0,0,2.55,1c.86.12,1.71-.21,1.65-.88s-.65-1.1-1.2-1.57l-7.59-6.58,11.31,7.19a10,10,0,0,0,2.27,1.17,2.12,2.12,0,0,0,2.08-.19c.62-.71-.37-2-1.32-2.89a78.52,78.52,0,0,0-10.64-8.6,71.43,71.43,0,0,0,11,7.16c1.55.82,3.42,1.62,4.75,1.21s1.4-1.92.62-3.2A13,13,0,0,0,2717.07,359.94Z"/><ellipse class="cls-15" cx="2502.37" cy="471.7" rx="15.54" ry="26.45" transform="translate(185.81 1529.01) rotate(-35.21)"/><path d="M2508.45,468.72l6-3.06c1.72-.88.2-3.47-1.51-2.59l-5.95,3.06c-1.72.89-.2,3.48,1.51,2.59Z"/><path d="M2506.85,466l6-3.07c1.72-.88.2-3.47-1.51-2.59l-5.95,3.07c-1.72.88-.2,3.47,1.51,2.59Z"/><path d="M2510.76,471.38l5.94-3.06c1.72-.89.2-3.48-1.51-2.6l-6,3.07c-1.72.88-.2,3.47,1.52,2.59Z"/><ellipse class="cls-15" cx="2638.58" cy="459.86" rx="15.54" ry="26.45" transform="translate(564.47 2154.45) rotate(-49.14)"/><path d="M2641.57,454.37l5-4.41c1.45-1.27-.68-3.39-2.12-2.12l-5,4.41c-1.46,1.27.67,3.39,2.12,2.12Z"/><path d="M2639.37,452.13l5-4.41c1.46-1.27-.67-3.39-2.12-2.12l-5,4.41c-1.45,1.27.68,3.39,2.13,2.12Z"/><path d="M2644.44,456.39l5-4.4c1.46-1.28-.67-3.39-2.12-2.13l-5,4.41c-1.45,1.27.68,3.39,2.12,2.12Z"/><circle cx="2621.2" cy="239.42" r="1.24"/><circle cx="2621.2" cy="243.33" r="1.24"/><circle cx="2621.2" cy="247.23" r="1.24"/><circle cx="2623.7" cy="324.41" r="1.24"/><circle cx="2623.7" cy="328.31" r="1.24"/><circle cx="2623.7" cy="332.22" r="1.24"/><path class="cls-16" d="M2702.28,111.7l0,15.49a1.51,1.51,0,0,0,2.56,1.06,16.23,16.23,0,0,0,1.85-18.56c-.94-1.69-3.53-.18-2.59,1.51a13.1,13.1,0,0,1-1.39,14.93l2.57,1.06,0-15.49a1.5,1.5,0,0,0-3,0Z"/><path class="cls-16" d="M2704.19,114.37l-.39,6c-.13,1.93,2.87,1.92,3,0l.39-6c.13-1.92-2.87-1.92-3,0Z"/><path class="cls-16" d="M2706.15,110.11l-.28-.37c-.14-.17-.21-.44,0,.05v.8l0-.13-.39.67.08-.08-.67.39-.18,0-.76-.2-.05,0a1.54,1.54,0,0,0,2.12,0,1.51,1.51,0,0,0,0-2.12,2.43,2.43,0,0,0-1.7-.81,1.94,1.94,0,0,0-1.62.89,4.6,4.6,0,0,0-.35,2.84,1.5,1.5,0,1,0,3,0,8,8,0,0,1-.05-1c0-.15,0-.3,0-.45v-.17a.77.77,0,0,1-.37.67l-.76.2c.22,0,.17,0-.15-.1s-.35-.14-.15,0l2.12-2.12a2,2,0,0,0-1.42-.64,1.7,1.7,0,0,0-1.55,1c-.46,1.12.35,1.92,1,2.74a1.51,1.51,0,0,0,2.12,0,1.54,1.54,0,0,0,0-2.12Z"/><path class="cls-16" d="M2535.8,112.7l0,15.49,2.56-1.06A13.1,13.1,0,0,1,2537,112.2c.94-1.69-1.65-3.2-2.59-1.51a16.21,16.21,0,0,0,1.85,18.56,1.51,1.51,0,0,0,2.56-1.06l0-15.49a1.5,1.5,0,0,0-3,0Z"/><path class="cls-16" d="M2533.88,115.37l.4,6c.13,1.92,3.13,1.93,3,0l-.4-6c-.12-1.91-3.12-1.93-3,0Z"/><path class="cls-16" d="M2537.05,113.23c.64-.82,1.45-1.62,1-2.74a1.68,1.68,0,0,0-1.35-1,2,2,0,0,0-1.63.62l2.12,2.12c.21-.16.16-.17-.14,0s-.37.1-.15.1l-.76-.2a.72.72,0,0,1-.37-.6c0-.13,0-.09,0,.1s0,.3,0,.45c0,.32,0,.64-.05,1a1.51,1.51,0,0,0,1.5,1.5,1.54,1.54,0,0,0,1.5-1.5,4.67,4.67,0,0,0-.35-2.84,2,2,0,0,0-1.63-.89,2.51,2.51,0,0,0-1.7.81,1.5,1.5,0,0,0,2.12,2.12l0,0-.76.2-.19,0-.66-.39.08.08-.39-.67,0,.13v-.8c.1-.27.19-.33,0-.05l-.28.37a1.54,1.54,0,0,0,0,2.12,1.51,1.51,0,0,0,2.12,0Z"/></g></svg>
