<svg xmlns="http://www.w3.org/2000/svg" viewBox="0 0 2800 500"><defs><style>.cls-1,.cls-2{fill:#e2c9a1;}.cls-1{stroke:#d1b27c;stroke-miterlimit:10;}.cls-3{fill:#fff;}.cls-4{fill:#fcfcfc;}.cls-5{fill:#7f643d;}.cls-6{fill:#21170c;}.cls-7{fill:#561212;}.cls-8{fill:red;}.cls-9{fill:#654b66;}.cls-10{fill:#715172;}.cls-11{fill:#c543c9;}.cls-12{fill:#d143d1;}.cls-13{fill:#0071bc;}.cls-14{fill:#3f341b;}.cls-15{fill:#fcffb6;}.cls-16{fill:#2d2d2d;}.cls-17{fill:#121414;}.cls-18{fill:#171919;}.cls-19{fill:#242626;}</style></defs><title>Girl-Animation_walk_03_uden_bg</title><g id="Sprite_1" data-name="Sprite 1"><rect class="cls-1" x="212.55" y="444.95" width="13.14" height="20.11" transform="translate(-233.52 231.04) rotate(-37.96)"/><rect class="cls-1" x="117.85" y="437.76" width="13.14" height="20.11" transform="translate(316.28 24.48) rotate(39.91)"/><ellipse class="cls-2" cx="167.75" cy="136.23" rx="68.33" ry="100.78"/><path class="cls-3" d="M162.87,115.16c0,14.68-8.08,26.57-18,26.57s-18-11.89-18-26.57A35.75,35.75,0,0,1,130,100.08c3.25-6.94,8.69-11.49,14.85-11.49s11.6,4.55,14.85,11.49A35.6,35.6,0,0,1,162.87,115.16Z"/><ellipse class="cls-4" cx="193.64" cy="115.16" rx="18.04" ry="26.57"/><path class="cls-4" d="M188.94,174.69c0,1.33-.06,2.64-.18,3.91-.08.81-.18,1.61-.29,2.39s-.28,1.62-.45,2.4a29.21,29.21,0,0,1-2.73,7.61,20.4,20.4,0,0,1-1.2,2c-2.1,3-4.74,4.79-7.6,4.79H159.23c-2.85,0-5.48-1.79-7.58-4.79a26.81,26.81,0,0,1-3.92-9.57q-.25-1.17-.45-2.4c-.11-.78-.21-1.58-.28-2.39q-.18-1.87-.18-3.84v-1.43H188.2C188.61,173.33,188.94,173.94,188.94,174.69Z"/><ellipse cx="144.83" cy="124.74" rx="11.67" ry="17.19"/><ellipse cx="193.64" cy="124.74" rx="11.67" ry="17.19"/><ellipse class="cls-3" cx="143.13" cy="120.43" rx="2.76" ry="4.06"/><ellipse class="cls-3" cx="191.1" cy="119.47" rx="2.76" ry="4.06"/><path class="cls-5" d="M167.52,138.1A119.49,119.49,0,0,0,156,159.79c-.5,1.23,1.17,2.36,2.21,1.7a12.88,12.88,0,0,1,13.63-.69c1.71.9,3.22-1.69,1.51-2.59a16,16,0,0,0-16.66.69l2.21,1.69a115.06,115.06,0,0,1,11.2-21c1.08-1.61-1.52-3.11-2.59-1.52Z"/><path class="cls-2" d="M100.89,114.58c-1.08-3.49-5.47-5.1-8.79-3.78s-5.44,4.87-6,8.5.32,7.31,1.48,10.78a57.55,57.55,0,0,0,12.86,21.35l1.27-37.24"/><path class="cls-2" d="M234.13,114.58c1.08-3.49,5.47-5.1,8.78-3.78s5.45,4.87,6,8.5-.32,7.31-1.48,10.78a57.55,57.55,0,0,1-12.86,21.35l-1.27-37.24"/><path class="cls-6" d="M188.76,178.6c-.08.81-.18,1.61-.29,2.39s-.28,1.62-.45,2.4a29.21,29.21,0,0,1-2.73,7.61,20.4,20.4,0,0,1-1.2,2H151.65a26.81,26.81,0,0,1-3.92-9.57q-.25-1.17-.45-2.4c-.11-.78-.21-1.58-.28-2.39Z"/><path class="cls-7" d="M173.94,193H161c.15-2.93,3-5.27,6.45-5.27S173.8,190,173.94,193Z"/><path class="cls-8" d="M186.25,335.75v1.72c0,3.21-2.33,5.83-5.17,5.83H162.44c-2.85,0-5.17-2.62-5.17-5.83v-1.72c0-3.2,2.32-5.82,5.17-5.82h18.64C183.92,329.93,186.25,332.55,186.25,335.75Z"/><path class="cls-9" d="M203.11,358.37c-.34,1.18-.25,1-.62,2.47s0,1.49-.54,4,.42,5.08-1,8.92,3.4-5.68-3,10.23-45.18,51.55-61.72,66c-6.47-2.52-10.47-8.47-15.89-12.56,1.9-2.51,3.71-4.9,5.72-7.33l.81-.94c12.92-14.83,26.69-29.77,39.52-44.39a29.12,29.12,0,0,0,6.9-13c.4-1.57,0-2.84-.1-4.34,0-.48-.21-.94-.27-1.36s-.16-.64-.24-1a1.46,1.46,0,0,0,0-.17s0,0,0,0l-.14-.56c-.07-.29-.15-.71-.22-1.08a11.28,11.28,0,0,1-.24-2.79c0-.39,0-.69.08-1.13s.09-1.08.17-1.55c10.2.28,20.41.13,30.61.58C202.94,358.42,203,358.47,203.11,358.37Z"/><path d="M181.52,321.76c.24,13.52,9.44,26.05,23.81,25.83,1.92,0,1.93-3,0-3-12.69.19-20.6-11-20.81-22.83,0-1.92-3-1.93-3,0Z"/><path class="cls-10" d="M165,352.44c.14.46.35,1.15.47,1.57s.2.71.3,1c.32,1.12.65,2.31.95,3.37.14.47.29,1,.38,1.32s.13.42.17.57a.78.78,0,0,0,.06.19c.16.53.25.82.42,1.36s.31,1,.51,1.67a21.37,21.37,0,0,0,.7,2c.57,1.36.79,2.36,1.53,3.82,3.3,6.52,6.38,10.46,11.35,16.68,6.61,8.28,13.77,18.21,20.58,27.36,6.22,8.33,13.24,17.63,19.2,26.36.28.4.47.71.69,1,1.74,2.64,3.39,5.27,5.07,7.94-5.52,3.76-11.08,7.46-16.58,11.24-9.76-11.15-19.35-21.54-29.38-32.68-6.67-7.42-14-15.53-20.74-23.19-1-1.16-2.06-2.37-3.11-3.69-11.08-14-17.64-28.65-23.18-45.53l.17,0a4.56,4.56,0,0,0,.49-.11C145,352.25,155,354.29,165,352.44Z"/><path d="M169.32,365.75a1.5,1.5,0,0,0,0-3,1.5,1.5,0,0,0,0,3Z"/><path d="M169.66,354.23c.15.1.16.11,0,0a1.8,1.8,0,0,1,.2.19c.11.13.12.13,0,0a1.71,1.71,0,0,1,.13.23,1.67,1.67,0,0,1,.12.23q-.09-.23,0,0c.05.18.11.36.17.54a1.5,1.5,0,1,0,2.89-.8,5.09,5.09,0,0,0-2.05-3.05,1.5,1.5,0,0,0-1.51,2.59Z"/><path class="cls-11" d="M194.34,256.12c15,43.28,25.52,62.86,64.55,89.39,1.64-1.92,3.29-3.81,4.9-5.77-31.35-25.82-46.08-43.93-57.88-82.87-1.08-3.57-2.52-4.84-5.81-5.74s-4.4,2.33-3.78,5"/><path class="cls-2" d="M273.44,342.93c-3.15-2.34-6.5-4.6-9.89-6.7-.86-.54-1.75-1-2.69-1.57-.48-.29-1.48-1.08-2.1-1s-.3.41-.5.78a9.38,9.38,0,0,0-.38,1c-.18.44-.41,1.09-.62,1.62-.45,1.17-.95,2.5-1.39,3.67-.23.58-.51,1.29-.68,1.77s-.28.67-.4,1.05-.44.47-.21.87.76.49,1.16.73l1.27.74,2.68,1.54,5.35,3.09a8.37,8.37,0,0,0,1.94.85c.62.17,1.19,0,1.18-.61s-.51-.93-.94-1.34c-2-1.88-4.09-3.71-6.12-5.57,3,2,6,4.12,9,6.14a5.82,5.82,0,0,0,1.76,1c.62.15,1.25.67,1.52-.23s-.42-1.6-1.2-2.33a110.41,110.41,0,0,0-8.45-7.16,87.39,87.39,0,0,0,8.71,6.05c1.18.69,2.32,1.47,3.6,1s1-1.53.26-2.54A12.33,12.33,0,0,0,273.44,342.93Z"/><path class="cls-12" d="M135.05,256.18c-12.46,14.33-26.78,25.5-37.68,41.45-9.52,13.93-13.31,31.53-16.5,48.05,4.06.45,8.1.58,12,.89,3.44-14.37,7.21-28.71,14.59-41.62s19-22.78,27.53-34.94c3.45-4.92,6.61-9.94,8.31-15.8-3.08.7-6.18,1.44-9.26,2.16"/><path class="cls-2" d="M86.84,362.86a127.13,127.13,0,0,0,5.63-13c.42-1.13.82-2.26,1.2-3.4.2-.58,1-2.51.89-3-.08-.28-.74-.28-1-.34l-1-.29c-.64-.19-1.29-.37-1.93-.57L86.44,341l-2.11-.62-1.1-.32c-.17-.05-.74-.39-.93-.22a7.32,7.32,0,0,0-.59,1.58l-.59,1.68-1.23,3.49-2.46,7a8.58,8.58,0,0,0-.63,2.55c0,.82.35,1.54.92,1.36s.89-.8,1.25-1.4l5-8.26-5.18,11.82A11,11,0,0,0,78,362c-.14.79,0,1.62.37,1.89.67.45,1.67-.7,2.38-1.75a84.38,84.38,0,0,0,6.47-11.47A77.22,77.22,0,0,0,82,362.19c-.57,1.59-1.09,3.47-.61,4.62s1.8.95,2.84,0A14,14,0,0,0,86.84,362.86Z"/><ellipse class="cls-13" cx="237.68" cy="466.23" rx="22.79" ry="14.84" transform="translate(-220.29 213.01) rotate(-34.05)"/><path class="cls-13" d="M233.23,461.41l-3.4-5.36"/><path d="M234.53,460.65l-3.41-5.35c-1-1.63-3.63-.13-2.59,1.51l3.41,5.36c1,1.62,3.63.12,2.59-1.52Z"/><path class="cls-13" d="M230.91,462.83l-3.4-5.36"/><path d="M232.21,462.07l-3.41-5.36c-1-1.62-3.63-.12-2.59,1.52l3.41,5.35c1,1.63,3.63.13,2.59-1.51Z"/><path class="cls-13" d="M235.44,459.37,232,454"/><path d="M236.74,458.61l-3.41-5.36c-1-1.62-3.63-.12-2.59,1.51l3.41,5.36c1,1.63,3.63.13,2.59-1.51Z"/><ellipse class="cls-13" cx="118.48" cy="465.51" rx="14.84" ry="22.79" transform="translate(-301.95 233.19) rotate(-46.8)"/><path class="cls-13" d="M120.28,459.21l4.47-4.51"/><path d="M121.34,460.27l4.48-4.51a1.5,1.5,0,0,0-2.13-2.12l-4.47,4.5c-1.36,1.38.76,3.5,2.12,2.13Z"/><path class="cls-13" d="M118.39,457.25l4.47-4.5"/><path d="M119.45,458.31l4.47-4.5c1.36-1.37-.76-3.5-2.12-2.12l-4.48,4.5a1.5,1.5,0,0,0,2.13,2.12Z"/><path class="cls-13" d="M122.76,460.91l4.48-4.51"/><path d="M123.82,462l4.48-4.51a1.5,1.5,0,0,0-2.12-2.12l-4.48,4.51a1.5,1.5,0,0,0,2.12,2.12Z"/><ellipse cx="168.18" cy="243.54" rx="1.06" ry="1.2"/><ellipse cx="168.18" cy="247.3" rx="1.06" ry="1.2"/><ellipse cx="168.18" cy="251.06" rx="1.06" ry="1.2"/><ellipse cx="170.31" cy="325.41" rx="1.06" ry="1.2"/><ellipse cx="170.31" cy="329.17" rx="1.06" ry="1.2"/><ellipse cx="170.31" cy="332.93" rx="1.06" ry="1.2"/><path class="cls-14" d="M237.2,120.5l0,14.93a1.52,1.52,0,0,0,2.8.75,17,17,0,0,0,1.38-17.64c-.85-1.74-3.44-.22-2.59,1.51a14,14,0,0,1-1.38,14.62l2.79.76,0-14.93a1.5,1.5,0,0,0-3,0Z"/><path class="cls-14" d="M238.84,123.08l-.34,5.77c-.12,1.93,2.88,1.93,3,0l.34-5.77c.11-1.93-2.89-1.92-3,0Z"/><path class="cls-14" d="M241.12,119.23l-.3-.42c0-.07-.25-.47-.15-.16v.8l0-.12-.39.66.07-.07-.67.39.09,0H239l-.35-.19a1.5,1.5,0,1,0,2.12-2.13,2,2,0,0,0-3.18.1,4.64,4.64,0,0,0-.33,2.76,1.5,1.5,0,0,0,3,0c0-.32,0-.64,0-1,0-.13,0-.25,0-.38s0-.26,0-.12a.58.58,0,0,1-.21.43l-.67.39c-.78-.35-1-.39-.71-.09l2.12-2.13a1.76,1.76,0,0,0-2.81.21c-.56,1,0,1.81.58,2.58a1.54,1.54,0,0,0,2.05.54,1.53,1.53,0,0,0,.54-2.06Z"/><path class="cls-14" d="M95,121.46l0,14.93,2.8-.76A14,14,0,0,1,96.45,121c.85-1.72-1.73-3.25-2.59-1.51a17,17,0,0,0,1.39,17.65,1.51,1.51,0,0,0,2.79-.76l0-14.93a1.5,1.5,0,0,0-3,0Z"/><path class="cls-14" d="M93.39,124l.34,5.78c.11,1.92,3.11,1.93,3,0L96.39,124c-.12-1.92-3.12-1.93-3,0Z"/><path class="cls-14" d="M96.7,121.71c.53-.77,1.13-1.62.58-2.58a1.76,1.76,0,0,0-2.82-.2l2.12,2.12c.31-.29.07-.26-.71.09l-.66-.38L95,120.4c0-.18,0-.2,0-.05s0,.31,0,.47a7.71,7.71,0,0,1,0,1,1.51,1.51,0,0,0,1.5,1.5,1.54,1.54,0,0,0,1.5-1.5,4.57,4.57,0,0,0-.33-2.76,2,2,0,0,0-3.18-.09,1.5,1.5,0,1,0,2.12,2.12l-.35.19h-.8l.09,0-.66-.39.06.07-.39-.66,0,.12v-.8c.1-.3-.12.12-.15.17l-.29.42a1.5,1.5,0,0,0,.53,2,1.54,1.54,0,0,0,2.06-.54Z"/><path class="cls-15" d="M110.35,101.12c-5.86,45-1.24,80.47-1.81,124.51-12.71-39.77-18.65-61.94-7.63-104.46-6.12,35.73-18.57,86.6-20.81,119.54-10.63-43-6.75-73.16,7.74-117.86-13.22,58.91-18.42,64.84-45.28,114.88,9.28-37.08,19.5-79.84,30.19-116.25S95.37,38.06,126,19.89,196-2,223.48,22.47C238.94,36.21,246.34,48,257.62,72.3c21.14,45.5,16.48,136.61-12.28,179.28,9.64-44.19,17.07-120.46,1.28-160.7,14.91,47,.42,99.7-7.7,146.06-6-48.07,5.52-97.27-7.86-145.39,14.77,29.79,8.64,84.3-7.43,113.57,1.14-35.81,6.29-85.25-11.53-115.3-7-11.77-11.64-16-24.23-20.9-12.92-5.05-32.46-4.75-47.4.37C125.12,74.55,114.81,88,108.9,104.72"/><rect class="cls-16" x="259.13" y="324.45" width="21" height="44.24" rx="10.5" ry="10.5" transform="translate(174.27 -82.05) rotate(25.34)"/><rect class="cls-17" x="260.44" y="332.97" width="18.48" height="26.98" transform="translate(174.23 -82.08) rotate(25.34)"/><circle class="cls-18" cx="262.6" cy="361.4" r="2.41"/><circle class="cls-19" cx="262.6" cy="361.4" r="1.89"/><circle class="cls-18" cx="277.11" cy="330.59" r="0.47"/><circle cx="277.11" cy="330.59" r="0.37"/><path class="cls-12" d="M203,368c.47-2.49.93-4.89,1.37-7.14q1.81-9.14,2.93-18,1.32-10.36,1.77-20.34c0-1,.09-2,.12-3a243.79,243.79,0,0,0-13.64-89.07l-53.72.58c-9.49,25.35-11.1,57.08-10.23,88.48.47,16.61,1.62,33.08,2.68,48.52"/></g><g id="Sprite_2" data-name="Sprite 2"><rect class="cls-1" x="569.27" y="437.88" width="13.14" height="20.11" transform="translate(95.1 -100.82) rotate(10.9)"/><rect class="cls-1" x="452.78" y="420.62" width="13.14" height="20.11" transform="translate(575.31 -188.22) rotate(57.46)"/><ellipse class="cls-2" cx="514.72" cy="135.73" rx="68.33" ry="100.78"/><path class="cls-3" d="M509.84,114.66c0,14.67-8.07,26.57-18,26.57s-18-11.9-18-26.57A35.72,35.72,0,0,1,477,99.58c3.25-6.94,8.7-11.49,14.85-11.49s11.6,4.55,14.86,11.49A35.72,35.72,0,0,1,509.84,114.66Z"/><ellipse class="cls-4" cx="540.62" cy="114.66" rx="18.04" ry="26.57"/><path class="cls-4" d="M535.91,174.19c0,1.33-.06,2.64-.18,3.91-.08.81-.17,1.61-.29,2.39s-.28,1.61-.45,2.39a29.15,29.15,0,0,1-2.73,7.62,20.4,20.4,0,0,1-1.2,2c-2.1,3-4.74,4.79-7.59,4.79H506.2c-2.85,0-5.48-1.79-7.58-4.79a27,27,0,0,1-3.92-9.58c-.17-.77-.32-1.57-.44-2.39s-.22-1.58-.29-2.39c-.11-1.25-.17-2.53-.17-3.84v-1.43h41.37C535.58,172.83,535.91,173.44,535.91,174.19Z"/><ellipse cx="491.8" cy="124.24" rx="11.67" ry="17.19"/><ellipse cx="540.62" cy="124.24" rx="11.67" ry="17.19"/><ellipse class="cls-3" cx="490.11" cy="119.93" rx="2.76" ry="4.06"/><ellipse class="cls-3" cx="538.07" cy="118.97" rx="2.76" ry="4.06"/><path class="cls-5" d="M514.49,137.6A119.44,119.44,0,0,0,503,159.29c-.5,1.23,1.17,2.36,2.2,1.7a12.88,12.88,0,0,1,13.63-.69c1.71.9,3.23-1.69,1.52-2.59a15.94,15.94,0,0,0-16.66.69l2.2,1.69a115.68,115.68,0,0,1,11.2-21c1.08-1.61-1.52-3.11-2.59-1.52Z"/><path class="cls-2" d="M447.86,114.08c-1.08-3.49-5.47-5.11-8.79-3.79s-5.44,4.88-6,8.51.32,7.31,1.48,10.78a57.55,57.55,0,0,0,12.86,21.35l1.27-37.24"/><path class="cls-2" d="M581.1,114.08c1.08-3.49,5.47-5.11,8.79-3.79s5.44,4.88,6,8.51-.32,7.31-1.48,10.78a57.55,57.55,0,0,1-12.86,21.35l-1.27-37.24"/><path class="cls-6" d="M535.73,178.1c-.08.81-.17,1.61-.29,2.39s-.28,1.61-.45,2.39a29.15,29.15,0,0,1-2.73,7.62,20.4,20.4,0,0,1-1.2,2H498.62a27,27,0,0,1-3.92-9.58c-.17-.77-.32-1.57-.44-2.39s-.22-1.58-.29-2.39Z"/><path class="cls-7" d="M520.92,192.46H508c.15-2.93,3-5.27,6.45-5.27S520.77,189.53,520.92,192.46Z"/><path class="cls-8" d="M533.22,335.25V337c0,3.21-2.33,5.83-5.17,5.83H509.41c-2.85,0-5.17-2.62-5.17-5.83v-1.72c0-3.2,2.32-5.82,5.17-5.82h18.64C530.89,329.43,533.22,332.05,533.22,335.25Z"/><path class="cls-9" d="M550.18,357.93c-.42,1.39-.25.89-.73,2.62s.22,1.05-.63,4.32,1.51,3.13-1.06,9.28,3.92-4.84-4.37,13.29-47.42,45.5-74.14,48.8c-5.68-3.14-6.83-11.25-10.37-16.73,2.67-1.65,5.21-3.17,8-4.61l1.09-.53c16.83-8,34.05-16.29,46.86-29.95,3.69-3.92,4.6-8,5.87-12.84.39-1.52-.21-2.94-.3-4.42a10.86,10.86,0,0,0-.33-1.36c-.07-.38-.22-.79-.27-1s0-.09-.06-.21,0,.1,0-.05-.09-.31-.16-.57-.19-.72-.26-1.08a12.3,12.3,0,0,1-.32-2.79c0-.38,0-.71,0-1.15s.08-1.06.14-1.52c10.27,0,20.51.18,30.78.59C550,358,550.11,358.08,550.18,357.93Z"/><path d="M528.49,321.26c.25,13.52,9.44,26,23.81,25.82a1.5,1.5,0,0,0,0-3c-12.69.2-20.59-10.95-20.81-22.82,0-1.92-3-1.93-3,0Z"/><path class="cls-10" d="M510.06,353.28c.3.29.72.66,1,.92s.49.46.74.69a24.06,24.06,0,0,0,2.65,2.21c.4.28,1,.62,1.31.82s.5.32.67.42l.26.17c.72.42,1.11.6,1.89,1s1.55.88,2.46,1.43,2,1.12,3.05,1.74c2,1.15,4.54,2.47,6.64,3.7,9.38,5.49,22.85,11.54,31.13,17.06,11,7.35,18.69,13.41,24.75,24,5.51,9.64,1.27,18.39,1,28.47,0,.46-.21.93-.24,1.31-.3,3.11-.85,6.08-1.15,9.16-6.71-.84-13.55-1.64-20.18-2.41-.28-9.48,5.72-17.28-.73-26.17-4.29-5.91-13.7-7.63-20.18-12.13-1-.68-3.1-1.51-5.13-2.7-21.5-12.61-42.5-27.71-59.28-46.66,0-.12,0-.09.16-.15a1.83,1.83,0,0,1,.42-.22C490.87,354.22,500.53,355.63,510.06,353.28Z"/><path d="M522.75,362.62a1.5,1.5,0,0,0,0-3,1.5,1.5,0,0,0,0,3Z"/><path d="M513.71,351.73a4.13,4.13,0,0,1,.61.13s.44.17.2.06a4.22,4.22,0,0,1,.9.56,1.5,1.5,0,0,0,1.52-2.59,5.39,5.39,0,0,0-2.43-1.05,1.54,1.54,0,0,0-1.85,1.05,1.52,1.52,0,0,0,1.05,1.84Z"/><path class="cls-11" d="M541.87,254.8c8.43,39.05,21.53,73.71,52.87,100,1.76-1.83,3.52-3.66,5.25-5.52-26.07-25.6-39.34-56.63-46.87-92-.69-3.24-1.9-5.14-4.94-6.38s-4.12,1.43-4.34,4"/><path class="cls-2" d="M609,355.72c-2.6-3-5.4-5.86-8.24-8.67-.72-.71-1.54-1.37-2.32-2.15-.4-.4-1.14-1.27-1.75-1.38s-.44.26-.71.59-.36.52-.64.91-.63.94-1,1.4l-2.18,3.19c-.35.51-.76,1.1-1,1.52s-.45.62-.66,1-.51.38-.38.82.61.64,1,1l1.09,1,2.3,2.09,4.57,4.15a9.07,9.07,0,0,0,1.7,1.24c.57.31,1.11.32,1.29-.3s-.25-1-.59-1.5c-1.55-2.26-3.19-4.5-4.77-6.74,2.48,2.63,5,5.3,7.48,7.92a6.46,6.46,0,0,0,1.5,1.33c.58.3,1.12.92,1.52,0s0-1.61-.65-2.48c-2.07-2.91-4.37-5.94-6.69-8.73a105.75,105.75,0,0,0,7.22,7.73c1,.94,1.93,1.89,3.3,1.73s1.3-1.21.82-2.35A12.61,12.61,0,0,0,609,355.72Z"/><path class="cls-12" d="M482.06,255.43c-12,14.12-23.54,21.89-31.87,39.79-7.29,15.62-10.49,37.39-11.9,55.31,4,.06,8-.26,12-.58,2-15.79,5.66-34.94,11-49.06S473.91,280.27,482.2,269a53.58,53.58,0,0,0,8.07-15.32c-3,.69-6.13,1.42-9.18,2.13"/><path class="cls-2" d="M447.19,367.59a125.09,125.09,0,0,0,3.26-13.82c.21-1.19.41-2.37.58-3.56.09-.61.58-2.66.35-3.1-.13-.27-.78-.15-1-.17l-1-.11-2-.22-4.38-.47-2.19-.23-1.14-.12c-.18,0-.8-.26-.95-.06a6.45,6.45,0,0,0-.3,1.66l-.29,1.75-.6,3.66-1.19,7.3a8.72,8.72,0,0,0-.17,2.62c.12.82.61,1.46,1.15,1.18a3.14,3.14,0,0,0,1-1.6l3.47-9-3,12.55a11.29,11.29,0,0,0-.39,2.43c0,.8.24,1.6.69,1.79.75.32,1.53-1,2-2.14a84.37,84.37,0,0,0,4.35-12.43,79.17,79.17,0,0,0-3.07,12.29c-.27,1.66-.45,3.61.22,4.66s1.94.61,2.79-.51A13.71,13.71,0,0,0,447.19,367.59Z"/><ellipse class="cls-13" cx="579.14" cy="465.33" rx="14.84" ry="22.79" transform="translate(-18.79 906.26) rotate(-75.19)"/><path class="cls-13" d="M579.06,460l2.49-5.84"/><path d="M580.36,460.78l2.48-5.84a1.55,1.55,0,0,0-.53-2.05,1.51,1.51,0,0,0-2.06.54l-2.49,5.84a1.56,1.56,0,0,0,.54,2.05,1.51,1.51,0,0,0,2.06-.54Z"/><path class="cls-13" d="M576.42,458.91l2.49-5.84"/><path d="M577.72,459.67l2.49-5.84a1.56,1.56,0,0,0-.54-2.05,1.5,1.5,0,0,0-2,.53l-2.49,5.85a1.55,1.55,0,0,0,.53,2,1.53,1.53,0,0,0,2.06-.54Z"/><path class="cls-13" d="M581.84,460.69l2.49-5.84"/><path d="M583.13,461.45l2.49-5.85a1.56,1.56,0,0,0-.53-2.05,1.53,1.53,0,0,0-2.06.54l-2.49,5.84a1.56,1.56,0,0,0,.54,2.05,1.5,1.5,0,0,0,2-.53Z"/><ellipse class="cls-13" cx="448.35" cy="445.76" rx="14.84" ry="22.79" transform="translate(-94.48 121.64) rotate(-13.99)"/><path class="cls-13" d="M452,440.29l5.63-2.94"/><path d="M452.72,441.59l5.63-2.95c1.71-.89.19-3.48-1.52-2.59L451.21,439c-1.71.89-.2,3.48,1.51,2.59Z"/><path class="cls-13" d="M450.75,437.86l5.62-2.95"/><path d="M451.51,439.15l5.62-2.94c1.71-.9.2-3.49-1.51-2.59L450,436.56c-1.71.9-.19,3.49,1.52,2.59Z"/><path class="cls-13" d="M453.82,442.66l5.62-2.94"/><path d="M454.57,444,460.2,441c1.71-.89.2-3.48-1.51-2.59l-5.63,2.95c-1.71.89-.2,3.48,1.51,2.59Z"/><ellipse cx="515.15" cy="243.04" rx="1.06" ry="1.2"/><ellipse cx="515.15" cy="246.8" rx="1.06" ry="1.2"/><ellipse cx="515.15" cy="250.56" rx="1.06" ry="1.2"/><ellipse cx="517.29" cy="324.91" rx="1.06" ry="1.2"/><ellipse cx="517.29" cy="328.67" rx="1.06" ry="1.2"/><ellipse cx="517.29" cy="332.43" rx="1.06" ry="1.2"/><path class="cls-14" d="M584.17,120l0,14.92a1.52,1.52,0,0,0,2.8.76A17,17,0,0,0,588.33,118c-.85-1.73-3.44-.21-2.59,1.52a14,14,0,0,1-1.38,14.62l2.79.75,0-14.92a1.5,1.5,0,0,0-3,0Z"/><path class="cls-14" d="M585.81,122.58l-.34,5.77c-.12,1.93,2.89,1.93,3,0l.34-5.77c.11-1.93-2.89-1.92-3,0Z"/><path class="cls-14" d="M588.09,118.73l-.3-.42c0-.07-.25-.47-.15-.16v.8l0-.13-.39.67.07-.07-.66.38.08,0H586l-.35-.2a1.5,1.5,0,1,0,2.12-2.12,2,2,0,0,0-3.19.09,4.76,4.76,0,0,0-.33,2.77,1.54,1.54,0,0,0,1.5,1.5,1.52,1.52,0,0,0,1.5-1.5c0-.32,0-.64,0-1,0-.13,0-.26,0-.38s0-.26,0-.12a.59.59,0,0,1-.21.43l-.66.39c-.79-.36-1-.39-.71-.1l2.12-2.12a1.76,1.76,0,0,0-2.82.21c-.56,1,0,1.81.58,2.58a1.53,1.53,0,0,0,2,.53,1.51,1.51,0,0,0,.54-2Z"/><path class="cls-14" d="M442,121l0,14.93,2.8-.76a14,14,0,0,1-1.38-14.62c.84-1.72-1.74-3.25-2.59-1.51a17,17,0,0,0,1.38,17.64,1.51,1.51,0,0,0,2.79-.75L445,121a1.5,1.5,0,0,0-3,0Z"/><path class="cls-14" d="M440.36,123.54l.34,5.78c.11,1.92,3.11,1.93,3,0l-.34-5.78c-.11-1.92-3.11-1.93-3,0Z"/><path class="cls-14" d="M443.67,121.21c.53-.77,1.13-1.63.58-2.58a1.76,1.76,0,0,0-2.82-.2l2.12,2.12c.31-.29.07-.26-.71.09l-.66-.38-.21-.37c0-.17,0-.19,0,0s0,.32,0,.48a7.71,7.71,0,0,1,0,1,1.51,1.51,0,0,0,1.5,1.5,1.53,1.53,0,0,0,1.5-1.5,4.57,4.57,0,0,0-.33-2.76,2,2,0,0,0-3.18-.09,1.5,1.5,0,1,0,2.12,2.12l-.35.19h-.8l.09,0-.66-.39.06.07-.38-.66v-.68c.1-.3-.12.12-.15.16l-.29.43a1.51,1.51,0,0,0,.54,2,1.53,1.53,0,0,0,2.05-.54Z"/><path class="cls-15" d="M457.32,100.62c-5.85,45-1.24,80.47-1.8,124.51-12.71-39.77-18.66-61.94-7.63-104.47-6.13,35.73-18.58,86.61-20.82,119.55-10.63-43-6.75-73.16,7.75-117.87-13.23,58.92-18.43,64.85-45.29,114.89,9.28-37.08,19.5-79.84,30.19-116.25s22.62-83.42,53.21-101.59,70-21.88,97.53,2.58c15.45,13.74,22.85,25.54,34.13,49.83,21.14,45.5,16.48,136.61-12.28,179.28,9.64-44.19,17.07-120.46,1.28-160.7,14.91,47,.42,99.7-7.7,146.06-6-48.07,5.52-97.27-7.86-145.39,14.77,29.79,8.64,84.3-7.43,113.57,1.14-35.81,6.29-85.25-11.53-115.3-7-11.77-11.64-16-24.22-20.9-12.93-5.05-32.47-4.76-47.41.37-15.35,5.26-25.66,18.69-31.57,35.43"/><rect class="cls-16" x="594.1" y="335.95" width="21" height="44.24" rx="10.5" ry="10.5" transform="translate(301.56 -275.9) rotate(33.82)"/><rect class="cls-17" x="595.43" y="344.47" width="18.48" height="26.98" transform="translate(301.51 -275.96) rotate(33.82)"/><circle class="cls-18" cx="595.46" cy="371.71" r="2.41"/><circle class="cls-19" cx="595.46" cy="371.71" r="1.89"/><circle class="cls-18" cx="614.36" cy="343.37" r="0.47"/><circle cx="614.36" cy="343.37" r="0.37"/><path class="cls-12" d="M549.92,367.5c.47-2.49.93-4.89,1.38-7.14q1.8-9.14,2.92-18Q555.54,332,556,322q.07-1.51.12-3a243.54,243.54,0,0,0-13.64-89.07l-53.72.58c-9.48,25.35-11.1,57.07-10.23,88.48.47,16.6,1.63,33.08,2.69,48.52"/></g><g id="Sprite_3" data-name="Sprite 3"><rect class="cls-1" x="820.68" y="406.1" width="13.14" height="20.11" transform="translate(1211.68 -426.3) rotate(87.82)"/><path class="cls-9" d="M909.06,358.25c-.33,1.42-.41.92-.75,2.68a32.15,32.15,0,0,0-.86,4.12c-.48,3.32,0,.86-.81,7.9s0-5.05-.18,14.73S862,434.15,834.18,423.46c-4.52-3.19-4.15-11.84-5.85-17.77,3-1,6-1.78,9-2.54.33-.09,1-.19,1.21-.23,10.1-1.45,42.6-5.65,44.47-17.8.54-3.5-2.54-7.67-2.24-11.68.1-1.25-.66-3.59-.84-5-.06-.45-.32-1.13-.4-1.52s-.26-.85-.32-1.1a2.68,2.68,0,0,0-.09-.27c0-.16,0,.15,0-.07s-.11-.35-.2-.64-.24-.75-.36-1.11a12,12,0,0,1-.69-2.78,9.16,9.16,0,0,0-.12-1.15c-.09-.41-.17-.92-.22-1.35,10.58-1.27,20.71-.51,31.31-.06C908.9,358.38,909,358.44,909.06,358.25Z"/><ellipse class="cls-13" cx="810.13" cy="423.61" rx="22.79" ry="14.84" transform="translate(175.34 1081.48) rotate(-73.63)"/><path class="cls-13" d="M816,420.71l6.35.31"/><path d="M816,422.21l6.35.31c1.93.09,1.92-2.91,0-3l-6.35-.31c-1.93-.09-1.92,2.91,0,3Z"/><path class="cls-13" d="M816.19,418l6.35.3"/><path d="M816.19,419.5l6.35.3c1.93.09,1.92-2.91,0-3l-6.35-.3c-1.93-.09-1.92,2.91,0,3Z"/><path class="cls-13" d="M816.41,423.7l6.35.3"/><path d="M816.41,425.2l6.35.3c1.93.09,1.92-2.91,0-3l-6.35-.3c-1.93-.1-1.92,2.91,0,3Z"/><rect class="cls-1" x="858.96" y="444.14" width="13.14" height="20.11" transform="translate(-46.85 103.49) rotate(-6.66)"/><ellipse class="cls-13" cx="875.56" cy="473.43" rx="22.79" ry="14.84" transform="translate(-21.72 42.58) rotate(-2.75)"/><path class="cls-13" d="M874.26,467l-.13-6.35"/><path d="M875.76,467l-.13-6.35c0-1.93-3-1.94-3,0l.13,6.35c0,1.93,3,1.93,3,0Z"/><path class="cls-13" d="M871.54,467l-.13-6.35"/><path d="M873,467l-.13-6.35c0-1.93-3-1.93-3,0L870,467c0,1.93,3,1.93,3,0Z"/><path class="cls-13" d="M877.21,466.41l-.13-6.35"/><path d="M878.71,466.41l-.13-6.35c0-1.93-3-1.94-3,0l.13,6.35c0,1.93,3,1.93,3,0Z"/><path class="cls-10" d="M870.51,352c0,.37.1.88.14,1.21s.06.57.1.85c.1,1,.14,2,.2,2.93,0,.42,0,1,.07,1.28s.1.51.12.67,0,.18,0,.24c0,.6.06,1,.09,1.59s0,1.2,0,1.93.07,1.51.14,2.36c.12,1.55,0,3.2.19,4.82.62,7.26.16,14.91-.15,22.08a256.31,256.31,0,0,0,.72,28c.57,8.61,1.69,17.23,2.35,25.82,0,.39,0,.69.07,1,.29,2.54.52,5,.64,7.53-6.79.35-13.59.6-20.4.94-2.74-11.9-4.66-23.55-7.21-35.58-1.69-8-2.8-16.55-3.69-24.74a20.76,20.76,0,0,1-.23-3.78c1-13.21-2.53-25.18-3.64-38.23h.2c.13,0,.3,0,.47,0C850.7,352.79,860.6,352.76,870.51,352Z"/><path d="M872.14,365.16a1.5,1.5,0,0,0,0-3,1.5,1.5,0,0,0,0,3Z"/><path d="M874.67,354.19c.28.3,0-.14.15.19,0,0,.2.42.1.15,0,.13.08.26.11.4s.07.46,0,.17a1.5,1.5,0,0,0,3,0,5.07,5.07,0,0,0-1.27-3,1.5,1.5,0,1,0-2.13,2.12Z"/><ellipse class="cls-2" cx="873.76" cy="136.01" rx="68.33" ry="100.78"/><path class="cls-3" d="M868.87,115c0,14.67-8.07,26.57-18,26.57s-18-11.9-18-26.57A35.72,35.72,0,0,1,836,99.87c3.25-6.94,8.7-11.49,14.86-11.49s11.6,4.55,14.85,11.49A35.72,35.72,0,0,1,868.87,115Z"/><ellipse class="cls-4" cx="899.65" cy="114.95" rx="18.04" ry="26.57"/><path class="cls-4" d="M894.94,174.48c0,1.33-.06,2.64-.18,3.91-.07.81-.17,1.6-.29,2.39s-.28,1.61-.45,2.39a29.52,29.52,0,0,1-2.72,7.62,20.44,20.44,0,0,1-1.21,2c-2.1,3-4.74,4.79-7.59,4.79H865.23c-2.85,0-5.48-1.79-7.57-4.79a26.79,26.79,0,0,1-3.93-9.58c-.17-.77-.32-1.57-.44-2.39s-.22-1.58-.29-2.39c-.11-1.25-.17-2.53-.17-3.84v-1.43h41.38C894.61,173.12,894.94,173.73,894.94,174.48Z"/><ellipse cx="850.84" cy="124.52" rx="11.67" ry="17.19"/><ellipse cx="899.65" cy="124.52" rx="11.67" ry="17.19"/><ellipse class="cls-3" cx="849.14" cy="120.21" rx="2.76" ry="4.06"/><ellipse class="cls-3" cx="897.1" cy="119.26" rx="2.76" ry="4.06"/><path class="cls-5" d="M873.52,137.89A119.44,119.44,0,0,0,862,159.58c-.5,1.23,1.17,2.36,2.2,1.69a12.9,12.9,0,0,1,13.63-.68c1.71.9,3.23-1.69,1.52-2.59a15.92,15.92,0,0,0-16.66.68l2.2,1.7a115.35,115.35,0,0,1,11.2-21c1.08-1.61-1.51-3.11-2.59-1.52Z"/><path class="cls-2" d="M806.89,114.37c-1.08-3.49-5.47-5.11-8.78-3.79s-5.45,4.88-6,8.5.32,7.32,1.48,10.79a57.55,57.55,0,0,0,12.86,21.35L807.75,114"/><path class="cls-2" d="M940.13,114.37c1.08-3.49,5.47-5.11,8.79-3.79s5.44,4.88,6,8.5-.32,7.32-1.48,10.79a57.55,57.55,0,0,1-12.86,21.35L939.27,114"/><path class="cls-6" d="M894.76,178.39c-.07.81-.17,1.6-.29,2.39s-.28,1.61-.45,2.39a29.52,29.52,0,0,1-2.72,7.62,20.44,20.44,0,0,1-1.21,2H857.66a26.79,26.79,0,0,1-3.93-9.58c-.17-.77-.32-1.57-.44-2.39s-.22-1.58-.29-2.39Z"/><path class="cls-7" d="M880,192.75H867c.15-2.93,3-5.27,6.46-5.27S879.8,189.82,880,192.75Z"/><path class="cls-8" d="M892.25,335.54v1.72c0,3.2-2.32,5.82-5.17,5.82H868.44c-2.85,0-5.17-2.62-5.17-5.82v-1.72c0-3.21,2.32-5.83,5.17-5.83h18.64C889.93,329.71,892.25,332.33,892.25,335.54Z"/><path d="M887.52,321.55c.25,13.52,9.44,26,23.81,25.82,1.93,0,1.93-3,0-3-12.69.2-20.59-10.95-20.81-22.82,0-1.93-3-1.93-3,0Z"/><path class="cls-12" d="M837.73,256.77c-2.36,17.12-7.15,30.56-5.19,48.55,1.72,15.7,8.64,33.85,14.69,49a91.7,91.7,0,0,0,10.49-5.84C853,334.72,847.59,318.05,845,304.35s-.58-23.2.07-36.41a64.11,64.11,0,0,0-1.17-16.8c-2.26,2.14-4.51,4.35-6.76,6.52"/><ellipse cx="874.18" cy="243.33" rx="1.06" ry="1.2"/><ellipse cx="874.18" cy="247.09" rx="1.06" ry="1.2"/><ellipse cx="874.18" cy="250.85" rx="1.06" ry="1.2"/><ellipse cx="876.32" cy="325.2" rx="1.06" ry="1.2"/><ellipse cx="876.32" cy="328.96" rx="1.06" ry="1.2"/><ellipse cx="876.32" cy="332.72" rx="1.06" ry="1.2"/><path class="cls-14" d="M943.2,120.29l0,14.92a1.52,1.52,0,0,0,2.8.76,17,17,0,0,0,1.38-17.65c-.85-1.73-3.44-.21-2.59,1.52a14,14,0,0,1-1.38,14.62l2.79.75,0-14.92a1.5,1.5,0,0,0-3,0Z"/><path class="cls-14" d="M944.84,122.87l-.34,5.77c-.11,1.93,2.89,1.92,3,0l.34-5.77c.11-1.93-2.89-1.93-3,0Z"/><path class="cls-14" d="M947.12,119l-.29-.42c-.05-.07-.26-.47-.16-.16v.79l0-.12-.38.66.06-.06-.66.38.08,0H945l-.35-.2a1.5,1.5,0,1,0,2.12-2.12,2,2,0,0,0-3.19.09,4.74,4.74,0,0,0-.33,2.76,1.53,1.53,0,0,0,1.5,1.5,1.5,1.5,0,0,0,1.5-1.5c0-.31,0-.63,0-.95,0-.13,0-.26,0-.38s0-.26,0-.12a.6.6,0,0,1-.22.43l-.66.39c-.79-.36-1-.39-.71-.1l2.12-2.12A1.76,1.76,0,0,0,944,118c-.56,1,0,1.81.58,2.57a1.52,1.52,0,0,0,2.05.54,1.5,1.5,0,0,0,.54-2Z"/><path class="cls-14" d="M801,121.25v14.93l2.8-.76a14,14,0,0,1-1.38-14.62c.85-1.73-1.74-3.25-2.59-1.51a17,17,0,0,0,1.38,17.64,1.51,1.51,0,0,0,2.79-.75V121.25a1.5,1.5,0,0,0-3,0Z"/><path class="cls-14" d="M799.39,123.83l.34,5.77c.11,1.92,3.11,1.94,3,0l-.34-5.77c-.11-1.92-3.11-1.93-3,0Z"/><path class="cls-14" d="M802.7,121.5c.53-.77,1.14-1.63.58-2.58a1.76,1.76,0,0,0-2.82-.2l2.12,2.12c.31-.29.08-.26-.71.09l-.66-.39-.21-.36c0-.17,0-.19,0-.05s0,.32,0,.48a7.71,7.71,0,0,1,0,1,1.5,1.5,0,0,0,3,0,4.64,4.64,0,0,0-.32-2.76,2,2,0,0,0-3.19-.09,1.5,1.5,0,1,0,2.12,2.12l-.35.19h-.8l.09,0-.66-.39.06.07-.38-.66,0,.12v-.8c.09-.3-.12.11-.16.16l-.29.42a1.52,1.52,0,0,0,.54,2.06,1.54,1.54,0,0,0,2.05-.54Z"/><path class="cls-15" d="M816.35,100.91c-5.85,45-1.24,80.47-1.8,124.51-12.71-39.77-18.66-61.94-7.63-104.47-6.13,35.73-18.58,86.61-20.82,119.54-10.63-43-6.75-73.15,7.75-117.86-13.23,58.92-18.43,64.85-45.29,114.89,9.29-37.08,19.5-79.84,30.19-116.25S801.37,37.85,832,19.68s70-21.88,97.52,2.58C944.94,36,952.34,47.79,963.62,72.09c21.14,45.5,16.49,136.6-12.28,179.27,9.64-44.18,17.07-120.45,1.29-160.69,14.9,47,.42,99.7-7.71,146.06-5.95-48.07,5.52-97.27-7.86-145.39,14.77,29.79,8.64,84.3-7.43,113.57,1.14-35.81,6.29-85.25-11.53-115.3-7-11.77-11.64-16-24.22-20.9-12.93-5-32.47-4.76-47.4.36-15.35,5.27-25.67,18.69-31.58,35.44"/><path class="cls-12" d="M909,367.79c.47-2.49.93-4.89,1.38-7.14q1.8-9.15,2.93-18,1.32-10.36,1.76-20.35c.06-1,.09-2,.12-3a243.54,243.54,0,0,0-13.64-89.07l-53.71.58c-9.49,25.35-11.11,57.07-10.24,88.48.47,16.6,1.63,33.08,2.69,48.52"/><path class="cls-2" d="M860.94,367.47a127.32,127.32,0,0,0-3.48-13.77c-.36-1.15-.74-2.29-1.13-3.43-.2-.57-.71-2.61-1.12-2.91-.24-.17-.75.24-1,.32l-1,.38-1.87.73-4.1,1.6-2,.8-1.07.42c-.17.06-.83.14-.88.39a7.28,7.28,0,0,0,.51,1.61l.55,1.69,1.16,3.52,2.3,7a8.88,8.88,0,0,0,1.06,2.4c.49.67,1.22,1,1.56.52a3.12,3.12,0,0,0,.14-1.87l-1.08-9.6,3.11,12.53a11.37,11.37,0,0,0,.77,2.33c.37.72,1,1.31,1.44,1.28.81-.06.9-1.58.83-2.85a85.22,85.22,0,0,0-1.87-13,77.09,77.09,0,0,0,2.94,12.32c.52,1.6,1.26,3.41,2.34,4s2-.35,2.24-1.74A13.77,13.77,0,0,0,860.94,367.47Z"/></g><g id="Sprite_4" data-name="Sprite 4"><rect class="cls-1" x="1176.26" y="436.7" width="20.11" height="13.14" transform="translate(125.21 1134.56) rotate(-53.57)"/><ellipse class="cls-13" cx="1180.5" cy="464.17" rx="14.84" ry="22.79" transform="translate(62.54 1063.52) rotate(-49.66)"/><path class="cls-13" d="M1183.94,458.6l4.25-4.73"/><path d="M1185,459.66l4.25-4.73c1.28-1.43-.83-3.56-2.12-2.12l-4.25,4.73c-1.29,1.43.83,3.56,2.12,2.12Z"/><path class="cls-13" d="M1182,456.74l4.25-4.72"/><path d="M1183,457.8l4.25-4.72c1.29-1.44-.83-3.56-2.12-2.12l-4.25,4.72c-1.29,1.43.83,3.56,2.12,2.12Z"/><path class="cls-13" d="M1186.51,460.17l4.24-4.72"/><path d="M1187.57,461.23l4.24-4.72c1.29-1.43-.83-3.56-2.12-2.12l-4.25,4.72c-1.28,1.43.83,3.56,2.13,2.12Z"/><rect class="cls-1" x="1249.13" y="421.56" width="13.14" height="20.11" transform="translate(912.52 -851.08) rotate(56.05)"/><ellipse class="cls-2" cx="1243.12" cy="135.35" rx="68.33" ry="100.78"/><path class="cls-3" d="M1238.24,114.28c0,14.68-8.08,26.57-18,26.57s-18-11.89-18-26.57a35.63,35.63,0,0,1,3.19-15.08c3.25-6.94,8.69-11.49,14.85-11.49s11.6,4.55,14.85,11.49A35.78,35.78,0,0,1,1238.24,114.28Z"/><ellipse class="cls-4" cx="1269.01" cy="114.28" rx="18.04" ry="26.57"/><path class="cls-4" d="M1264.3,173.81c0,1.33-.06,2.64-.18,3.91-.07.81-.17,1.61-.29,2.39s-.27,1.62-.44,2.4a29.58,29.58,0,0,1-2.73,7.61,18.61,18.61,0,0,1-1.21,2c-2.1,3-4.73,4.79-7.59,4.79h-17.27c-2.85,0-5.48-1.78-7.57-4.79a27,27,0,0,1-3.93-9.57c-.17-.78-.31-1.58-.44-2.4s-.21-1.58-.29-2.39c-.11-1.24-.17-2.53-.17-3.83v-1.44h41.38C1264,172.45,1264.3,173.06,1264.3,173.81Z"/><ellipse cx="1220.2" cy="123.86" rx="11.67" ry="17.19"/><ellipse cx="1269.01" cy="123.86" rx="11.67" ry="17.19"/><ellipse class="cls-3" cx="1218.5" cy="119.55" rx="2.76" ry="4.06"/><ellipse class="cls-3" cx="1266.46" cy="118.59" rx="2.76" ry="4.06"/><path class="cls-5" d="M1242.88,137.23a118.79,118.79,0,0,0-11.5,21.69c-.5,1.22,1.17,2.35,2.2,1.69a12.9,12.9,0,0,1,13.64-.69c1.7.9,3.22-1.68,1.51-2.59a16,16,0,0,0-16.66.69l2.2,1.69a115.68,115.68,0,0,1,11.2-21c1.09-1.61-1.51-3.11-2.59-1.51Z"/><path class="cls-2" d="M1176.26,113.7c-1.09-3.49-5.47-5.1-8.79-3.78s-5.44,4.87-6,8.5A23.58,23.58,0,0,0,1163,129.2a57.32,57.32,0,0,0,12.85,21.35l1.28-37.24"/><path class="cls-2" d="M1309.49,113.7c1.09-3.49,5.47-5.1,8.79-3.78s5.44,4.87,6,8.5-.32,7.32-1.48,10.78a57.45,57.45,0,0,1-12.85,21.35l-1.28-37.24"/><path class="cls-6" d="M1264.12,177.72c-.07.81-.17,1.61-.29,2.39s-.27,1.62-.44,2.4a29.58,29.58,0,0,1-2.73,7.61,18.61,18.61,0,0,1-1.21,2H1227a27,27,0,0,1-3.93-9.57c-.17-.78-.31-1.58-.44-2.4s-.21-1.58-.29-2.39Z"/><path class="cls-7" d="M1249.31,192.08h-12.9c.14-2.93,3-5.26,6.45-5.26S1249.16,189.15,1249.31,192.08Z"/><path class="cls-11" d="M1215.35,250.55c-32.58,37.2-38.48,67.15-7.18,108.28,2.15-1.39,4.27-2.79,6.42-4.2-22.52-35-24.19-62.61,5.49-93.32,2.72-2.82,2.69-4.42,2-7.8s-3.56-2.64-5.67-1.26"/><path class="cls-2" d="M1222.72,360.38c-2.31-3.12-4.8-6.21-7.35-9.21-.65-.76-1.4-1.46-2.1-2.3-.35-.42-1-1.35-1.59-1.49s-.45.24-.75.56-.39.5-.7.88-.7.92-1,1.37l-2.4,3.1-1.14,1.48c-.31.41-.5.6-.73.94s-.53.36-.44.8.55.69.85,1l1,1.06,2.07,2.23c1.38,1.48,2.78,3,4.14,4.45a8.48,8.48,0,0,0,1.57,1.35c.54.35,1.06.36,1.28-.24s-.16-1-.45-1.54c-1.34-2.37-2.76-4.72-4.12-7.08,2.22,2.81,4.44,5.64,6.67,8.42a5.8,5.8,0,0,0,1.37,1.42c.54.35,1,1,1.48.14s.09-1.64-.44-2.54c-1.78-3.06-3.77-6.25-5.82-9.2a100.82,100.82,0,0,0,6.42,8.2c.9,1,1.73,2,3.09,1.93s1.38-1.15,1-2.32A12.42,12.42,0,0,0,1222.72,360.38Z"/><path class="cls-12" d="M1270.93,262.77c6.36,19.64,12.64,43.07,21.52,61,7.77,15.68,16.17,24.3,25.41,37.9a68.48,68.48,0,0,1,8.65-8.32c-7.83-12.56-15.07-20.94-22.79-34.64s-14.46-33.06-20.67-48.43c-2.51-6.2-6.08-11.23-9.87-16.55-.94,3.12-1.85,6.21-2.76,9.32"/><path class="cls-2" d="M1334.68,363.61a124.65,124.65,0,0,0-8.11-11.65c-.74-.95-1.49-1.89-2.26-2.81-.39-.47-1.59-2.2-2.07-2.33-.29-.08-.63.48-.79.63l-.78.7-1.5,1.35-3.27,2.94-1.64,1.47-.85.77c-.14.12-.73.42-.68.67a6.51,6.51,0,0,0,1,1.33l1.11,1.39,2.32,2.88,4.64,5.77a8.62,8.62,0,0,0,1.83,1.88c.69.45,1.5.52,1.64-.07a3.15,3.15,0,0,0-.53-1.8l-4.39-8.6,7.33,10.63a10.23,10.23,0,0,0,1.54,1.91c.6.54,1.35.9,1.8.69.74-.34.29-1.8-.23-3a85.38,85.38,0,0,0-6.34-11.53,77.27,77.27,0,0,0,7.09,10.49c1.05,1.31,2.38,2.75,3.61,2.95s1.75-1,1.49-2.42A14,14,0,0,0,1334.68,363.61Z"/><ellipse class="cls-13" cx="1244.44" cy="450.17" rx="14.84" ry="22.79" transform="translate(-39.27 771.68) rotate(-33.95)"/><path class="cls-13" d="M1249.26,445.73l5.37-3.4"/><path d="M1250,447l5.37-3.39c1.62-1,.12-3.63-1.52-2.59l-5.36,3.39c-1.63,1-.13,3.63,1.51,2.59Z"/><path class="cls-13" d="M1247.85,443.4l5.37-3.39"/><path d="M1248.61,444.7l5.36-3.4c1.63-1,.13-3.63-1.51-2.59l-5.36,3.4c-1.63,1-.13,3.62,1.51,2.59Z"/><path class="cls-13" d="M1251.3,447.94l5.37-3.4"/><path d="M1252.06,449.23l5.37-3.39c1.62-1,.12-3.63-1.52-2.59l-5.36,3.39c-1.63,1-.13,3.63,1.51,2.59Z"/><ellipse cx="1243.54" cy="242.66" rx="1.06" ry="1.2"/><ellipse cx="1243.54" cy="246.42" rx="1.06" ry="1.2"/><ellipse cx="1243.54" cy="250.19" rx="1.06" ry="1.2"/><path class="cls-14" d="M1312.56,119.62v14.93a1.51,1.51,0,0,0,2.79.75,17,17,0,0,0,1.38-17.64c-.85-1.73-3.44-.22-2.59,1.51a14,14,0,0,1-1.38,14.62l2.8.76V119.62a1.5,1.5,0,0,0-3,0Z"/><path class="cls-14" d="M1314.2,122.2l-.34,5.78c-.11,1.92,2.89,1.92,3,0l.34-5.78c.11-1.93-2.89-1.92-3,0Z"/><path class="cls-14" d="M1316.48,118.36l-.29-.43c0-.06-.26-.47-.16-.16v.8l0-.12-.38.66.06-.07-.66.39.09,0h-.8l-.35-.19a1.5,1.5,0,1,0,2.12-2.12,2,2,0,0,0-3.19.09,4.64,4.64,0,0,0-.32,2.76,1.5,1.5,0,1,0,3,0,7.71,7.71,0,0,1,0-1c0-.12,0-.25,0-.38s0-.25,0-.12a.59.59,0,0,1-.22.43l-.66.39c-.78-.35-1-.38-.71-.09l2.12-2.12a1.76,1.76,0,0,0-2.82.2c-.56,1,0,1.81.58,2.58a1.55,1.55,0,0,0,2,.54,1.51,1.51,0,0,0,.54-2Z"/><path class="cls-14" d="M1170.39,120.58l0,14.93,2.79-.76a14,14,0,0,1-1.38-14.61c.85-1.73-1.74-3.25-2.59-1.52a17,17,0,0,0,1.38,17.65,1.52,1.52,0,0,0,2.8-.76l0-14.93a1.5,1.5,0,0,0-3,0Z"/><path class="cls-14" d="M1168.75,123.16l.34,5.78c.11,1.92,3.12,1.93,3,0l-.34-5.78c-.11-1.92-3.11-1.93-3,0Z"/><path class="cls-14" d="M1172.06,120.83c.54-.76,1.14-1.62.58-2.57a1.75,1.75,0,0,0-2.82-.21l2.12,2.12c.31-.29.08-.26-.71.09l-.66-.38-.21-.36c0-.18,0-.2,0,0s0,.32,0,.48c0,.32,0,.63,0,1a1.5,1.5,0,0,0,1.5,1.5,1.54,1.54,0,0,0,1.5-1.5,4.73,4.73,0,0,0-.33-2.76,2,2,0,0,0-3.19-.09,1.54,1.54,0,0,0,0,2.12,1.52,1.52,0,0,0,2.12,0l-.35.19h-.79l.08,0-.66-.38.07.06-.39-.66,0,.12v-.79c.1-.3-.12.11-.16.16l-.29.42a1.5,1.5,0,1,0,2.59,1.51Z"/><path class="cls-15" d="M1185.71,100.25c-5.85,45-1.24,80.47-1.8,124.5-12.71-39.77-18.65-61.93-7.63-104.46-6.13,35.73-18.57,86.6-20.81,119.54-10.63-43-6.76-73.16,7.74-117.86-13.23,58.92-18.43,64.84-45.29,114.88,9.29-37.08,19.5-79.84,30.19-116.24S1170.74,37.19,1201.33,19s70-21.89,97.52,2.58c15.45,13.73,22.85,25.53,34.14,49.82,21.13,45.5,16.48,136.61-12.28,179.28,9.63-44.19,17.06-120.46,1.28-160.7,14.9,47,.42,99.7-7.7,146.06-6-48.07,5.52-97.27-7.86-145.39,14.76,29.79,8.63,84.3-7.43,113.57,1.13-35.8,6.29-85.25-11.53-115.3-7-11.76-11.65-16-24.23-20.9-12.93-5.05-32.47-4.75-47.4.37-15.35,5.26-25.67,18.69-31.57,35.43"/><rect class="cls-16" x="1209.25" y="337.23" width="21" height="44.24" rx="10.5" ry="10.5" transform="matrix(0.8, 0.59, -0.59, 0.8, 451.76, -654.11)"/><rect class="cls-17" x="1210.59" y="345.77" width="18.48" height="26.98" transform="translate(451.71 -654.18) rotate(36.43)"/><circle class="cls-18" cx="1210.01" cy="372.56" r="2.41"/><circle class="cls-19" cx="1210.01" cy="372.56" r="1.89"/><circle class="cls-18" cx="1230.18" cy="345.12" r="0.47"/><circle cx="1230.18" cy="345.12" r="0.37"/><path class="cls-10" d="M1242.6,347.91c-.06.36-.15.84-.21,1.17s-.11.63-.17.91c-.2.94-.41,1.93-.54,2.84-.06.4-.14.83-.18,1.12a4.07,4.07,0,0,0,0,.67,2.76,2.76,0,0,1,0,.28c-.07.47-.12.78-.21,1.24s-.19.85-.3,1.36-.14.77-.27,1.37c-.23,1.1-.21.79-.5,2.17-1.28,6.16-.36,7-3.14,14.53-3.69,10.08-8.7,23.07-14.84,34.62a246,246,0,0,1-22.65,33.88c-.36.45-.76.93-.93,1.16-1.39,1.82-2.6,3.44-4,5.18-5.41-4.24-10.84-8.41-15.85-13.13,8.19-13.17,17.23-26.89,23.08-41,3.89-9.4,6.07-18.18,8.62-27.41.39-1.39.49-2.27.66-3,1.76-7.34.62-13.88.73-21.15a.61.61,0,0,0,.25.06,4.5,4.5,0,0,0,.45.06A237.83,237.83,0,0,1,1242.6,347.91Z"/><path d="M1241.55,359.85a1.5,1.5,0,0,0,0-3,1.5,1.5,0,0,0,0,3Z"/><path d="M1246,351.41a4,4,0,0,1,.15,1.7,1.52,1.52,0,0,0,1.5,1.5,1.54,1.54,0,0,0,1.5-1.5,6.82,6.82,0,0,0-.26-2.5,1.5,1.5,0,0,0-2.89.8Z"/><path class="cls-9" d="M1276.12,352.83c.17,1.41-.25,1.14,0,2.86s-.18,1.5.52,4.42.73,1.46,2.45,7.24,3.14,4.23,4.71,17.57,6,49.32-20.89,52.49c-6.41-.86-10.23-7.1-15-11.19a70.61,70.61,0,0,1,5.5-6.09c.21-.22.44-.13.7-.4,11.51-12,7.19-17.9,4.34-33.76-.82-4.56-3.32-10.64-5.55-15.31-.7-1.46-1.9-3.65-2.75-5.18-.28-.49-.71-1.3-1-1.74l-.68-1.26c-.16-.29-.1-.2-.2-.39s.1.2,0-.08l-.39-.78c-.17-.34-.44-.87-.62-1.27a27.3,27.3,0,0,1-1.22-3.1c-.14-.43-.21-.78-.34-1.23s-.25-1-.35-1.5c10.41-1.53,20.3-.46,30.7-1.08C1276.05,353.05,1276.21,353,1276.12,352.83Z"/><path class="cls-12" d="M1279.31,364.89c.48-2.49.93-4.89,1.38-7.14q1.8-9.15,2.93-18,1.32-10.37,1.77-20.35c0-1,.08-2,.12-3a244,244,0,0,0-13.64-89.07l-53.72.58c-9.49,25.35-11.1,57.07-10.23,88.48.46,16.6,1.62,33.08,2.68,48.52"/></g><g id="Sprite_5" data-name="Sprite 5"><rect class="cls-1" x="1501.19" y="432.84" width="20.11" height="13.14" transform="translate(-31.9 748.68) rotate(-27.55)"/><ellipse class="cls-13" cx="1494.84" cy="456.64" rx="14.84" ry="22.79" transform="translate(-57.68 637.58) rotate(-23.63)"/><path class="cls-13" d="M1500.38,453.14l5.89-2.38"/><path d="M1500.78,454.59l5.89-2.39c1.76-.71,1-3.61-.8-2.89l-5.89,2.38c-1.76.72-1,3.62.8,2.9Z"/><path class="cls-13" d="M1499.41,450.6l5.89-2.38"/><path d="M1499.81,452l5.88-2.38c1.77-.71,1-3.61-.79-2.89l-5.89,2.38c-1.77.72-1,3.62.8,2.89Z"/><path class="cls-13" d="M1502,455.68l5.89-2.38"/><path d="M1502.39,457.13l5.89-2.38c1.77-.72,1-3.62-.8-2.9l-5.89,2.38c-1.76.72-1,3.62.8,2.9Z"/><ellipse class="cls-2" cx="1581.85" cy="136.23" rx="68.33" ry="100.78"/><path class="cls-3" d="M1577,115.16c0,14.68-8.08,26.57-18,26.57s-18-11.89-18-26.57a35.6,35.6,0,0,1,3.19-15.08c3.25-6.94,8.69-11.49,14.85-11.49s11.6,4.55,14.85,11.49A35.75,35.75,0,0,1,1577,115.16Z"/><ellipse class="cls-4" cx="1607.74" cy="115.16" rx="18.04" ry="26.57"/><path class="cls-4" d="M1603,174.69c0,1.33-.06,2.64-.18,3.91-.07.81-.17,1.61-.29,2.39s-.27,1.62-.44,2.4a29.58,29.58,0,0,1-2.73,7.61,18.61,18.61,0,0,1-1.21,2c-2.1,3-4.73,4.79-7.59,4.79h-17.27c-2.85,0-5.48-1.79-7.57-4.79a27,27,0,0,1-3.93-9.57c-.17-.78-.31-1.58-.44-2.4s-.22-1.58-.29-2.39c-.11-1.25-.17-2.53-.17-3.84v-1.43h41.38C1602.7,173.33,1603,173.94,1603,174.69Z"/><ellipse cx="1558.93" cy="124.74" rx="11.67" ry="17.19"/><ellipse cx="1607.74" cy="124.74" rx="11.67" ry="17.19"/><ellipse class="cls-3" cx="1557.23" cy="120.43" rx="2.76" ry="4.06"/><ellipse class="cls-3" cx="1605.19" cy="119.47" rx="2.76" ry="4.06"/><path class="cls-5" d="M1581.61,138.1a119.44,119.44,0,0,0-11.5,21.69c-.5,1.23,1.17,2.36,2.2,1.7a12.88,12.88,0,0,1,13.63-.69c1.71.9,3.23-1.69,1.52-2.59a15.94,15.94,0,0,0-16.66.69l2.2,1.69a115.68,115.68,0,0,1,11.2-21c1.09-1.61-1.51-3.11-2.59-1.52Z"/><path class="cls-2" d="M1515,114.58c-1.09-3.49-5.47-5.1-8.79-3.78s-5.44,4.87-6,8.5.32,7.31,1.49,10.78a57.4,57.4,0,0,0,12.85,21.35l1.28-37.24"/><path class="cls-2" d="M1648.22,114.58c1.09-3.49,5.47-5.1,8.79-3.78s5.44,4.87,6,8.5-.32,7.31-1.48,10.78a57.53,57.53,0,0,1-12.85,21.35l-1.28-37.24"/><path class="cls-6" d="M1602.85,178.6c-.07.81-.17,1.61-.29,2.39s-.27,1.62-.44,2.4a29.58,29.58,0,0,1-2.73,7.61,18.61,18.61,0,0,1-1.21,2h-32.43a27,27,0,0,1-3.93-9.57c-.17-.78-.31-1.58-.44-2.4s-.22-1.58-.29-2.39Z"/><path class="cls-7" d="M1588,193h-12.9c.14-2.93,3-5.27,6.45-5.27S1587.89,190,1588,193Z"/><path class="cls-11" d="M1552.76,254.93c-25.68,25.78-45.16,61.31-48.28,97.87,2.51.49,5,1,7.53,1.43,5.6-33.59,21.9-63.78,45-88.66,2.11-2.29,3.31-4.16,2.57-7.37s-3.37-2.64-5.78-1.59"/><path class="cls-2" d="M1514.32,364.07c.3-3.88.45-7.87.51-11.83,0-1-.07-2,0-3.14a4.45,4.45,0,0,0-.22-2.14c-.33-.5-.49-.17-.92-.14s-.65.09-1.13.15l-1.67.25-3.8.57-1.8.28c-.49.08-.77.1-1.17.18s-.63-.09-.86.3,0,.87,0,1.33,0,1,0,1.46c0,1,.06,2.05.1,3.07.06,2,.12,4.11.19,6.11a9,9,0,0,0,.29,2.07c.17.62.53,1,1.1.72s.56-.85.68-1.43c.54-2.64,1-5.35,1.53-8-.17,3.58-.35,7.2-.5,10.77a6.56,6.56,0,0,0,.1,2c.17.63.14,1.43,1,1.1s1.13-1.11,1.32-2.14c.65-3.46,1.22-7.17,1.63-10.72-.28,3.44-.56,7-.53,10.43,0,1.36,0,2.67,1.07,3.53s1.75.16,2.22-1A12,12,0,0,0,1514.32,364.07Z"/><path class="cls-12" d="M1609.41,260c9.37,19.56,21.28,47.24,32,64.28,9.38,14.87,15.41,17.19,24.78,29.32a38.66,38.66,0,0,1,8-8.9c-8.16-11-13.1-13.84-22.18-26.65s-20.6-36.46-29.34-51.82c-3.53-6.2-7.88-10.78-12.45-15.85-.51,3.23-1,6.42-1.46,9.64"/><path class="cls-2" d="M1685.42,358.86a123.48,123.48,0,0,0-8.11-11.66c-.74-.95-1.49-1.89-2.26-2.81-.39-.47-1.59-2.2-2.07-2.33-.29-.08-.63.48-.79.63l-.78.7-1.5,1.35-3.27,2.94-1.64,1.47-.85.77c-.14.12-.73.42-.68.67a6.51,6.51,0,0,0,1,1.33l1.11,1.39,2.32,2.88,4.64,5.78a8.79,8.79,0,0,0,1.83,1.87c.69.45,1.5.52,1.64-.07a3.15,3.15,0,0,0-.53-1.8l-4.39-8.6,7.33,10.63a10.23,10.23,0,0,0,1.54,1.91c.6.54,1.35.9,1.8.69.74-.34.29-1.8-.23-3a84.37,84.37,0,0,0-6.35-11.53,78.28,78.28,0,0,0,7.1,10.49c1,1.31,2.38,2.75,3.61,2.95s1.75-1,1.49-2.42A13.93,13.93,0,0,0,1685.42,358.86Z"/><rect class="cls-1" x="1646.34" y="439.54" width="13.14" height="20.11" transform="translate(-1.54 893.5) rotate(-30.24)"/><ellipse class="cls-13" cx="1670.39" cy="464.46" rx="22.79" ry="14.84" transform="translate(-32.74 788.9) rotate(-26.32)"/><path class="cls-13" d="M1666.63,459.09l-2.66-5.77"/><path d="M1667.92,458.34l-2.65-5.77c-.81-1.75-3.4-.23-2.59,1.51l2.65,5.77c.81,1.75,3.39.23,2.59-1.51Z"/><path class="cls-13" d="M1664.13,460.18l-2.65-5.77"/><path d="M1665.43,459.43l-2.66-5.77c-.8-1.75-3.39-.23-2.59,1.51l2.66,5.77c.8,1.75,3.39.23,2.59-1.51Z"/><path class="cls-13" d="M1669.09,457.36l-2.66-5.76"/><path d="M1670.38,456.61l-2.65-5.77c-.81-1.75-3.39-.23-2.59,1.51l2.65,5.77c.81,1.75,3.4.23,2.59-1.51Z"/><ellipse cx="1582.27" cy="243.54" rx="1.06" ry="1.2"/><ellipse cx="1582.27" cy="247.3" rx="1.06" ry="1.2"/><ellipse cx="1582.27" cy="251.06" rx="1.06" ry="1.2"/><path class="cls-14" d="M1651.29,120.5v14.93a1.51,1.51,0,0,0,2.79.75,17,17,0,0,0,1.38-17.64c-.85-1.74-3.44-.22-2.59,1.51a14,14,0,0,1-1.38,14.62l2.8.76V120.5a1.5,1.5,0,0,0-3,0Z"/><path class="cls-14" d="M1652.93,123.08l-.34,5.77c-.11,1.93,2.89,1.93,3,0l.34-5.77c.11-1.93-2.89-1.92-3,0Z"/><path class="cls-14" d="M1655.21,119.23l-.29-.42c-.05-.07-.26-.47-.16-.16v.8l0-.12-.38.66.06-.07-.66.39.09,0h-.8l-.35-.19a1.5,1.5,0,1,0,2.12-2.13,2,2,0,0,0-3.19.1,4.64,4.64,0,0,0-.32,2.76,1.5,1.5,0,0,0,3,0,7.71,7.71,0,0,1,0-1c0-.13,0-.25,0-.38s0-.26,0-.12a.59.59,0,0,1-.22.43l-.66.39c-.78-.35-1-.39-.71-.09l2.12-2.13a1.77,1.77,0,0,0-2.82.21c-.56,1,0,1.81.58,2.58a1.54,1.54,0,0,0,2.05.54,1.52,1.52,0,0,0,.54-2.06Z"/><path class="cls-14" d="M1509.12,121.46l0,14.93,2.79-.76a14,14,0,0,1-1.38-14.62c.85-1.72-1.74-3.25-2.59-1.51a17,17,0,0,0,1.38,17.65,1.52,1.52,0,0,0,2.8-.76l0-14.93a1.5,1.5,0,0,0-3,0Z"/><path class="cls-14" d="M1507.48,124l.34,5.78c.11,1.92,3.11,1.93,3,0l-.34-5.78c-.11-1.92-3.11-1.93-3,0Z"/><path class="cls-14" d="M1510.79,121.71c.54-.77,1.14-1.62.58-2.58a1.76,1.76,0,0,0-2.82-.2l2.12,2.12c.31-.29.08-.26-.71.09l-.66-.38-.21-.36c0-.18,0-.2,0-.05l0,.47c0,.32,0,.64,0,1a1.51,1.51,0,0,0,1.5,1.5,1.54,1.54,0,0,0,1.5-1.5,4.72,4.72,0,0,0-.33-2.76,2,2,0,0,0-3.19-.09,1.54,1.54,0,0,0,0,2.12,1.52,1.52,0,0,0,2.12,0l-.35.19h-.79l.08,0-.66-.39.07.07-.39-.66,0,.12v-.8c.1-.3-.12.12-.16.17l-.29.42a1.5,1.5,0,1,0,2.59,1.51Z"/><path class="cls-15" d="M1524.44,101.12c-5.85,45-1.24,80.47-1.8,124.51-12.71-39.77-18.66-61.94-7.63-104.46-6.13,35.73-18.57,86.6-20.81,119.54-10.63-43-6.76-73.16,7.74-117.86-13.23,58.91-18.43,64.84-45.29,114.88,9.29-37.08,19.5-79.84,30.19-116.25s22.63-83.42,53.22-101.59,70-21.88,97.52,2.58C1653,36.21,1660.43,48,1671.72,72.3c21.13,45.5,16.48,136.61-12.28,179.28,9.63-44.19,17.06-120.46,1.28-160.7,14.9,47,.42,99.7-7.7,146.06-6-48.07,5.52-97.27-7.87-145.39,14.77,29.79,8.64,84.3-7.42,113.57,1.13-35.81,6.29-85.25-11.53-115.3-7-11.77-11.65-16-24.23-20.9-12.93-5.05-32.47-4.75-47.4.37C1539.22,74.55,1528.9,88,1523,104.72"/><rect class="cls-16" x="1500.98" y="339.11" width="21" height="44.24" rx="10.5" ry="10.5" transform="translate(1678.95 -1183.77) rotate(82.75)"/><rect class="cls-17" x="1502.36" y="347.73" width="18.48" height="26.98" transform="translate(1679.04 -1183.9) rotate(82.75)"/><circle class="cls-18" cx="1495.2" cy="363.31" r="2.41"/><circle class="cls-19" cx="1495.2" cy="363.31" r="1.89"/><circle class="cls-18" cx="1528.98" cy="358.93" r="0.47"/><circle cx="1528.98" cy="358.93" r="0.37"/><path class="cls-10" d="M1581.45,348.78c-.08.36-.18.83-.25,1.16s-.13.64-.2.91c-.23.95-.44,1.93-.58,2.84-.06.4-.12.82-.16,1.11a6.08,6.08,0,0,0,0,.67v.29c-.07.48-.11.79-.19,1.25s-.17.85-.28,1.36-.08.74-.23,1.37c-.27,1.14-.08.72-.44,2.19-1.58,6.55-.2,7-3.22,15.22-4,11-6.79,24.16-16.35,36-8.72,10.79-25.37,23.66-38.75,30.87-.6.33-1.28.73-1.54.88-2.16,1.22-4,2.34-6,3.53a128.88,128.88,0,0,1-9.37-18.45c13.65-9.62,29.15-20,37.8-33.88,5.76-9.2,5.44-16.74,8.11-25.93a16.8,16.8,0,0,0,.5-3c1.22-7.48.43-14.17.34-21.49a.66.66,0,0,0,.26.06l.45.05A232.81,232.81,0,0,1,1581.45,348.78Z"/><path d="M1580.38,360.71a1.5,1.5,0,0,0,0-3,1.5,1.5,0,0,0,0,3Z"/><path d="M1584.79,352.3a5,5,0,0,1,.09,1.7,1.51,1.51,0,0,0,1.5,1.5,1.54,1.54,0,0,0,1.5-1.5,7.8,7.8,0,0,0-.2-2.5,1.5,1.5,0,1,0-2.89.8Z"/><path class="cls-9" d="M1616,361.12c.28,1.15,0,.78.43,2.2a19.62,19.62,0,0,0,1,3.63,79,79,0,0,0,3.42,7.52c2.14,4.52-.86-2.55,5.91,10.4s26.7,42.68,34.26,60.77c-3.87,6.57-10.69,8.22-16.12,12.48-1.72-2.49-3.4-4.77-5.14-7.25-.18-.27-.36-.56-.61-.91-10.68-15.31-19.71-28.45-31-44.57a170.66,170.66,0,0,1-11.82-21.2c-.93-2.05-3.1-6.27-4.15-8.67-.34-.77-1-2-1.23-2.72s-.67-1.59-.86-2-.08-.17-.17-.4.07.17,0-.1-.29-.64-.49-1.1-.67-1.51-.86-2.05a30.7,30.7,0,0,1-1.23-4c-.11-.54-.18-.95-.27-1.44s-.13-.94-.17-1.43c12.56.11,15.51,6.62,28.93,1C1615.87,361.25,1616,361.27,1616,361.12Z"/><path class="cls-12" d="M1618,365.77c.48-2.49.93-4.89,1.38-7.14q1.8-9.15,2.93-18,1.32-10.35,1.77-20.34c.05-1,.08-2,.12-3a244,244,0,0,0-13.64-89.06l-53.72.57c-9.49,25.36-11.1,57.08-10.23,88.48.46,16.61,1.62,33.09,2.68,48.53"/></g><g id="Sprite_6" data-name="Sprite 6"><rect class="cls-1" x="1851.93" y="426.85" width="20.11" height="13.14" transform="translate(-47.08 331.86) rotate(-10.06)"/><ellipse class="cls-13" cx="1841.17" cy="444.92" rx="14.84" ry="22.79" transform="translate(-37.06 199.72) rotate(-6.15)"/><path class="cls-13" d="M1847.51,443.25l6.33-.51"/><path d="M1847.51,444.75l6.33-.51c1.91-.15,1.92-3.15,0-3l-6.33.51c-1.92.15-1.93,3.15,0,3Z"/><path class="cls-13" d="M1847.34,440.53l6.33-.5"/><path d="M1847.34,442l6.33-.5c1.91-.15,1.93-3.15,0-3l-6.33.5c-1.91.15-1.93,3.15,0,3Z"/><path class="cls-13" d="M1848.28,446.15l6.33-.5"/><path d="M1848.28,447.65l6.33-.5c1.91-.15,1.93-3.15,0-3l-6.33.5c-1.91.16-1.93,3.16,0,3Z"/><ellipse class="cls-2" cx="1931.85" cy="136.23" rx="68.33" ry="100.78"/><path class="cls-3" d="M1927,115.16c0,14.68-8.08,26.57-18,26.57s-18-11.89-18-26.57a35.6,35.6,0,0,1,3.19-15.08c3.25-6.94,8.69-11.49,14.85-11.49s11.6,4.55,14.85,11.49A35.75,35.75,0,0,1,1927,115.16Z"/><ellipse class="cls-4" cx="1957.74" cy="115.16" rx="18.04" ry="26.57"/><path class="cls-4" d="M1953,174.69c0,1.33-.06,2.64-.18,3.91-.07.81-.17,1.61-.29,2.39s-.27,1.62-.44,2.4a29.58,29.58,0,0,1-2.73,7.61,18.61,18.61,0,0,1-1.21,2c-2.1,3-4.73,4.79-7.59,4.79h-17.27c-2.85,0-5.48-1.79-7.57-4.79a27,27,0,0,1-3.93-9.57c-.17-.78-.31-1.58-.44-2.4s-.22-1.58-.29-2.39c-.11-1.25-.17-2.53-.17-3.84v-1.43h41.38C1952.7,173.33,1953,173.94,1953,174.69Z"/><ellipse cx="1908.93" cy="124.74" rx="11.67" ry="17.19"/><ellipse cx="1957.74" cy="124.74" rx="11.67" ry="17.19"/><ellipse class="cls-3" cx="1907.23" cy="120.43" rx="2.76" ry="4.06"/><ellipse class="cls-3" cx="1955.19" cy="119.47" rx="2.76" ry="4.06"/><path class="cls-5" d="M1931.61,138.1a119.44,119.44,0,0,0-11.5,21.69c-.5,1.23,1.17,2.36,2.2,1.7a12.88,12.88,0,0,1,13.63-.69c1.71.9,3.23-1.69,1.52-2.59a15.94,15.94,0,0,0-16.66.69l2.2,1.69a115.68,115.68,0,0,1,11.2-21c1.09-1.61-1.51-3.11-2.59-1.52Z"/><path class="cls-2" d="M1865,114.58c-1.09-3.49-5.47-5.1-8.79-3.78s-5.44,4.87-6,8.5.32,7.31,1.49,10.78a57.4,57.4,0,0,0,12.85,21.35l1.28-37.24"/><path class="cls-2" d="M1998.22,114.58c1.09-3.49,5.47-5.1,8.79-3.78s5.44,4.87,6,8.5-.32,7.31-1.48,10.78a57.53,57.53,0,0,1-12.85,21.35l-1.28-37.24"/><path class="cls-6" d="M1952.85,178.6c-.07.81-.17,1.61-.29,2.39s-.27,1.62-.44,2.4a29.58,29.58,0,0,1-2.73,7.61,18.61,18.61,0,0,1-1.21,2h-32.43a27,27,0,0,1-3.93-9.57c-.17-.78-.31-1.58-.44-2.4s-.22-1.58-.29-2.39Z"/><path class="cls-7" d="M1938,193h-12.9c.14-2.93,3-5.27,6.45-5.27S1937.89,190,1938,193Z"/><path class="cls-11" d="M1902.24,255.12c-20.61,24.24-34.16,67.17-36.92,98.61l7.53,1.36c5-30.22,15.84-65,34.33-89.81,1.7-2.28,3-4.45,2-7.39s-3.5-2.31-5.8-1.19"/><path class="cls-2" d="M1875.34,364.86c.22-3.87.29-7.85.29-11.79,0-1-.11-2.06-.09-3.14a4.2,4.2,0,0,0-.26-2.08c-.32-.49-.49-.2-.92-.16s-.67.1-1.15.17-1.1.17-1.65.25l-3.75.6L1866,349c-.49.09-.79.11-1.18.19s-.63-.07-.85.32,0,.87,0,1.32,0,1,.08,1.45l.15,3.06c.1,2,.19,4.09.3,6.08a9.25,9.25,0,0,0,.33,2.05c.18.61.52,1,1.1.71s.55-.84.66-1.41c.49-2.64.92-5.34,1.38-8-.1,3.57-.21,7.18-.3,10.74a7.18,7.18,0,0,0,.14,2c.17.62.19,1.42,1,1.05s1.1-1.11,1.27-2.13c.57-3.45,1.06-7.14,1.42-10.67-.2,3.43-.41,7-.33,10.39,0,1.35.08,2.64,1.14,3.48s1.74.16,2.19-1A12.44,12.44,0,0,0,1875.34,364.86Z"/><path class="cls-12" d="M1959.86,259.39c6.54,20.82,13.72,48.16,23.76,66.27,8.77,15.82,17.13,17.39,26.94,29.9a32,32,0,0,1,7.38-9.51c-8.42-10.81-15.25-12.74-23.46-26s-16.54-36.48-22.5-52.8c-2.4-6.59-6.44-11.86-10.17-17.5-.94,3.09-1.81,6.17-2.71,9.26"/><path class="cls-2" d="M2029.65,357.81a129,129,0,0,0-9.42-10.63q-1.27-1.28-2.58-2.52c-.44-.42-1.83-2-2.33-2.07-.29,0-.57.55-.71.72l-.69.78-1.33,1.52-2.91,3.3-1.45,1.66-.76.86c-.12.13-.67.5-.6.74s1,1,1.19,1.2l1.27,1.25,2.64,2.59,5.28,5.19a8.91,8.91,0,0,0,2,1.65c.74.37,1.55.34,1.63-.26a3.16,3.16,0,0,0-.74-1.72l-5.37-8,8.52,9.7a10.53,10.53,0,0,0,1.76,1.71c.65.47,1.44.73,1.86.47.7-.42.08-1.81-.57-2.9a85.26,85.26,0,0,0-7.65-10.72,77.77,77.77,0,0,0,8.27,9.59c1.2,1.19,2.69,2.46,3.93,2.51s1.62-1.23,1.2-2.58A14.24,14.24,0,0,0,2029.65,357.81Z"/><rect class="cls-1" x="1995.46" y="438.8" width="13.14" height="20.11" transform="translate(21 -85.12) rotate(2.45)"/><ellipse class="cls-13" cx="2008.71" cy="470.8" rx="14.84" ry="22.79" transform="matrix(0.11, -0.99, 0.99, 0.11, 1318.3, 2414.99)"/><path class="cls-13" d="M2008.44,464.25l.88-6.29"/><path d="M2009.89,464.65l.88-6.29c.26-1.89-2.63-2.71-2.89-.8l-.88,6.29c-.27,1.89,2.62,2.7,2.89.8Z"/><path class="cls-13" d="M2005.76,463.82l.88-6.29"/><path d="M2007.2,464.22l.88-6.29c.27-1.89-2.62-2.7-2.89-.8l-.88,6.29c-.26,1.89,2.63,2.71,2.89.8Z"/><path class="cls-13" d="M2011.45,464.12l.88-6.29"/><path d="M2012.9,464.52l.88-6.29c.26-1.89-2.63-2.7-2.9-.79l-.88,6.28c-.26,1.89,2.63,2.71,2.9.8Z"/><ellipse cx="1932.27" cy="243.54" rx="1.06" ry="1.2"/><ellipse cx="1932.27" cy="247.3" rx="1.06" ry="1.2"/><ellipse cx="1932.27" cy="251.06" rx="1.06" ry="1.2"/><path class="cls-14" d="M2001.29,120.5v14.93a1.51,1.51,0,0,0,2.79.75,17,17,0,0,0,1.38-17.64c-.85-1.74-3.44-.22-2.59,1.51a14,14,0,0,1-1.38,14.62l2.8.76V120.5a1.5,1.5,0,0,0-3,0Z"/><path class="cls-14" d="M2002.93,123.08l-.34,5.77c-.11,1.93,2.89,1.93,3,0l.34-5.77c.11-1.93-2.89-1.92-3,0Z"/><path class="cls-14" d="M2005.21,119.23l-.29-.42c-.05-.07-.26-.47-.16-.16v.8l0-.12-.38.66.06-.07-.66.39.09,0h-.8l-.35-.19a1.5,1.5,0,1,0,2.12-2.13,2,2,0,0,0-3.19.1,4.64,4.64,0,0,0-.32,2.76,1.5,1.5,0,1,0,3,0,7.71,7.71,0,0,1,0-1c0-.13,0-.25,0-.38s0-.26,0-.12a.59.59,0,0,1-.22.43l-.66.39c-.78-.35-1-.39-.71-.09l2.12-2.13a1.77,1.77,0,0,0-2.82.21c-.56,1,0,1.81.58,2.58a1.54,1.54,0,0,0,2.05.54,1.52,1.52,0,0,0,.54-2.06Z"/><path class="cls-14" d="M1859.12,121.46l0,14.93,2.79-.76a14,14,0,0,1-1.38-14.62c.85-1.72-1.74-3.25-2.59-1.51a17,17,0,0,0,1.38,17.65,1.52,1.52,0,0,0,2.8-.76l0-14.93a1.5,1.5,0,0,0-3,0Z"/><path class="cls-14" d="M1857.48,124l.34,5.78c.11,1.92,3.11,1.93,3,0l-.34-5.78c-.11-1.92-3.11-1.93-3,0Z"/><path class="cls-14" d="M1860.79,121.71c.54-.77,1.14-1.62.58-2.58a1.76,1.76,0,0,0-2.82-.2l2.12,2.12c.31-.29.08-.26-.71.09l-.66-.38-.21-.36c0-.18,0-.2,0-.05l0,.47c0,.32,0,.64,0,1a1.51,1.51,0,0,0,1.5,1.5,1.54,1.54,0,0,0,1.5-1.5,4.72,4.72,0,0,0-.33-2.76,2,2,0,0,0-3.19-.09,1.54,1.54,0,0,0,0,2.12,1.52,1.52,0,0,0,2.12,0l-.35.19h-.79l.08,0-.66-.39.07.07-.39-.66,0,.12v-.8c.1-.3-.12.12-.16.17l-.29.42a1.5,1.5,0,1,0,2.59,1.51Z"/><path class="cls-15" d="M1874.44,101.12c-5.85,45-1.24,80.47-1.8,124.51-12.71-39.77-18.66-61.94-7.63-104.46-6.13,35.73-18.57,86.6-20.81,119.54-10.63-43-6.76-73.16,7.74-117.86-13.23,58.91-18.43,64.84-45.29,114.88,9.29-37.08,19.5-79.84,30.19-116.25s22.63-83.42,53.22-101.59,70-21.88,97.52,2.58C2003,36.21,2010.43,48,2021.72,72.3c21.13,45.5,16.48,136.61-12.28,179.28,9.63-44.19,17.06-120.46,1.28-160.7,14.9,47,.42,99.7-7.7,146.06-6-48.07,5.52-97.27-7.87-145.39,14.77,29.79,8.64,84.3-7.42,113.57,1.13-35.81,6.29-85.25-11.53-115.3-7-11.77-11.65-16-24.23-20.9-12.93-5.05-32.47-4.75-47.4.37C1889.22,74.55,1878.9,88,1873,104.72"/><rect class="cls-16" x="1858.98" y="339.11" width="21" height="44.24" rx="10.5" ry="10.5" transform="translate(1991.74 -1538.9) rotate(82.75)"/><rect class="cls-17" x="1860.36" y="347.73" width="18.48" height="26.98" transform="translate(1991.83 -1539.03) rotate(82.75)"/><circle class="cls-18" cx="1853.2" cy="363.31" r="2.41"/><circle class="cls-19" cx="1853.2" cy="363.31" r="1.89"/><circle class="cls-18" cx="1886.98" cy="358.93" r="0.47"/><circle cx="1886.98" cy="358.93" r="0.37"/><path class="cls-10" d="M1932.77,345c-.08.36-.18.84-.25,1.17s-.13.65-.2.93c-.22.94-.45,1.92-.63,2.81-.08.4-.15.79-.2,1.07a3.57,3.57,0,0,0,0,.66c0,.16,0,.24,0,.29-.08.47-.13.78-.24,1.24s-.19.78-.31,1.3-.11.64-.27,1.3c-.29,1.21-.1.45-.47,2.06-1.65,7.17-.31,6.1-2,16-2.22,13.23-.31,34.5-11.72,48.33-10.39,12.61-30.16,18.91-46.76,20.92l-1.88.25c-2.58.35-4.75.75-7.19,1.25a145.24,145.24,0,0,1-1.87-20.8c15.83-3.91,32.4-4.43,40.1-20.64,5.12-10.78,1.47-22.25,3-33.12a23.13,23.13,0,0,0,0-3.57c.27-8.51.35-16.22,0-24.49a.57.57,0,0,0,.27.07c.13,0,.27,0,.44,0A228.15,228.15,0,0,1,1932.77,345Z"/><path d="M1931.48,356.69a1.5,1.5,0,0,0,0-3,1.5,1.5,0,0,0,0,3Z"/><path d="M1936.1,348.45a6.75,6.75,0,0,1,.09,1.72,1.52,1.52,0,0,0,1.5,1.5,1.54,1.54,0,0,0,1.5-1.5,8.89,8.89,0,0,0-.2-2.52,1.5,1.5,0,1,0-2.89.8Z"/><path class="cls-9" d="M1965,360.21c.82,1.12,0,1.05,1.06,2.38s0,1,2,3.42.66,1.8,5.81,5.89,1.75-.17,14.11,9.64,32,45.93,21.37,67.81c-4.72,5-12.49,3.42-19,4.76-.46-3.05-.77-5.92-1.1-9,0-.33,0-.58-.07-1.12-1.27-23.84-2-30.49-21.08-46.57-5.5-4.63-12.09-8.18-17.63-13.57a56.92,56.92,0,0,1-6.29-7.36c-.5-.74-1.35-2-1.76-2.77s-.93-1.62-1.19-2.1l-.33-.59c-.17-.3.16.29-.08-.13s-.39-.73-.67-1.22-.82-1.5-1.06-2a37.18,37.18,0,0,1-1.55-3.78c-.17-.51-.29-.92-.45-1.39s-.26-.92-.38-1.4c10.75.07,17.9,4.64,28.18-.64C1965,360.42,1965.08,360.35,1965,360.21Z"/><path class="cls-12" d="M1968,365.77c.48-2.49.93-4.89,1.38-7.14q1.8-9.15,2.93-18,1.32-10.35,1.77-20.34c.05-1,.08-2,.12-3a244,244,0,0,0-13.64-89.06l-53.72.57c-9.49,25.36-11.1,57.08-10.23,88.48.46,16.61,1.62,33.09,2.68,48.53"/></g><g id="Sprite_7" data-name="Sprite 7"><rect class="cls-1" x="2250.63" y="423.03" width="13.14" height="20.11" transform="translate(2399.07 -1860.91) rotate(82.68)"/><rect class="cls-1" x="2271.09" y="442.77" width="13.14" height="20.11" transform="translate(345.56 -835.49) rotate(22.45)"/><ellipse class="cls-2" cx="2276.09" cy="136.56" rx="68.33" ry="100.78"/><path class="cls-3" d="M2271.2,115.49c0,14.68-8.07,26.58-18,26.58s-18-11.9-18-26.58a35.78,35.78,0,0,1,3.18-15.08c3.26-6.94,8.7-11.49,14.86-11.49s11.6,4.55,14.85,11.49A35.78,35.78,0,0,1,2271.2,115.49Z"/><ellipse class="cls-4" cx="2301.98" cy="115.49" rx="18.04" ry="26.57"/><path class="cls-4" d="M2297.27,175c0,1.34-.06,2.64-.18,3.91-.07.82-.17,1.61-.29,2.4s-.27,1.61-.45,2.39a29.58,29.58,0,0,1-2.72,7.61,19.27,19.27,0,0,1-1.21,2c-2.1,3-4.74,4.79-7.59,4.79h-17.27c-2.85,0-5.48-1.78-7.57-4.79a26.73,26.73,0,0,1-3.93-9.57c-.17-.78-.32-1.58-.44-2.39s-.22-1.58-.29-2.4c-.11-1.24-.17-2.53-.17-3.83v-1.44h41.38C2296.94,173.66,2297.27,174.27,2297.27,175Z"/><ellipse cx="2253.17" cy="125.07" rx="11.67" ry="17.19"/><ellipse cx="2301.98" cy="125.07" rx="11.67" ry="17.19"/><ellipse class="cls-3" cx="2251.47" cy="120.76" rx="2.76" ry="4.06"/><ellipse class="cls-3" cx="2299.43" cy="119.8" rx="2.76" ry="4.06"/><path class="cls-5" d="M2275.85,138.44a119.11,119.11,0,0,0-11.5,21.69c-.5,1.22,1.17,2.36,2.2,1.69a12.9,12.9,0,0,1,13.63-.69c1.71.9,3.23-1.68,1.52-2.59a15.94,15.94,0,0,0-16.66.69l2.2,1.69a115.68,115.68,0,0,1,11.2-21c1.08-1.6-1.51-3.11-2.59-1.51Z"/><path class="cls-2" d="M2209.22,114.92c-1.08-3.49-5.47-5.11-8.78-3.79s-5.45,4.87-6,8.5a23.7,23.7,0,0,0,1.48,10.78,57.59,57.59,0,0,0,12.86,21.36l1.27-37.24"/><path class="cls-2" d="M2342.46,114.92c1.08-3.49,5.47-5.11,8.79-3.79s5.44,4.87,6,8.5a23.7,23.7,0,0,1-1.48,10.78,57.59,57.59,0,0,1-12.86,21.36l-1.27-37.24"/><path class="cls-6" d="M2297.09,178.93c-.07.82-.17,1.61-.29,2.4s-.27,1.61-.45,2.39a29.58,29.58,0,0,1-2.72,7.61,19.27,19.27,0,0,1-1.21,2H2260a26.73,26.73,0,0,1-3.93-9.57c-.17-.78-.32-1.58-.44-2.39s-.22-1.58-.29-2.4Z"/><path class="cls-7" d="M2282.28,193.29h-12.91c.15-2.93,3-5.26,6.46-5.26S2282.13,190.36,2282.28,193.29Z"/><path class="cls-8" d="M2294.58,336.09v1.71c0,3.21-2.32,5.83-5.17,5.83h-18.64c-2.85,0-5.17-2.62-5.17-5.83v-1.71c0-3.21,2.32-5.83,5.17-5.83h18.64C2292.26,330.26,2294.58,332.88,2294.58,336.09Z"/><path class="cls-9" d="M2311.09,359.72c-.24,1.23-.25.85-.5,2.36s-.28.92-.86,3.66-.57,2.09-1.45,7.36.53-5.11-1.31,11.37-4.73,50.64-19,69.61c-7.18,1.41-13-3.24-19.64-4.58.83-2.65,1.63-5.1,2.58-7.69.1-.28.23-.58.37-.93,6.13-15.66,7.34-29.46,8.52-46.57.34-4.92.82-13,1.24-18.59a54.29,54.29,0,0,0-.09-5.56c0-.55-.12-1.23-.16-1.68s-.11-1-.14-1.26,0-.11,0-.26,0,.12,0-.06,0-.39-.09-.71-.09-.84-.13-1.25c-.08-1-.13-2.15-.11-3.19,0-.42,0-.71,0-1.15s0-1.05,0-1.53q15.28.18,30.59.73S2311,359.86,2311.09,359.72Z"/><path d="M2289.85,322.1c.25,13.51,9.44,26,23.81,25.82,1.93,0,1.93-3,0-3-12.69.19-20.59-10.95-20.81-22.82,0-1.93-3-1.94-3,0Z"/><path class="cls-10" d="M2272.77,353.67c.18.36.46.84.64,1.17s.27.5.42.8a8.93,8.93,0,0,0,1.87,2.63l1.16,1.07.54.49.18.17c.54.49.88.75,1.45,1.26l1.78,1.58c.69.61,1.52,1.26,2.31,2,1.46,1.31,3.21,2.59,4.7,4.06,6.63,6.56,14.42,13.27,17,22.44,3.4,12.2,4,22.85-3.85,34-7.19,10.14-21.3,14.06-33.32,16.8-.55.12-.94.23-1.3.32-2.92.72-5.74,1.14-8.6,2-2.14-6.88-4-14-5.84-20.79,8-3.87,27,.05,30.68-7.05,2.45-4.72-2.32-13.06-4.2-18.27a25.13,25.13,0,0,0-1.65-3.5c-8.63-15.45-24.56-20.68-33.92-38.11a.85.85,0,0,1,.17-.1l.45-.24C2253,351.51,2262.76,356.83,2272.77,353.67Z"/><path d="M2282.47,364.86a1.5,1.5,0,0,0,0-3,1.5,1.5,0,0,0,0,3Z"/><path d="M2277.31,353.52c.11,0,.39.15.16,0a2.25,2.25,0,0,1,.21.12c-.13-.1-.15-.11-.07,0l.12.13c-.09-.12-.1-.14,0-.05a3.42,3.42,0,0,1,.26.4,1.5,1.5,0,0,0,2.59-1.51,3.91,3.91,0,0,0-2.43-2,1.5,1.5,0,0,0-.8,2.89Z"/><path class="cls-12" d="M2249.47,257.28c-10.1,26.34-19.08,37.54-14.58,67.11,3.93,25.83,35.12,33.52,54.35,43.66a86.81,86.81,0,0,0,2.85-12.32c-13.74-8.07-41.54-14.62-46.07-32s3-37,7.87-53.38c2-6.6,3.22-10.59,2.65-17.13-2.49,1.47-5,2.79-7.54,4.21"/><ellipse class="cls-13" cx="2238.08" cy="443.34" rx="14.84" ry="22.79" transform="matrix(1, -0.06, 0.06, 1, -22.41, 133.95)"/><path class="cls-13" d="M2244.49,442l6.34-.2"/><path d="M2244.49,443.47l6.34-.2c1.93-.06,1.94-3.06,0-3l-6.34.2c-1.93.06-1.94,3.06,0,3Z"/><path class="cls-13" d="M2244.45,439.24l6.35-.19"/><path d="M2244.45,440.74l6.35-.19c1.93-.06,1.93-3.07,0-3l-6.35.19c-1.92.06-1.93,3.07,0,3Z"/><path class="cls-13" d="M2245.12,444.91l6.35-.2"/><path d="M2245.12,446.41l6.35-.2c1.92-.06,1.93-3.06,0-3l-6.35.2c-1.92.06-1.93,3.06,0,3Z"/><ellipse class="cls-13" cx="2277.3" cy="471.49" rx="14.84" ry="22.79" transform="translate(863.39 2317.91) rotate(-64.25)"/><path class="cls-13" d="M2277.12,464.94l2.92-5.64"/><path d="M2278.42,465.7l2.91-5.64c.89-1.71-1.7-3.23-2.59-1.52l-2.91,5.64c-.89,1.72,1.7,3.23,2.59,1.52Z"/><path class="cls-13" d="M2274.73,463.64l2.92-5.64"/><path d="M2276,464.4l2.92-5.64c.89-1.71-1.7-3.23-2.59-1.51l-2.92,5.64c-.88,1.71,1.71,3.23,2.59,1.51Z"/><path class="cls-13" d="M2280,465.82l2.92-5.64"/><path d="M2281.29,466.58l2.92-5.64c.89-1.71-1.7-3.23-2.59-1.52l-2.92,5.64c-.88,1.71,1.71,3.23,2.59,1.52Z"/><ellipse cx="2276.51" cy="243.87" rx="1.06" ry="1.2"/><ellipse cx="2276.51" cy="247.63" rx="1.06" ry="1.2"/><ellipse cx="2276.51" cy="251.4" rx="1.06" ry="1.2"/><ellipse cx="2278.65" cy="325.74" rx="1.06" ry="1.2"/><ellipse cx="2278.65" cy="329.5" rx="1.06" ry="1.2"/><ellipse cx="2278.65" cy="333.27" rx="1.06" ry="1.2"/><path class="cls-14" d="M2345.53,120.83l0,14.93a1.52,1.52,0,0,0,2.8.76,17,17,0,0,0,1.38-17.65c-.85-1.73-3.44-.21-2.59,1.51a14,14,0,0,1-1.38,14.62l2.79.76,0-14.93a1.5,1.5,0,0,0-3,0Z"/><path class="cls-14" d="M2347.17,123.41l-.34,5.78c-.11,1.93,2.89,1.92,3,0l.34-5.78c.11-1.93-2.89-1.92-3,0Z"/><path class="cls-14" d="M2349.45,119.57l-.29-.42c0-.07-.26-.48-.16-.17v.8l0-.12-.38.66.06-.07-.66.39.08,0h-.79l-.35-.19a1.5,1.5,0,0,0,2.12-2.12,2,2,0,0,0-3.19.09,4.72,4.72,0,0,0-.33,2.76,1.53,1.53,0,0,0,1.5,1.5,1.5,1.5,0,0,0,1.5-1.5c0-.32,0-.64,0-1,0-.12,0-.25,0-.38s0-.25,0-.12a.63.63,0,0,1-.22.44l-.66.38c-.79-.35-1-.38-.71-.09l2.12-2.12a1.76,1.76,0,0,0-2.82.2c-.56,1,0,1.81.58,2.58a1.54,1.54,0,0,0,2,.54,1.51,1.51,0,0,0,.54-2.05Z"/><path class="cls-14" d="M2203.36,121.79v14.93l2.8-.76a14,14,0,0,1-1.38-14.61c.85-1.73-1.74-3.25-2.59-1.52a17,17,0,0,0,1.38,17.65,1.51,1.51,0,0,0,2.79-.76V121.79a1.5,1.5,0,0,0-3,0Z"/><path class="cls-14" d="M2201.72,124.38l.34,5.77c.11,1.92,3.11,1.93,3,0l-.34-5.77c-.11-1.92-3.11-1.94-3,0Z"/><path class="cls-14" d="M2205,122c.53-.76,1.14-1.62.58-2.57a1.76,1.76,0,0,0-2.82-.21l2.12,2.12c.31-.29.08-.26-.71.1l-.66-.39-.21-.36c0-.18,0-.19,0,0l0,.48c0,.32,0,.64,0,1a1.49,1.49,0,0,0,1.5,1.5,1.54,1.54,0,0,0,1.5-1.5,4.73,4.73,0,0,0-.33-2.76,2,2,0,0,0-3.19-.09,1.5,1.5,0,0,0,2.12,2.12l-.35.2h-.8l.09,0-.66-.38.06.06-.38-.66,0,.12V120c.09-.3-.12.11-.16.16l-.29.42A1.5,1.5,0,1,0,2205,122Z"/><path class="cls-15" d="M2218.68,101.46c-5.85,45-1.24,80.47-1.8,124.5-12.71-39.77-18.66-61.93-7.63-104.46-6.13,35.73-18.58,86.6-20.82,119.54-10.63-43-6.75-73.16,7.75-117.86C2183,182.1,2177.75,188,2150.89,238.06c9.29-37.07,19.5-79.84,30.19-116.24S2203.7,38.4,2234.3,20.23s70-21.88,97.52,2.58c15.45,13.73,22.85,25.53,34.13,49.82,21.14,45.5,16.49,136.61-12.28,179.28,9.64-44.18,17.07-120.46,1.29-160.7,14.9,47,.42,99.7-7.71,146.06-5.95-48.07,5.52-97.27-7.86-145.38,14.77,29.78,8.64,84.3-7.43,113.56,1.14-35.8,6.29-85.25-11.53-115.3-7-11.76-11.64-16-24.22-20.9-12.93-5-32.47-4.75-47.4.37-15.35,5.27-25.67,18.69-31.58,35.43"/><path class="cls-12" d="M2311.28,368.34c.47-2.5.93-4.9,1.38-7.14q1.8-9.15,2.93-18,1.32-10.35,1.76-20.34c.06-1,.09-2,.12-3a243.61,243.61,0,0,0-13.64-89.07l-53.71.58c-9.49,25.36-11.11,57.08-10.24,88.48.47,16.61,1.63,33.09,2.69,48.53"/><path class="cls-2" d="M2302.56,362.8a128.51,128.51,0,0,0-12-7.65c-1-.6-2.11-1.17-3.17-1.73-.54-.29-2.31-1.43-2.81-1.36-.29,0-.39.69-.49.88l-.45.95c-.29.61-.57,1.22-.86,1.82l-1.9,4-1,2-.49,1c-.08.16-.51.67-.37.89a7.06,7.06,0,0,0,1.47.83l1.56.85,3.24,1.78,6.5,3.55a8.85,8.85,0,0,0,2.41,1c.81.15,1.58-.09,1.5-.69s-.65-1-1.18-1.46l-7.36-6.27,10.84,7a11,11,0,0,0,2.16,1.17c.76.27,1.59.31,1.92-.06.55-.59-.42-1.76-1.34-2.63a85.78,85.78,0,0,0-10.28-8.23,77.87,77.87,0,0,0,10.57,7c1.48.81,3.26,1.63,4.47,1.34s1.22-1.62.44-2.8A14,14,0,0,0,2302.56,362.8Z"/></g><g id="Sprite_8" data-name="Sprite 8"><rect class="cls-1" x="2626.81" y="429.91" width="13.14" height="20.11" transform="translate(992.88 -1666.46) rotate(42.6)"/><rect class="cls-1" x="2592.14" y="439.62" width="13.14" height="20.11" transform="translate(394.15 -997.88) rotate(23.47)"/><ellipse class="cls-2" cx="2618.94" cy="135.4" rx="68.33" ry="100.78"/><path class="cls-3" d="M2614.06,114.34c0,14.67-8.08,26.57-18,26.57s-18-11.9-18-26.57a35.72,35.72,0,0,1,3.18-15.08c3.26-7,8.7-11.49,14.86-11.49s11.6,4.54,14.85,11.49A35.72,35.72,0,0,1,2614.06,114.34Z"/><ellipse class="cls-4" cx="2644.83" cy="114.34" rx="18.04" ry="26.57"/><path class="cls-4" d="M2640.12,173.87c0,1.33-.06,2.64-.18,3.9-.07.82-.17,1.61-.29,2.4s-.27,1.61-.44,2.39a29.82,29.82,0,0,1-2.73,7.61,20.62,20.62,0,0,1-1.21,2c-2.1,3-4.74,4.79-7.59,4.79h-17.27c-2.85,0-5.48-1.79-7.57-4.79a26.79,26.79,0,0,1-3.93-9.58c-.17-.77-.32-1.57-.44-2.39s-.22-1.58-.29-2.4c-.11-1.24-.17-2.52-.17-3.83v-1.43h41.38C2639.79,172.51,2640.12,173.12,2640.12,173.87Z"/><ellipse cx="2596.02" cy="123.91" rx="11.67" ry="17.19"/><ellipse cx="2644.83" cy="123.91" rx="11.67" ry="17.19"/><ellipse class="cls-3" cx="2594.32" cy="119.6" rx="2.76" ry="4.06"/><ellipse class="cls-3" cx="2642.28" cy="118.65" rx="2.76" ry="4.06"/><path class="cls-5" d="M2618.7,137.28A119.44,119.44,0,0,0,2607.2,159c-.5,1.23,1.17,2.36,2.2,1.69A12.9,12.9,0,0,1,2623,160c1.71.9,3.23-1.69,1.52-2.59a15.92,15.92,0,0,0-16.66.68l2.2,1.7a115.76,115.76,0,0,1,11.2-21c1.08-1.6-1.51-3.1-2.59-1.51Z"/><path class="cls-2" d="M2552.07,113.76c-1.08-3.49-5.47-5.11-8.78-3.79s-5.45,4.88-6,8.5a23.7,23.7,0,0,0,1.48,10.78,57.51,57.51,0,0,0,12.86,21.36l1.27-37.24"/><path class="cls-2" d="M2685.31,113.76c1.08-3.49,5.47-5.11,8.79-3.79s5.44,4.88,6,8.5a23.7,23.7,0,0,1-1.48,10.78,57.51,57.51,0,0,1-12.86,21.36l-1.27-37.24"/><path class="cls-6" d="M2639.94,177.77c-.07.82-.17,1.61-.29,2.4s-.27,1.61-.44,2.39a29.82,29.82,0,0,1-2.73,7.61,20.62,20.62,0,0,1-1.21,2h-32.43a26.79,26.79,0,0,1-3.93-9.58c-.17-.77-.32-1.57-.44-2.39s-.22-1.58-.29-2.4Z"/><path class="cls-7" d="M2625.13,192.14h-12.9c.14-2.93,3-5.27,6.45-5.27S2625,189.21,2625.13,192.14Z"/><path class="cls-8" d="M2637.43,334.93v1.72c0,3.2-2.32,5.82-5.17,5.82h-18.64c-2.84,0-5.17-2.62-5.17-5.82v-1.72c0-3.21,2.33-5.83,5.17-5.83h18.64C2635.11,329.1,2637.43,331.72,2637.43,334.93Z"/><path class="cls-9" d="M2654.17,358.61c-.32,1.28-.31.93-.68,2.51s-.17,1.35-.87,4.16.21,3.57-1.45,8.74,1,2.52-4.56,14.1-26,51.16-36.58,63.33c-7.71,1-12.68-3.76-19.39-5.85,1.08-2.6,2.14-5.05,3.24-7.65.12-.29.27-.57.43-.95,7.07-16.7,13.16-32,22.49-48,2.68-4.6,6.6-11.25,7.83-16.77.38-1.73,0-2.91,0-4.47a7.15,7.15,0,0,0-.33-1.31c-.08-.38-.22-.78-.28-1s0-.1-.07-.25,0,.14,0-.06l-.17-.59c-.08-.29-.18-.71-.25-1.08a10.94,10.94,0,0,1-.3-2.92c0-.4,0-.74,0-1.18s.05-1.05.1-1.52c10.23.11,20.41.45,30.64.9C2654,358.71,2654.13,358.78,2654.17,358.61Z"/><path d="M2632.7,320.94c.25,13.51,9.44,26,23.81,25.82,1.93,0,1.93-3,0-3-12.69.2-20.59-10.95-20.81-22.82,0-1.93-3-1.93-3,0Z"/><path class="cls-10" d="M2615.72,353.22c.18.29.43.64.6.91s.27.42.43.67c.55.85,1.13,1.7,1.72,2.54.26.37.75,1,1,1.25l.49.61.19.23c.5.6.79,1,1.25,1.66s.87,1.33,1.44,2.07,1.21,1.63,1.8,2.49c1.08,1.59,2.52,3.17,3.59,4.75,4.76,7,12.26,9.11,18.4,14.82,8.17,7.6,15.76,14.17,16.8,25.93.95,10.71-5.27,17.54-11.62,25a10.76,10.76,0,0,1-.85.83c-2,2-4,3.79-5.94,5.78-5.2-5-11-9.51-16-14.6,3.28-4.68,17.84-7.9,14.64-15.32-2.13-4.94-12.59-6.6-16.73-11.29-.63-.71-2.28-1.7-3.58-2.92-13.81-12.89-27.35-27.57-37.92-43.52a.4.4,0,0,1,.2-.12,2.89,2.89,0,0,1,.47-.2C2596,353,2605.79,354.85,2615.72,353.22Z"/><path d="M2624.14,365.38a1.5,1.5,0,0,0,0-3,1.5,1.5,0,0,0,0,3Z"/><path d="M2620.52,353.27c.47.16-.25-.1.17.08.24.1,0-.06.07,0a2.72,2.72,0,0,1,.24.24c-.18-.19.07.11.1.16a1.53,1.53,0,0,0,2.05.54,1.51,1.51,0,0,0,.54-2.05,4.38,4.38,0,0,0-2.38-1.89,1.5,1.5,0,0,0-1.84,1,1.54,1.54,0,0,0,1.05,1.85Z"/><ellipse class="cls-13" cx="2630.2" cy="454.01" rx="14.84" ry="22.79" transform="translate(220.4 1601.6) rotate(-35.26)"/><path class="cls-13" d="M2634.91,449.47l5.29-3.52"/><path d="M2635.67,450.76l5.29-3.52c1.6-1.06.1-3.66-1.52-2.59l-5.28,3.52c-1.6,1.07-.1,3.67,1.51,2.59Z"/><path class="cls-13" d="M2633.45,447.17l5.29-3.51"/><path d="M2634.21,448.47l5.28-3.52c1.6-1.06.1-3.66-1.51-2.59l-5.29,3.52c-1.6,1.06-.1,3.66,1.52,2.59Z"/><path class="cls-13" d="M2637,451.63l5.28-3.52"/><path d="M2637.76,452.93l5.29-3.52c1.6-1.07.1-3.67-1.52-2.59l-5.28,3.52c-1.6,1.06-.1,3.66,1.51,2.59Z"/><ellipse class="cls-13" cx="2598.02" cy="468.33" rx="14.84" ry="22.79" transform="translate(1009.79 2577.01) rotate(-63.23)"/><path class="cls-13" d="M2598,461.77l3-5.59"/><path d="M2599.26,462.53l3-5.59c.92-1.7-1.67-3.21-2.59-1.51l-3,5.58c-.92,1.7,1.67,3.22,2.59,1.52Z"/><path class="cls-13" d="M2595.59,460.43l3-5.58"/><path d="M2596.89,461.19l3-5.59c.91-1.7-1.68-3.21-2.6-1.51l-3,5.58c-.92,1.7,1.67,3.22,2.59,1.52Z"/><path class="cls-13" d="M2600.82,462.7l3-5.59"/><path d="M2602.12,463.46l3-5.59c.91-1.7-1.68-3.21-2.59-1.51l-3,5.58c-.92,1.7,1.67,3.22,2.59,1.52Z"/><ellipse cx="2619.36" cy="242.72" rx="1.06" ry="1.2"/><ellipse cx="2619.36" cy="246.48" rx="1.06" ry="1.2"/><ellipse cx="2619.36" cy="250.24" rx="1.06" ry="1.2"/><ellipse cx="2621.5" cy="324.59" rx="1.06" ry="1.2"/><ellipse cx="2621.5" cy="328.35" rx="1.06" ry="1.2"/><ellipse cx="2621.5" cy="332.11" rx="1.06" ry="1.2"/><path class="cls-14" d="M2688.38,119.67l0,14.93a1.52,1.52,0,0,0,2.8.76,17,17,0,0,0,1.38-17.65c-.85-1.73-3.44-.21-2.59,1.52a14,14,0,0,1-1.38,14.61l2.79.76,0-14.93a1.5,1.5,0,0,0-3,0Z"/><path class="cls-14" d="M2690,122.26l-.34,5.77c-.11,1.93,2.89,1.92,3,0l.34-5.77c.11-1.93-2.89-1.93-3,0Z"/><path class="cls-14" d="M2692.3,118.41,2692,118c-.05-.07-.26-.48-.16-.16v.79l0-.12-.38.66.06-.06-.66.38.09,0h-.8l-.35-.2a1.5,1.5,0,0,0,2.12-2.12,2,2,0,0,0-3.19.09,4.74,4.74,0,0,0-.33,2.76,1.53,1.53,0,0,0,1.5,1.5,1.5,1.5,0,0,0,1.5-1.5c0-.31,0-.63,0-.95,0-.13,0-.26,0-.39s0-.25,0-.11a.6.6,0,0,1-.22.43l-.66.39c-.79-.36-1-.39-.71-.1l2.12-2.12a1.76,1.76,0,0,0-2.82.21c-.56,1,0,1.81.58,2.57a1.53,1.53,0,0,0,2.05.54,1.5,1.5,0,0,0,.54-2Z"/><path class="cls-14" d="M2546.21,120.64l0,14.93,2.79-.76a14,14,0,0,1-1.38-14.62c.85-1.73-1.74-3.25-2.59-1.51a17,17,0,0,0,1.38,17.64,1.52,1.52,0,0,0,2.8-.75l0-14.93a1.5,1.5,0,0,0-3,0Z"/><path class="cls-14" d="M2544.57,123.22l.34,5.77c.11,1.92,3.11,1.94,3,0l-.34-5.77c-.11-1.92-3.11-1.93-3,0Z"/><path class="cls-14" d="M2547.88,120.89c.53-.77,1.14-1.63.58-2.58a1.77,1.77,0,0,0-2.82-.21l2.12,2.13c.31-.3.08-.26-.71.09l-.66-.39-.21-.36c0-.17,0-.19,0,0l0,.48c0,.32,0,.64,0,1a1.51,1.51,0,0,0,1.5,1.5,1.54,1.54,0,0,0,1.5-1.5,4.72,4.72,0,0,0-.33-2.76,2,2,0,0,0-3.19-.1,1.5,1.5,0,1,0,2.12,2.13l-.35.19h-.79l.08,0-.66-.39.06.07-.38-.66,0,.12v-.8c.09-.3-.12.11-.16.16l-.29.42a1.53,1.53,0,0,0,.54,2.06,1.54,1.54,0,0,0,2.05-.54Z"/><path class="cls-15" d="M2561.53,100.3c-5.85,45-1.24,80.47-1.8,124.51-12.71-39.78-18.66-61.94-7.63-104.47-6.13,35.73-18.58,86.61-20.82,119.54-10.62-43-6.75-73.15,7.75-117.86-13.23,58.92-18.43,64.85-45.29,114.88,9.29-37.07,19.5-79.83,30.19-116.24s22.62-83.42,53.22-101.59,70-21.88,97.52,2.58c15.45,13.74,22.85,25.53,34.13,49.82,21.14,45.5,16.49,136.61-12.28,179.28,9.64-44.18,17.07-120.45,1.29-160.69,14.9,47,.42,99.7-7.71,146.06-5.95-48.07,5.53-97.27-7.86-145.39,14.77,29.78,8.64,84.3-7.43,113.57,1.14-35.81,6.29-85.25-11.53-115.3-7-11.77-11.64-16-24.22-20.9-12.93-5.06-32.47-4.76-47.4.36-15.35,5.27-25.67,18.69-31.58,35.44"/><path class="cls-12" d="M2654.13,367.18c.48-2.49.93-4.89,1.38-7.14q1.8-9.15,2.93-18,1.32-10.36,1.76-20.35c.06-1,.09-2,.12-3a243.76,243.76,0,0,0-13.63-89.07l-53.72.58c-9.49,25.35-11.11,57.07-10.23,88.48.46,16.6,1.62,33.08,2.68,48.52"/><path class="cls-12" d="M2585.76,256.91C2570.47,274,2559.83,275.2,2553.7,300c-5.36,21.67,3.36,31.78,17.66,47.9a69.35,69.35,0,0,0,8.38-9.36c-10.59-10.8-16.89-20.71-14.15-35.67s10-21.33,19.07-32.2a53.44,53.44,0,0,0,9.08-14.26c-2.93.41-5.9.77-8.84,1.16"/><path class="cls-2" d="M2588.91,348.79a127.26,127.26,0,0,0-9.42-10.62c-.85-.85-1.71-1.7-2.58-2.53-.44-.42-1.83-2-2.33-2.07-.29,0-.57.56-.71.72l-.69.79c-.45.5-.88,1-1.33,1.51l-2.91,3.31-1.45,1.65-.76.86c-.11.14-.67.51-.59.75s.94,1,1.18,1.2l1.27,1.25,2.64,2.59,5.29,5.19a8.7,8.7,0,0,0,2,1.64c.74.37,1.54.35,1.62-.25a3.09,3.09,0,0,0-.74-1.73l-5.37-8,8.53,9.7a10.94,10.94,0,0,0,1.75,1.72c.66.46,1.45.73,1.87.47.69-.43.07-1.82-.58-2.91a84.88,84.88,0,0,0-7.65-10.71,78.6,78.6,0,0,0,8.28,9.59c1.2,1.18,2.68,2.45,3.93,2.5s1.62-1.23,1.19-2.57A14.15,14.15,0,0,0,2588.91,348.79Z"/><path class="cls-11" d="M2644.72,255.53c18.72,50.15,18.77,62.22,62.15,94,1.73-1.88,3.45-3.77,5.14-5.68-36.42-33-37.4-41.2-55.88-88.41"/><path class="cls-2" d="M2721.48,347.16c-3.07-2.38-6.3-4.68-9.58-6.88-.83-.56-1.76-1-2.64-1.69-.46-.32-1.32-1.09-1.93-1.1s-.37.33-.58.7-.24.57-.44,1-.46,1.12-.69,1.66c-.49,1.18-1.06,2.51-1.55,3.67-.25.58-.54,1.24-.73,1.72s-.33.71-.46,1.09-.43.48-.23.89.71.51,1.1.76l1.24.75,2.61,1.59,5.2,3.18a8.61,8.61,0,0,0,1.88.88c.61.19,1.13.08,1.19-.56s-.43-.95-.85-1.37c-1.91-1.91-3.91-3.79-5.86-5.68,2.9,2.1,5.81,4.22,8.71,6.3a6.06,6.06,0,0,0,1.7,1c.63.19,1.26.67,1.48-.27s-.33-1.58-1.08-2.31c-2.55-2.46-5.32-5-8.09-7.27a104.32,104.32,0,0,0,8.42,6.17c1.14.72,2.22,1.47,3.52,1s1-1.45.36-2.48A12.32,12.32,0,0,0,2721.48,347.16Z"/><path class="cls-16" d="M2708.62,370.88c-3.11-.47-1-.54-1.29-.28-4.64-4.05-7-7.92-4.19-14.25a204.75,204.75,0,0,1,10.51-20.21c3.46-5.69,8.38-7.73,14.07-4.92h0c5.69,2.82,6.59,8.1,4.24,14.1s-7.92,14.27-10.3,20.16S2712.14,371.41,2708.62,370.88Z"/><path class="cls-17" d="M2719.51,366.82l-16.35-8.22,12.56-24.16,16.35,8.23Z"/><path class="cls-18" d="M2712,366.48a2.31,2.31,0,0,1-3.16,1,2.24,2.24,0,0,1-1-3.14,2.3,2.3,0,0,1,3.16-1.05A2.24,2.24,0,0,1,2712,366.48Z"/><path class="cls-19" d="M2711.54,366.25a1.8,1.8,0,0,1-2.47.82,1.74,1.74,0,0,1-.77-2.45,1.8,1.8,0,0,1,2.47-.82A1.74,1.74,0,0,1,2711.54,366.25Z"/><path class="cls-18" d="M2726.11,335.12a.44.44,0,0,1-.61.2.44.44,0,0,1-.2-.61.47.47,0,0,1,.62-.21A.44.44,0,0,1,2726.11,335.12Z"/><path d="M2726,335.07a.36.36,0,1,1-.64-.32.36.36,0,0,1,.49-.16A.35.35,0,0,1,2726,335.07Z"/></g></svg>
